<svg xmlns="http://www.w3.org/2000/svg" viewBox="0 0 542.47 394.93"><defs><style>.cls-1{fill:#95c1eb;}.cls-2{fill:#b2d2f9;}.cls-3{fill:#fff;}.cls-4{fill:#14242b;}.cls-5{fill:#f4a7b7;}</style></defs><g id="Layer_2" data-name="Layer 2"><g id="Слой_2" data-name="Слой 2"><path class="cls-1" d="M539.11,144.51c-9.7-29-35.14-51.11-64.16-59.74-25.06-7.46-51.26-5.33-76.77-.18,1.48-38.9-28.35-77.16-69.3-83.41-51.5-7.87-92,24.7-108.6,69.25-6.67-38.82-57.57-61.79-92.57-43.36C98.6,42.39,89.23,75.94,95.9,106c-19-.81-37.89,1.27-55.69,10.16C14.41,129-3.16,155.57.48,184.87c3.35,27,22.56,51.5,46.85,63.35,15.16,7.39,31.21,10.86,47.56,12.26C79,288.1,75.31,322.66,88.64,352.7c13.21,29.78,43.69,35.19,70.63,19.6,13-7.55,25-17.65,37-26.73,4.44-3.35,8.84-6.75,13.26-10.14,7.44,28.07,22.61,54,53.74,58.76,36.35,5.61,60.52-21.69,75.72-51.74a143.36,143.36,0,0,0,51.68,22.11c25.06,5.13,58.13,6.74,77.89-12.7,20.35-20,16.09-53.07,6.46-77.27a132.74,132.74,0,0,0-15.47-28.35c18.77-3.18,36.71-9.42,52.31-21.66C535.83,205.74,549.12,174.48,539.11,144.51ZM408.29,327c.25-.13.48-.29.72-.43.25.21.52.41.78.6Z"/><path class="cls-2" d="M132.63,232.89a5.59,5.59,0,0,1,5.25,8.54c-11.2,17.63-30.15,54.13-8.71,72.28,20.93,17.7,53.51-17,69.89-37.57A7.83,7.83,0,0,1,212.73,279c6.42,23.37,23,62.62,60.91,54.72,32-6.67,40-32.54,41.29-52.17a7.72,7.72,0,0,1,13.59-4.41C351.37,303.84,396,346,429.23,315.93c34.75-31.44,3-76.43-15.53-97.37A6.36,6.36,0,0,1,418.63,208c31.07.75,98.51-3.4,123.37-50.58a65.35,65.35,0,0,0-2.89-12.89c-9.7-29-35.14-51.11-64.16-59.74-25.06-7.46-51.26-5.33-76.77-.18,1.48-38.9-28.35-77.16-69.3-83.41-51.5-7.87-92,24.7-108.6,69.25-6.67-38.82-57.57-61.79-92.57-43.36C98.6,42.39,89.23,75.94,95.9,106c-19-.81-37.89,1.27-55.69,10.16A74.36,74.36,0,0,0,6.74,149C17.41,177,50.59,239.41,132.63,232.89Z"/><path class="cls-3" d="M175.57,165.79a26.56,26.56,0,1,1,26.56,26.56A26.56,26.56,0,0,1,175.57,165.79Z"/><path class="cls-4" d="M192.05,171.65A15.94,15.94,0,1,1,208,187.58,15.94,15.94,0,0,1,192.05,171.65Z"/><path class="cls-3" d="M184.08,171.65a8,8,0,1,1,8,8A8,8,0,0,1,184.08,171.65Z"/><path class="cls-3" d="M311,165.79a26.56,26.56,0,1,1,26.56,26.56A26.56,26.56,0,0,1,311,165.79Z"/><path class="cls-4" d="M327.52,171.65a15.94,15.94,0,1,1,15.93,15.93A15.94,15.94,0,0,1,327.52,171.65Z"/><path class="cls-3" d="M319.55,171.65a8,8,0,1,1,8,8A8,8,0,0,1,319.55,171.65Z"/><path class="cls-4" d="M237.59,214.5c6.27,29.45,48.32,28.6,52.93-1.31.65-4.2-5.77-6-6.43-1.78C280.49,234.78,249,236,244,212.72c-.9-4.19-7.33-2.41-6.44,1.78Z"/><path class="cls-4" d="M211.26,104.15c-9.86-4.88-22.29.33-25.42,11a3,3,0,0,0,1.11,3.41,2.66,2.66,0,0,0,3.54,1.22,167,167,0,0,0,20.77-9.84C213.34,108.73,213.53,105.27,211.26,104.15Z"/><path class="cls-4" d="M355.05,115.12c-3.13-10.65-15.57-15.85-25.43-11-2.26,1.12-2.08,4.58,0,5.76a167.83,167.83,0,0,0,20.78,9.84,2.66,2.66,0,0,0,3.53-1.21A3,3,0,0,0,355.05,115.12Z"/><path class="cls-5" d="M124.72,185.9a17.79,17.79,0,1,1,17.79,17.78A17.79,17.79,0,0,1,124.72,185.9Z"/><path class="cls-5" d="M375.88,185.9a17.79,17.79,0,1,1,17.79,17.78A17.79,17.79,0,0,1,375.88,185.9Z"/></g></g></svg>