<svg xmlns="http://www.w3.org/2000/svg" viewBox="0 0 555.98 671.04"><defs><style>.cls-1{fill:#719cbc;}.cls-2{fill:#8aa7b5;}.cls-3{fill:#fbb903;}.cls-4{fill:#f9ec6c;}.cls-5{fill:#95c1eb;}.cls-6{fill:#6093b1;}.cls-7{fill:#94b7ed;opacity:0.47;}.cls-8{fill:#fff;}.cls-9{fill:#14242b;}.cls-10{fill:#fed24f;}.cls-11{fill:#fbbe0d;}.cls-12{fill:#f4a7b7;}</style></defs><g id="Layer_2" data-name="Layer 2"><g id="Слой_2" data-name="Слой 2"><path class="cls-1" d="M551,294.14c-7.54-16.34-21.35-26.82-37-31.37-.2,0-.4-.12-.6-.18.22-.25.42-.53.64-.78,0-.95.05-1.48.05-1.48l1,.14a80.36,80.36,0,0,0,11.08-17.39c10.94-23.66,10.85-51.88-6.19-72.65-14.49-17.66-39.15-26.89-61-18.11a50.35,50.35,0,0,0-7.51,3.8C440.06,119,408.44,88,368.84,81.76c-37.87-5.94-75.62,10.7-100.28,38.81l-.12.1a73.25,73.25,0,0,0-5.15,5.46c-14.62-22-40.7-36.24-68.78-30.76-35.24,6.87-56.2,43.1-52.47,76.7a81.39,81.39,0,0,0-16.33-8.68c-22.27-8.7-47.91-3.95-64.55,13.64-14.79,15.64-21.61,38.62-19.46,59.85,1.43,14.19,6,27.31,12.25,39.75-.57,0-1.14.08-1.71.11l-2,.13L30,281.16C15.49,286.63,4.17,297.47.79,316.6-2.83,337,6.34,358.79,22,372.09c15.44,13.15,34.71,18.28,54.23,21.31a55.36,55.36,0,0,0,8.7,25.25c10.4,16.24,27,25.64,44.61,32.23,35.33,13.2,73.66,21.6,110.82,27.62,75.95,12.29,157,10.53,226.32-26.45,28.48-15.18,54.05-45.24,50.69-77.12C546.93,362.08,565.35,325.22,551,294.14Zm-76.77,75,.37-.13c.1.2.2.4.31.59C474.71,369.41,474.48,369.25,474.25,369.11Zm31.87-65.32c.87-.16.77.44,0,0Z"/><path class="cls-2" d="M474.62,369l-.37.13c.23.14.46.3.68.46C474.82,369.38,474.72,369.18,474.62,369Z"/><path class="cls-2" d="M506.12,303.79c.77.44.87-.16,0,0Z"/><path class="cls-2" d="M514.06,261.81c.38-.44.73-.89,1.1-1.34l-1-.14S514.1,260.86,514.06,261.81Z"/><path class="cls-3" d="M418.16,501.8l10.39-3.53a12.11,12.11,0,0,1,16,11.71L444,538.7a6.15,6.15,0,0,0,8.31,5.88l8.43-3.18a14,14,0,0,1,18.81,14.74l-11.58,96.93a2.78,2.78,0,0,1-5.45.34L448,594.53a6.15,6.15,0,0,0-7.75-4.42h0a21.08,21.08,0,0,1-27-17.87l-2.4-21.78a6.14,6.14,0,0,0-8.08-5.14l-3.05,1A22.82,22.82,0,0,1,370,529.06L357.9,466.62a6.14,6.14,0,0,1,5.09-7.24l40.86-6.31a6.15,6.15,0,0,1,7.08,6.23L410,495.83A6.15,6.15,0,0,0,418.16,501.8Z"/><path class="cls-4" d="M473.54,606.1l6-50A14,14,0,0,0,460.7,541.4l-8.43,3.18A6.15,6.15,0,0,1,444,538.7l.58-28.72a12.11,12.11,0,0,0-16-11.71l-10.39,3.53a6.15,6.15,0,0,1-8.12-6l.89-36.53a6.15,6.15,0,0,0-7.08-6.23l-25.87,4,11.12,57.58a22.83,22.83,0,0,0,29.74,17.29l3-1A6.15,6.15,0,0,1,430,536l2.41,21.78a21.07,21.07,0,0,0,27,17.87,6.14,6.14,0,0,1,7.74,4.42Z"/><path class="cls-2" d="M235.93,671v0h0Z"/><path class="cls-5" d="M228,548.78a1.43,1.43,0,0,0-.08-.22c.12-2-3.09-2.63-3.8-.47-3,9.33-10.56,17.14-12,26.94-1,6.75,1.84,14.65,9.44,15.8,7.44,1.12,10.81-5.93,11.75-12.13C234.79,568.72,230.45,558.29,228,548.78Zm-3.5,33.16h.05l0,0,0,0Zm2.26-22.72c0-.07,0-.14,0-.21l.06.24A.29.29,0,0,0,226.71,559.22Z"/><path class="cls-6" d="M281.68,501.45a2,2,0,0,0-3.57.81,1.73,1.73,0,0,0-.36.81c-3.06,15.77-17.86,26.24-20.05,42.31-1.32,9.66,4.06,21.6,15,22.19,12.57.68,18.54-12.45,19.51-23C293.65,529.48,289.56,514.32,281.68,501.45ZM288,544c.16-.52.31-1.05.44-1.58-.06.61-.14,1.23-.23,1.87ZM267.9,562.07a15.31,15.31,0,0,0,2.26.89,8.1,8.1,0,0,0,.85.53,16,16,0,0,1-2.08-.85C268.57,562.46,268.23,562.27,267.9,562.07Z"/><path class="cls-6" d="M252.81,608.2a1.4,1.4,0,0,0-2.55.58,1.36,1.36,0,0,0-.27.58c-2.19,11.29-12.78,18.79-14.35,30.29-.94,6.92,2.91,15.46,10.77,15.89,9,.48,13.27-8.92,14-16.44A50.66,50.66,0,0,0,252.81,608.2Zm4.53,30.45c.12-.37.22-.75.32-1.13-.05.43-.11.88-.17,1.34ZM243,651.6a10.17,10.17,0,0,0,1.61.64c.2.14.4.26.61.38a12.68,12.68,0,0,1-1.49-.61C243.43,651.88,243.18,651.74,243,651.6Z"/><path class="cls-5" d="M350.77,569.25c-2.94-6.93-5.46-13.42-6.68-20.91a1.77,1.77,0,0,0-.36-.82c.21-1.7-1.89-3.31-3.14-1.68-6.67,8.64-12,18.42-13.42,29.37-1.09,8.24.17,20.75,10.49,22.34,8.8,1.35,14.51-8.46,15.3-15.94A24.25,24.25,0,0,0,350.77,569.25Zm-10.2.48v0h0Zm2.07,22.82-.16.06a14.32,14.32,0,0,0,4.69-4.17l.15-.1A9.82,9.82,0,0,1,342.64,592.55Z"/><path class="cls-5" d="M298.68,582.87a2.62,2.62,0,0,0-1.54-1.57,2.06,2.06,0,0,0-2.54.26l-.21.21-.06.06c-6.94,8.35-20.7,38.9-1.32,41.86C315.17,627.07,301.39,591.67,298.68,582.87Zm-2.74,27.41,0,.12,0,0A.17.17,0,0,1,295.94,610.28Z"/><path class="cls-7" d="M188.62,588.46a2.67,2.67,0,0,0-1.54-1.58,2.06,2.06,0,0,0-2.54.27l-.21.21-.06,0c-6.94,8.35-20.7,38.91-1.32,41.87C205.11,632.66,191.34,597.26,188.62,588.46Zm-2.74,27.4,0,.12,0,0S185.88,615.89,185.88,615.86Z"/><path class="cls-6" d="M375.54,611.29a1.61,1.61,0,0,0-.17-.43c.46-2.48-3.26-4.28-4.69-1.69-4.6,8.32-19.74,38.1-.91,41.08C388.28,653.19,377,618.49,375.54,611.29Z"/><path class="cls-8" d="M180.46,278.59a29.38,29.38,0,1,1,29.72,29A29.38,29.38,0,0,1,180.46,278.59Z"/><path class="cls-9" d="M198.76,284.86a17.63,17.63,0,1,1,17.83,17.42A17.63,17.63,0,0,1,198.76,284.86Z"/><path class="cls-8" d="M190,285a8.81,8.81,0,1,1,8.91,8.71A8.81,8.81,0,0,1,190,285Z"/><path class="cls-8" d="M330.29,276.86A29.38,29.38,0,1,1,360,305.91,29.38,29.38,0,0,1,330.29,276.86Z"/><path class="cls-9" d="M348.6,283.13a17.63,17.63,0,1,1,17.83,17.43A17.62,17.62,0,0,1,348.6,283.13Z"/><path class="cls-8" d="M339.78,283.23A8.82,8.82,0,1,1,348.7,292,8.81,8.81,0,0,1,339.78,283.23Z"/><path class="cls-10" d="M366.36,1.41l-22,89.4a7.94,7.94,0,0,0,7,9.81l19.1,1.73a5.35,5.35,0,0,1,4.8,6.21l-10.66,64.1a1.68,1.68,0,0,0,3.18,1L410,82.33A8.76,8.76,0,0,0,403.21,70l-27.09-3.6a7.2,7.2,0,0,1-6.26-7.16L370,1.85A1.84,1.84,0,0,0,366.36,1.41Z"/><path class="cls-4" d="M388.3,91.46c-6.37-5-21.54.23-29.85-4.59-7.12-4.13,6.67-68.19,10.77-86.51a1.82,1.82,0,0,0-2.86,1l-22,89.4a7.94,7.94,0,0,0,7,9.81l19.1,1.73a5.35,5.35,0,0,1,4.8,6.21l-10.66,64.1a1.68,1.68,0,0,0,3.18,1l1.35-2.93C375.19,152.53,393.65,95.67,388.3,91.46Z"/><path class="cls-9" d="M261.52,373.83c4.07-11.77,10.51-27,25.18-27.12,14.21-.16,21.38,16.46,23.94,28.44.87,4.07,7.09,2.27,6.22-1.8-3.08-14.44-12.9-34.08-30.23-33.53-17.78.56-26.33,17.75-31.37,32.36-1.36,3.95,4.91,5.57,6.26,1.65Z"/><path class="cls-9" d="M243.69,195.85c-3.3-3.83-7.64-8.59-13.13-8.62-4,0-7.8,2.5-8.48,6.54-.5,3,.78,5.73,2.6,8.18,3.26,8.27,11.32,17.24,20.6,16.5,4.52-.37,7.15-4.2,6.64-8.51C251.28,204.6,247.06,199.78,243.69,195.85Z"/><path class="cls-9" d="M354.48,192.4A4,4,0,0,0,354,191c-2.78-6-10.17-5.66-15.15-2.61a31.54,31.54,0,0,0-9.77,9.84,30.29,30.29,0,0,0-6.16,10.58c-1.87,5.71,1.1,10.48,7.34,10,7-.48,14.26-7,18.86-11.76C352.57,203.46,356,197.63,354.48,192.4Zm-23.05,16c0-.21.11-.42.16-.63a2.9,2.9,0,0,0,.49.35,3,3,0,0,0,.18.36c-.19.13-.38.27-.58.39a6.91,6.91,0,0,0-.74.48A1.75,1.75,0,0,0,331.43,208.39Z"/><path class="cls-2" d="M474.62,369l-.37.13c.23.14.46.3.68.46C474.82,369.38,474.72,369.18,474.62,369Z"/><path class="cls-2" d="M506.12,303.79c.77.44.87-.16,0,0Z"/><path class="cls-6" d="M.79,316.6C-2.83,337,6.34,358.79,22,372.09c15.44,13.15,34.71,18.28,54.23,21.31a55.36,55.36,0,0,0,8.7,25.25c10.4,16.24,27,25.64,44.61,32.23,35.33,13.2,73.66,21.6,110.82,27.62,75.95,12.29,157,10.53,226.32-26.45,28.48-15.18,54.05-45.24,50.69-77.12,29.59-12.85,48-49.71,33.68-80.79-7.54-16.33-21.33-26.8-37-31.36-2.09,7.1-48,155.78-233.43,160-190,4.35-226.25-146.38-226.25-146.38l-.61-.2c.06.14.12.27.19.4C29,277.67,5.89,287.77.79,316.6Zm505.33-12.81c.87-.16.77.44,0,0ZM474.62,369c.1.2.2.4.31.59-.22-.16-.45-.32-.68-.46Z"/><path class="cls-4" d="M168.91,367.76,134,470.45a9.36,9.36,0,0,0,7.21,12.23l22.25,4a6.32,6.32,0,0,1,5,7.78l-19,74.15a2,2,0,0,0,3.63,1.47l58.87-102.87A10.33,10.33,0,0,0,205.2,452l-31.44-7a8.48,8.48,0,0,1-6.61-9l6-67.3A2.18,2.18,0,0,0,168.91,367.76Z"/><path class="cls-11" d="M185.52,475.68c-7-6.53-25.3-1.91-34.57-8.42-7.94-5.57,14.75-79.35,21.44-100.43a2.16,2.16,0,0,0-3.48.93L134,470.45a9.36,9.36,0,0,0,7.21,12.23l22.25,4a6.32,6.32,0,0,1,5,7.78l-19,74.15a2,2,0,0,0,3.63,1.47l1.89-3.29C163.92,546,191.37,481.17,185.52,475.68Z"/><path class="cls-12" d="M108.85,320.07A24.83,24.83,0,1,1,134,344.61,24.84,24.84,0,0,1,108.85,320.07Z"/><path class="cls-12" d="M409,316.61a24.83,24.83,0,1,1,25.11,24.54A24.83,24.83,0,0,1,409,316.61Z"/><path class="cls-4" d="M457.19,383.83c-4.39-2.66-7.48-1.57-12.36-2.25-1.3.11-2.61.21-3.92.29q-7.37-4.19-7.73-11.29c-1-4-1-8.56-1.5-12.68a3.38,3.38,0,0,0-.4-1.27c.08-.27.15-.55.24-.82,1.21-4-5.06-5.63-6.27-1.65A172.38,172.38,0,0,0,418,397a3.27,3.27,0,0,0,4.14,3.08,87.94,87.94,0,0,1,17-3,296.65,296.65,0,0,0-3,39.41c0,3.06,4.69,4.55,6.06,1.56a232.5,232.5,0,0,0,16.5-50.59A3.35,3.35,0,0,0,457.19,383.83Zm-11.72,14.69c0,.1,0,.21,0,.31h-.07l.06-.44S445.47,398.48,445.47,398.52Zm5.8-8.27a9.23,9.23,0,0,0-2.09-2.29,12.26,12.26,0,0,1,2.69.56c-.14.68-.29,1.36-.44,2C451.37,390.46,451.33,390.35,451.27,390.25Z"/></g></g></svg>