<svg xmlns="http://www.w3.org/2000/svg" viewBox="0 0 591.65 525.62"><defs><style>.cls-1{fill:#8bbfe9;}.cls-2{fill:#c8e7f9;}.cls-3{fill:#b2d2f9;}.cls-4,.cls-8{fill:#fff;}.cls-5{fill:#14242b;}.cls-6{fill:#95c1eb;}.cls-7{fill:#f4a7b7;}.cls-8{opacity:0.49;}</style></defs><g id="Layer_2" data-name="Layer 2"><g id="Слой_2" data-name="Слой 2"><path class="cls-1" d="M141.28,404.73a1.43,1.43,0,0,0-.08-.22c.15-2-3-2.66-3.78-.51-3.15,9.27-10.74,17-12.26,26.73-1,6.73,1.66,14.64,9.23,15.87,7.41,1.21,10.86-5.79,11.86-12C147.87,424.7,143.66,414.25,141.28,404.73Zm-3.87,33h.05l0,0v0Zm2.51-22.64a1.55,1.55,0,0,0,0-.21c0,.08,0,.16.07.25Z"/><path class="cls-2" d="M170.08,453a1.34,1.34,0,0,0-2.44.53,1.23,1.23,0,0,0-.26.55c-2.21,10.76-12.41,17.79-14,28.75-1,6.6,2.6,14.79,10.11,15.28,8.58.57,12.76-8.36,13.51-15.53A48.4,48.4,0,0,0,170.08,453Zm4,29.11c.12-.35.22-.71.32-1.07,0,.42-.11.84-.18,1.28Zm-13.88,12.21a10.41,10.41,0,0,0,1.54.63,5.5,5.5,0,0,0,.57.36,12.52,12.52,0,0,1-1.41-.59C160.65,494.62,160.41,494.49,160.19,494.35Z"/><path class="cls-1" d="M263.56,426.57c-2.84-6.95-5.28-13.46-6.41-20.94a1.76,1.76,0,0,0-.35-.83c.22-1.69-1.85-3.32-3.12-1.71-6.75,8.55-12.14,18.24-13.72,29.15-1.18,8.21-.08,20.7,10.21,22.4,8.76,1.45,14.57-8.27,15.44-15.72A24.06,24.06,0,0,0,263.56,426.57Zm-10.17.36v0h0Zm1.81,22.78-.17.06a14.41,14.41,0,0,0,4.72-4.1l.16-.11A9.82,9.82,0,0,1,255.2,449.71Z"/><path class="cls-2" d="M211.44,439.55a2.63,2.63,0,0,0-1.51-1.59,2.07,2.07,0,0,0-2.54.24l-.21.2-.06.06c-7,8.25-21.1,38.57-1.8,41.75C227.39,483.84,214.05,448.37,211.44,439.55Zm-3,27.31s0,.08,0,.12l0,0Z"/><path class="cls-3" d="M185.94,385.71a2.34,2.34,0,0,1,.48-.93,2.67,2.67,0,0,1,4.74-.76c6,8.94,12.29,35.74-5.66,36.23-6,.17-10-5.25-10.15-10.92C175.1,400.19,183.77,394.07,185.94,385.71Z"/><path class="cls-3" d="M94.23,362.92a2.6,2.6,0,0,0-1.52-1.59,2.05,2.05,0,0,0-2.53.23,1.39,1.39,0,0,0-.21.21l-.06.05c-7,8.25-21.1,38.58-1.8,41.75C110.17,407.2,96.84,371.73,94.23,362.92Zm-3,27.31,0,.12,0-.05Z"/><path class="cls-1" d="M241.34,491.79a2.56,2.56,0,0,0-.22-1,2.66,2.66,0,0,0-4.36-2c-8.13,7-21.33,31.19-4.17,36.43,5.76,1.76,11-2.41,12.69-7.84C248,508.62,241.21,500.43,241.34,491.79Z"/><path class="cls-3" d="M290.25,476.14a2.14,2.14,0,0,0-.16-.42c.48-2.47-3.21-4.31-4.67-1.75-4.68,8.25-20.12,37.79-1.38,41C302.48,518.09,291.58,483.35,290.25,476.14Z"/><path class="cls-3" d="M440.14,407.65c1,6.18,4.45,13.18,11.86,12,7.58-1.23,10.29-9.14,9.24-15.87C459.71,394,452.13,386.29,449,377c-.73-2.15-3.93-1.45-3.79.51,0,.07-.06.14-.08.22C442.74,387.27,438.53,397.72,440.14,407.65Zm8.84,3.18,0,0,0,0H449Zm-2.61-22.65.06-.24c0,.07,0,.14,0,.21S446.41,388.18,446.37,388.18Z"/><path class="cls-3" d="M438.33,480.48c.79,7.5,5.15,16.83,14.13,16.25,7.84-.52,11.58-9.09,10.56-16-1.7-11.45-12.36-18.81-14.67-30.05a1.25,1.25,0,0,0-.27-.58,1.39,1.39,0,0,0-2.55-.54A50.52,50.52,0,0,0,438.33,480.48Zm2.88-.27c-.07-.45-.13-.9-.18-1.33.1.38.21.75.33,1.12Zm13.93,13a12.14,12.14,0,0,1-1.48.63,6.17,6.17,0,0,0,.6-.39,10.24,10.24,0,0,0,1.61-.65C455.63,492.9,455.39,493,455.14,493.17Z"/><path class="cls-3" d="M345.31,424.2c.88,7.45,6.69,17.17,15.45,15.72,10.28-1.7,11.39-14.19,10.2-22.39-1.57-10.92-7-20.61-13.71-29.16-1.28-1.61-3.35,0-3.12,1.72a1.67,1.67,0,0,0-.35.82c-1.13,7.48-3.57,14-6.42,20.94A24.27,24.27,0,0,0,345.31,424.2Zm12.23-12h0v0ZM351,430.85l.15.1a14.28,14.28,0,0,0,4.72,4.1,1,1,0,0,1-.16-.06A9.77,9.77,0,0,1,351,430.85Z"/><path class="cls-2" d="M405.61,465.49c19.29-3.18,5.22-33.5-1.81-41.75l-.06-.05a1,1,0,0,0-.21-.21,2.05,2.05,0,0,0-2.53-.23,2.6,2.6,0,0,0-1.52,1.59C396.87,433.65,383.54,469.12,405.61,465.49Zm-3.07-13.27,0,0,0-.12S402.54,452.19,402.54,452.22Z"/><path class="cls-3" d="M304.8,402.88a2.36,2.36,0,0,0-.49-.93,2.67,2.67,0,0,0-4.73-.76c-6,8.94-12.29,35.74,5.65,36.23,6,.17,10-5.25,10.15-10.92C315.63,417.36,307,411.24,304.8,402.88Z"/><path class="cls-2" d="M510.56,420.74c19.29-3.17,5.22-33.5-1.81-41.75,0,0,0,0-.06-.05a1,1,0,0,0-.21-.21,2.05,2.05,0,0,0-2.53-.23,2.62,2.62,0,0,0-1.52,1.59C501.82,388.9,488.49,424.37,510.56,420.74Zm-3.07-13.27,0,0,0-.13Z"/><path class="cls-2" d="M378.69,486.21a2.29,2.29,0,0,1,.48-.93,2.67,2.67,0,0,1,4.73-.75c6,8.93,12.29,35.73-5.65,36.23-6,.16-10-5.26-10.15-10.92C367.85,500.69,376.51,494.58,378.69,486.21Z"/><path class="cls-3" d="M323.13,463.88a1.59,1.59,0,0,1,.16-.43c-.48-2.47,3.21-4.31,4.67-1.74,4.68,8.25,20.12,37.78,1.38,41C310.9,505.82,321.8,471.08,323.13,463.88Z"/><path class="cls-3" d="M574.4,208.82a54,54,0,0,0-21.95-11.06c.83-2.13,1.6-4.3,2.26-6.54,7.54-25.66,1.19-54.36-20.5-71-18.27-14.05-43.27-17.27-65.32-11.61a92.67,92.67,0,0,0-14.82,5.24c1.83-15.71,1.65-31.53-1.84-47C444,30,413.74,4.41,376.66.52,340.86-3.24,304,13.76,280.38,40.17,265.09,57.25,254.1,77,245.12,97.71a24,24,0,0,0-5.73,1.3A129.38,129.38,0,0,0,212,74.29c-24.23-15.85-57-20.54-83.25-7-24,12.38-36.52,38.26-39.31,64.14a98.09,98.09,0,0,0,.94,26.71,69.08,69.08,0,0,0-42,1.25C11.75,172.52-5.41,208.92,1.5,246.11c10.05,54,59.09,78.83,110,91.58,40.88,15.59,86.64,20.5,129.21,25.27,57.92,6.49,116.48,7.5,174.12-2.12a362.78,362.78,0,0,0,79-22.21c26.23-10.84,54.07-24.11,74.6-44.17C591.84,271.52,603.52,232.69,574.4,208.82Z"/><circle class="cls-4" cx="229.77" cy="180.14" r="24.53" transform="translate(1.2 361.8) rotate(-76.57)"/><path class="cls-5" d="M215.05,180.14a14.72,14.72,0,1,1,14.72,14.72A14.72,14.72,0,0,1,215.05,180.14Z"/><path class="cls-4" d="M330.33,180.14a24.53,24.53,0,1,1,24.53,24.53A24.52,24.52,0,0,1,330.33,180.14Z"/><path class="cls-5" d="M340.14,180.14a14.72,14.72,0,1,1,14.72,14.72A14.72,14.72,0,0,1,340.14,180.14Z"/><path class="cls-6" d="M520.48,251.69c-9.68-5.1-21.38.42-24.16,11-3,11.48-10.85,24.33-28.63,35.19-27.14,16.59-55.21.73-72.81-13.95a18.6,18.6,0,0,0-27.94,4.58c-9.77,16.32-27.8,36-58.68,38.8-31.81,2.89-51.68-18.92-62.64-37.33-5.34-9-17.87-10.37-24.72-2.51-11.71,13.44-31.23,27-59.81,20.22-25.46-6.06-37.74-22.31-43.65-37.2C112.88,259,99.89,253.6,88.28,257.84,77,262,61.92,263.4,43.35,256.18c-36.43-14.17-29.44-60-25.89-75.65C2.74,197.89-3,221.83,1.5,246.11c10.05,54,59.09,78.83,110,91.58,40.88,15.59,86.64,20.5,129.21,25.27,59.38,6.65,119.43,7.55,178.47-2.87a376.54,376.54,0,0,0,85.23-25.95c23-10,46.22-22.3,64-39.68,19-18.54,30.21-47.43,18.49-70.44C567.28,265.21,540.22,262.08,520.48,251.69Z"/><path class="cls-4" d="M215.05,167.88a7.36,7.36,0,1,1,7.36,7.36A7.36,7.36,0,0,1,215.05,167.88Z"/><circle class="cls-4" cx="345.05" cy="167.88" r="7.36"/><path class="cls-5" d="M271.63,224.93C270.91,239.1,282.22,253.08,297,253s26.14-13.77,25.44-28c-.23-4.72-7.59-4.75-7.36,0,.5,10.17-7.17,20.7-18.08,20.69s-18.55-10.57-18-20.74c.25-4.73-7.11-4.72-7.36,0Z"/><path class="cls-7" d="M142.69,223.07a19.63,19.63,0,1,1,19.62,19.62A19.62,19.62,0,0,1,142.69,223.07Z"/><circle class="cls-7" cx="423.54" cy="224.29" r="19.62" transform="translate(134.3 606.44) rotate(-80.78)"/><path class="cls-8" d="M305.87,56.35c-4-.64-4.45-4.78-2.78-8.46,10.07-22.27,63.84-55.26,94-29.6C426.38,43.15,347.63,63,305.87,56.35Z"/><path class="cls-8" d="M107.13,136c-9.82-4.9,2.45-44.15,29.43-58.87s66.23-4.9,66.23,14.72c0,12.27-29.44-12.26-58.87,7.36C123.71,112.67,116.94,140.9,107.13,136Z"/><path class="cls-8" d="M455.43,140.9c-9.55-11.46,36.79-36.79,63.77-14.72s24.53,51.51,14.72,56.42-11.75-30.41-29.44-39.25C480,131.09,467.69,155.62,455.43,140.9Z"/><path class="cls-8" d="M97.31,177.69c2.46-12.26-34.34-17.17-54-4.9s-29,31.14-19.62,36.79C36,216.94,36,190,60.52,182.6,74.81,178.31,94.72,190.64,97.31,177.69Z"/></g></g></svg>