<svg xmlns="http://www.w3.org/2000/svg" viewBox="0 0 402.44 425.55"><defs><style>.cls-1{fill:#fbc726;}.cls-2{fill:#fbbe0d;}.cls-3{fill:#fbb903;}.cls-4{fill:#482a02;}.cls-5{fill:#d43942;}.cls-6{fill:#fbd567;}.cls-7{fill:#ffd0d7;}.cls-8{fill:#f9ec6c;}.cls-9{fill:#ffd521;}</style></defs><g id="Layer_2" data-name="Layer 2"><g id="Слой_2" data-name="Слой 2"><path class="cls-1" d="M98.4,30.75a3.19,3.19,0,0,1-1.17-6.08c39.33-18.34,170.4-66.25,263.08,56.86,52.6,69.88,52.74,156.76,18.09,225.34C346.32,370.36,276.54,422.35,209,425.29,95.5,430.22,33,366.08.37,298.41c-1.57-3.27,2.15-6.63,5.41-5C35.84,308,120.18,359.5,209,306.87c83.73-49.62,83.89-162.84,14.81-227C180.47,39.66,123.47,32.07,98.4,30.75Z"/><path class="cls-2" d="M209,306.87c83.73-49.62,83.89-162.84,14.81-227-43.22-40.13-100-47.78-125.2-49.13l.19-.21S222.15-7.28,291.23,106.2s0,207.24-54.28,231.92S74.12,377.59,5,293.71c-.19-.24-.36-.48-.54-.72a4,4,0,0,1,1.28.38C35.84,308,120.18,359.5,209,306.87Z"/><path class="cls-3" d="M5,293.71s85.53,164.47,243.43,97S393.21,173.64,371.82,129.23C350.73,85.41,264-30.44,103.67,21.78,149.33,2,272.18-35.54,360.31,81.53c52.6,69.88,52.74,156.76,18.09,225.34C346.32,370.36,276.54,422.35,209,425.29,97.81,430.12,35.57,368.65,2.41,302.53,4.06,297,5,293.71,5,293.71Z"/><path class="cls-4" d="M326.52,195.94c-1.14,7.6-7.85,14.33-16,13.17s-13-9-12.11-16.8c.35-3.15-4.59-3.12-4.93,0-1.12,10.12,6,20.37,16.37,21.75s19.91-6.78,21.41-16.81c.47-3.11-4.29-4.45-4.75-1.31Z"/><path class="cls-5" d="M265,263.22a4.19,4.19,0,0,0,3.7-5.47c-2.73-8.44-8.9-24.34-15.52-20.18-7.07,4.45-1,12.47,1.79,15.6a.2.2,0,0,1-.25.3c-3.08-2-10.08-5.79-13-2.31C238.15,255.38,242.62,264.84,265,263.22Z"/><path class="cls-4" d="M318.19,212.71c1.29,2.51,2.57,5,3.85,7.54,1.44,2.83,5.7.33,4.26-2.49-1.28-2.51-2.56-5-3.85-7.54-1.44-2.83-5.7-.33-4.26,2.49Z"/><path class="cls-4" d="M304.56,212.6c-.53,2.47-1.05,4.94-1.58,7.41-.65,3.1,4.1,4.42,4.76,1.31q.79-3.7,1.57-7.41c.66-3.1-4.09-4.42-4.75-1.31Z"/><path class="cls-4" d="M295,202.91l-6.58,3.28c-2.85,1.42-.35,5.68,2.49,4.26l6.58-3.28c2.84-1.42.34-5.67-2.49-4.26Z"/><path class="cls-6" d="M377.58,256.7c5.29,2.41-7.4,41.94-15.62,37.83S368.53,252.59,377.58,256.7Z"/><path class="cls-6" d="M253,388.19c-3.15-7.6,58.14-47,63-37.07S257.82,399.76,253,388.19Z"/><path class="cls-6" d="M362,110.32c8.08-2.89,34.22,56.07,21.38,62.5C375.11,176.93,350.44,114.43,362,110.32Z"/><path class="cls-7" d="M328.19,248.57c.36,7.18-6,13.33-14.19,13.75s-15.14-5.07-15.5-12.24,6-13.33,14.18-13.75S327.83,241.4,328.19,248.57Z"/><path class="cls-8" d="M330.9,4.66c-5.11-4.34-13.08,12-18.7,9.87-5.95-2.2-12.15-10.74-15.64-7.77-3.91,3.32,3.86,13.71,2.5,17.52-1.42,4-14,11.89-12.24,15.19s16.69-.37,20.18,1.44,4.84,16.85,9.61,17.15c5.24.33,5.84-17.71,8.49-18.55s15.78-1,16.82-4.38S327.25,26,327.19,23.21,334.29,7.54,330.9,4.66Z"/><path class="cls-8" d="M241.78,19.91c-4.44-1.73-6,11.07-10.26,11-4.5-.1-10.65-4.39-12.31-1.58-1.85,3.14,5.79,8.31,5.76,11.18s-6.62,11.24-4.68,13,11.11-4.13,13.88-3.72,7.17,10.18,10.45,9.27c3.59-1-.21-13.25,1.38-14.43s10.36-4.36,10.27-6.85-12-2.72-12.66-4.57S244.72,21.05,241.78,19.91Z"/><path class="cls-9" d="M181.06,126c-7.9-2.2-8.39,20-15.7,20.58-7.75.61-19-5.7-21.38-.6-2.64,5.7,11.34,13.25,11.79,18.19.46,5.17-9.44,20.39-5.8,23.17s18.35-9,23.16-8.77,14,16.24,19.5,14.12c6-2.33-2.61-22.69-.09-25s17-9.24,16.44-13.51-21-2.61-22.5-5.67S186.31,127.41,181.06,126Z"/><path class="cls-8" d="M160.29,348.06c-5.1-4.33-13.08,12-18.7,9.88-5.94-2.21-12.14-10.75-15.64-7.78-3.9,3.32,3.87,13.71,2.51,17.53-1.43,4-14,11.88-12.24,15.18s16.68-.37,20.17,1.44,4.84,16.85,9.62,17.15c5.24.33,5.84-17.71,8.49-18.55s15.78-1,16.82-4.38-14.67-9.13-14.73-11.91S163.68,351,160.29,348.06Z"/><path class="cls-8" d="M60,346.61c-4.44-1.73-6,11.07-10.26,11-4.5-.1-10.65-4.39-12.31-1.58-1.85,3.14,5.79,8.3,5.76,11.18s-6.61,11.23-4.68,13,11.12-4.13,13.88-3.72,7.17,10.18,10.45,9.27c3.59-1-.2-13.25,1.38-14.43s10.36-4.36,10.27-6.86-12-2.71-12.66-4.57S63,347.75,60,346.61Z"/></g></g></svg>