<svg xmlns="http://www.w3.org/2000/svg" viewBox="0 0 941.06 512.75"><defs><style>.cls-1{fill:#ff7d7d;}.cls-2{fill:#feba26;}.cls-3{fill:#fdf25c;}.cls-4{fill:#7cd861;}.cls-5{fill:#96cafc;}.cls-6{fill:#68a8db;}.cls-7{fill:#9f7ecf;}.cls-8{fill:#e3f4fe;}.cls-9{fill:#7a94a1;}.cls-10{fill:#c8e7f9;}.cls-11{fill:#14242b;}.cls-12{fill:#f4a7b7;}.cls-13{fill:#fff;opacity:0.57;}.cls-14{fill:#f9ec6c;}</style></defs><g id="Layer_2" data-name="Layer 2"><g id="Слой_2" data-name="Слой 2"><path class="cls-1" d="M467.11.07C158.9,5.43,127,308.28,127,308.28h15.85C159.08,228.19,223.32,36.19,467.11,32,714.48,27.65,779,227.07,794.6,303.19l17.93-.22S772.67-5.25,467.11.07Z"/><path class="cls-2" d="M467.11,32c-243.79,4.24-308,196.24-324.24,276.33h17.44C183.9,217.55,252,59.65,469.77,55.87c220.61-3.84,284.68,158.4,307,247.54l17.8-.22C779,227.07,714.48,27.65,467.11,32Z"/><path class="cls-3" d="M469.77,55.87C252,59.65,183.9,217.55,160.31,308.28h16.75c28.63-92.71,97.5-227.72,295.37-231.16C675,73.6,735.36,211.94,761.19,303.6l-75.28.93h0l90.89-1.12C754.45,214.27,690.38,52,469.77,55.87Z"/><path class="cls-4" d="M472.43,98.38c188-3.27,242.81,115.13,270.37,205.45l-38.07.47-18.82.23h0l75.28-.93C735.36,211.94,675,73.6,472.43,77.12,274.56,80.56,205.69,215.57,177.06,308.28h18.87C227.33,217.55,291,101.53,472.43,98.38Z"/><path class="cls-5" d="M472.43,119.63c170.8-3,223.43,98.16,252.29,184.42l-20,.25,38.07-.47C715.24,213.51,660.43,95.11,472.43,98.38c-181.45,3.15-245.1,119.17-276.5,209.9h16.84C245.94,221.93,306.56,122.52,472.43,119.63Z"/><path class="cls-6" d="M472.43,138.23c157.81-2.74,203.5,84.71,232.3,166.07l20-.25c-28.86-86.26-81.49-187.39-252.29-184.42-165.87,2.89-226.49,102.3-259.66,188.65h18.37C264.83,227.28,320,140.88,472.43,138.23Z"/><path class="cls-7" d="M475.08,156.83c166.14,0,205,124.36,210.83,147.7l18.82-.23c-28.8-81.36-74.49-168.81-232.3-166.07-152.42,2.65-207.6,89.05-241.29,170h18.64C255.19,291.25,303.36,156.83,475.08,156.83Z"/><path class="cls-8" d="M321.64,391.89a51.65,51.65,0,0,0-11.92-5.07c11.28-14.52,16.57-32.09,3.88-49.17-8.66-11.65-23-17.25-37.22-17.32a52.7,52.7,0,0,0-13.56,1.81,57.07,57.07,0,0,0-.55-21.14c-4-17.84-18.95-30.77-36.56-34.4-26.17-5.39-47,6.63-62.44,24.8a55.83,55.83,0,0,0-5.3-10.12c-10.16-15.16-27.79-25.2-46.26-21.26-15.11,3.23-27,15.51-33.14,29.31C74.74,298,73.06,307,71.8,316.15a39.79,39.79,0,0,0-17.59-7.52C38,306.07,20.52,312.2,9.93,324.87-7.55,345.8-.18,373.12,18.29,387.93A26.16,26.16,0,0,0,14,413c5.35,15,17.81,20.91,31.14,20.83A142.91,142.91,0,0,0,129.3,506c32.08,10.29,74.77,9.28,105.41-8.42a48.69,48.69,0,0,0,10.18,4.57c13.23,4.2,28.74,1.61,37-10.41a28.92,28.92,0,0,0,5-18.44,62.07,62.07,0,0,0,21.89-3.62c15.54-5.75,28.29-19,32.06-35.34C344.73,417.36,336.35,400.64,321.64,391.89Zm-83.92,64.69c.17-.19.32-.39.48-.58-.14.24-.29.47-.44.71C237.75,456.67,237.73,456.63,237.72,456.58Z"/><path class="cls-9" d="M238,456.31l-.48.59a.65.65,0,0,0,0,.13C237.74,456.79,237.89,456.56,238,456.31Z"/><path class="cls-10" d="M18.33,387.59a26.2,26.2,0,0,0-4.42,25.08c5.31,15,17.76,21,31.08,20.92A142.9,142.9,0,0,0,129,506c32,10.39,74.74,9.5,105.43-8.1a48.85,48.85,0,0,0,10.16,4.6c13.22,4.24,28.74,1.69,37-10.3a29,29,0,0,0,5-18.43,61.93,61.93,0,0,0,21.91-3.55c15.55-5.7,28.34-18.94,32.16-35.24a37.17,37.17,0,0,0,.37-15.3c-31,22.36-93.45,52.53-161.44,42.82C22.37,440.06,10.28,324.85,10.28,324.85l-.35-.05C-7.31,345.64,0,372.79,18.33,387.59ZM238,456.31c-.15.25-.3.48-.44.72a.65.65,0,0,1,0-.13Z"/><path class="cls-11" d="M177.55,416.35c-1.38,6.59-7.41,11.68-14.43,9.95s-10.42-8.4-8.8-15.16c.55-2.28-3-3.07-3.55-.79-2.06,8.62,2.63,17.5,11.56,19.5s16.95-4,18.77-12.71c.47-2.29-3.07-3.09-3.55-.79Z"/><path class="cls-12" d="M229.11,419a11.31,11.31,0,1,1,8.57,13.5A11.32,11.32,0,0,1,229.11,419Z"/><path class="cls-12" d="M91,384.44a11.31,11.31,0,1,1,8.56,13.5A11.31,11.31,0,0,1,91,384.44Z"/><path class="cls-13" d="M232.68,277.4c-21-9.68-45.56-3.59-48.73,10.6s60,35,66.37,21.49S246.21,283.62,232.68,277.4Z"/><path class="cls-13" d="M272.53,336c5.63-10.33,26.47-7.32,35.56,11.27s2,30.25-9.51,27.68C287.54,372.46,264.81,350.18,272.53,336Z"/><path class="cls-11" d="M196.39,374.09c2-8.19,10.86-14.1,19.18-11.18,8,2.82,11.25,13.13,7.76,20.43-1.1,2.3,2.34,4.33,3.45,2,4.43-9.26.88-21.33-8.78-25.71-10.52-4.78-22.88,2.66-25.45,13.39-.6,2.49,3.25,3.55,3.84,1.06Z"/><path class="cls-11" d="M206.5,349.91v10.63c0,2.56,4,2.57,4,0V349.91c0-2.57-4-2.57-4,0Z"/><path class="cls-11" d="M225,352.2q-3.56,4.41-7.13,8.81c-1.6,2,1.2,4.82,2.82,2.82l7.13-8.81c1.6-2-1.2-4.82-2.82-2.82Z"/><path class="cls-11" d="M228.35,372.61l9-3.13c2.4-.84,1.37-4.69-1.06-3.84l-9,3.13c-2.41.83-1.38,4.69,1.06,3.84Z"/><path class="cls-11" d="M125.54,361.66c-1-8.36,5.35-17,14.17-17.08,8.51-.1,15.08,8.47,14.31,16.52-.25,2.54,3.67,3.27,3.92.71,1-10.22-6.5-20.34-17.07-21.14C129.35,339.8,120.29,351,121.56,362c.3,2.54,4.27,2.22,4-.33Z"/><path class="cls-11" d="M126.73,335.48q1.83,5,3.65,10c.88,2.41,4.63,1.05,3.74-1.36l-3.64-10c-.88-2.41-4.63-1-3.75,1.37Z"/><path class="cls-11" d="M144.88,331.28,141.21,342c-.82,2.4,2.78,4.1,3.61,1.67q1.85-5.35,3.68-10.73c.82-2.4-2.78-4.1-3.62-1.68Z"/><path class="cls-11" d="M155,349.31l7.38-6c2-1.61-.32-4.87-2.32-3.24l-7.38,6c-2,1.61.33,4.87,2.32,3.25Z"/><path class="cls-8" d="M903.62,309.56a51,51,0,0,0-12.93.76c3.64-18,.57-36.11-18.39-45.76-12.94-6.59-28.26-5.24-41,1a52.94,52.94,0,0,0-11.35,7.65A57.34,57.34,0,0,0,810,254.55c-11.51-14.21-30.66-19.13-48-14.55-25.84,6.8-39.18,26.85-44.9,50a55.9,55.9,0,0,0-9.25-6.71C692,274.21,671.74,273.06,657,284.8c-12.1,9.61-17.3,25.91-16.65,41,.4,9.43,2.92,18.28,5.86,27a39.92,39.92,0,0,0-19.1,1.09c-15.65,4.92-28.58,18.17-32.43,34.24-6.36,26.52,12.4,47.71,35.53,52.76a26.19,26.19,0,0,0,7.26,24.41c11.46,11,25.26,10.8,37.16,4.8a142.84,142.84,0,0,0,107.53,27.21c33.31-5.05,71.1-24.94,90.66-54.41a49.15,49.15,0,0,0,11.15-.43c13.72-2.13,26.46-11.35,28.51-25.78A29,29,0,0,0,908.67,398a62.17,62.17,0,0,0,18-13c11.35-12.06,16.87-29.62,13-45.91C935.63,322.11,920.69,310.85,903.62,309.56Zm-46.39,95.26c.06-.25.1-.49.16-.74,0,.28,0,.56-.07.84Z"/><path class="cls-9" d="M857.39,404.44c-.06.25-.11.49-.17.74l.09.1C857.34,405,857.36,404.72,857.39,404.44Z"/><path class="cls-10" d="M630,440.59A26.19,26.19,0,0,0,637.23,465c11.43,11.08,25.22,10.88,37.15,4.92a142.84,142.84,0,0,0,107.44,27.53c33.33-4.94,71.18-24.72,90.83-54.14a49.7,49.7,0,0,0,11.15-.39c13.73-2.09,26.5-11.27,28.59-25.69a29,29,0,0,0-3.71-18.74,62.29,62.29,0,0,0,18-12.92c11.39-12,17-29.57,13.14-45.87a37.28,37.28,0,0,0-6.47-13.87C915.53,359.67,873,414.45,807.83,436c-150.84,49.81-212.9-48-212.9-48l-.34.11C588.42,414.41,607,435.49,630,440.59Zm227.35-36.15c0,.28,0,.56-.08.84l-.09-.1C857.28,404.93,857.33,404.69,857.39,404.44Z"/><path class="cls-11" d="M785.43,395.54c1.7,6.52-1.44,13.76-8.49,15.33s-13.07-2.89-14.62-9.66c-.53-2.28-4.06-1.42-3.53.86,2,8.64,10.13,14.51,19,12.33s13.4-11.15,11.16-19.73c-.58-2.26-4.12-1.4-3.53.87Z"/><path class="cls-14" d="M689,409.39a11.31,11.31,0,1,1,13.67,8.29A11.31,11.31,0,0,1,689,409.39Z"/><path class="cls-14" d="M832.79,375a11.31,11.31,0,1,1,13.68,8.29A11.31,11.31,0,0,1,832.79,375Z"/><path class="cls-13" d="M692.53,284.61c-11.32-4.83-43.52,5.68-43.29,40.55S722.25,297.28,692.53,284.61Z"/><path class="cls-13" d="M773,246.57c-23.12.68-42.39,17.05-38.93,31.17s69.34,4.62,69-10.27S787.91,246.13,773,246.57Z"/><path class="cls-13" d="M834.78,281.33c.44-11.76,20.45-18.33,36.85-5.71s15.22,26.21,3.79,29C864.44,307.32,834.17,297.47,834.78,281.33Z"/><path class="cls-13" d="M639.68,360.78c-11-4-36.89,12.37-28.72,25.34S657.39,367.19,639.68,360.78Z"/><path class="cls-11" d="M712.27,366.11c-2.76-7.49.59-16.71,8.41-19.56,8.87-3.22,17.88,3.89,19.18,12.62.38,2.53,4.22,1.46,3.84-1.06-1.6-10.71-12.89-18.91-23.6-15.61-10.12,3.1-15.22,15-11.67,24.67.88,2.38,4.74,1.35,3.84-1.06Z"/><path class="cls-11" d="M783.49,349.16c-1.72-7.59,2.89-16.27,10.75-18.12,9.06-2.14,17.31,6,17.52,14.71.06,2.56,4,2.57,4,0-.27-10.72-9.81-20.41-20.93-18.86-10.91,1.52-17.5,13.06-15.18,23.33.57,2.5,4.41,1.44,3.85-1.06Z"/><path class="cls-11" d="M699,351.11l9.37,7.31c2,1.56,4.84-1.24,2.82-2.82l-9.37-7.31c-2-1.56-4.84,1.24-2.82,2.82Z"/><path class="cls-11" d="M710.55,338.92l3.94,7.93c1.14,2.3,4.58.28,3.44-2L714,336.91c-1.14-2.3-4.58-.28-3.44,2Z"/><path class="cls-11" d="M727.79,332.68c-.54,2.9-1.07,5.81-1.61,8.71-.46,2.51,3.38,3.58,3.84,1.06.54-2.9,1.08-5.81,1.61-8.71.47-2.51-3.37-3.58-3.84-1.06Z"/><path class="cls-11" d="M781.89,323.28q2.37,4.75,4.73,9.52c1.14,2.29,4.57.28,3.44-2l-4.73-9.51c-1.14-2.3-4.58-.29-3.44,2Z"/><path class="cls-11" d="M799.37,317.09q-1.23,5.54-2.47,11.07c-.56,2.5,3.29,3.57,3.84,1.06q1.25-5.54,2.47-11.07c.56-2.5-3.28-3.56-3.84-1.06Z"/><path class="cls-11" d="M811.56,333.7l6.67-6.81c1.8-1.83-1-4.65-2.82-2.81l-6.66,6.8c-1.8,1.84,1,4.66,2.81,2.82Z"/></g></g></svg>