<svg xmlns="http://www.w3.org/2000/svg" viewBox="0 0 138.13 138.14"><defs><style>.cls-1{fill:#b5d6e7;}</style></defs><g id="Layer_2" data-name="Layer 2"><g id="Слой_2" data-name="Слой 2"><path class="cls-1" d="M132.47,69.24l4.35-4.35a1.51,1.51,0,1,0-2.24-2l-5.19,5.44h-1.52l2.94-3.19a1.69,1.69,0,0,0,0-2.36,1.54,1.54,0,0,0-2.22.17l-5.19,5.38h-9.3l7.54-7.79a1.69,1.69,0,0,0,0-2.35,1.53,1.53,0,0,0-2.22-.08l-8.13,8c-.92-9.54-5.09-17.78-11.4-24.78h12.33a1.5,1.5,0,1,0,0-3h-9.66l6.57-7h6.84c.89,0,1.56-.09,1.56-1s-.67-1-1.56-1h-3.66l1.07-2h6.84a1.5,1.5,0,1,0,0-3h-6.11V18.2a1.5,1.5,0,1,0-3,0v7.34l-1,1.08V22.45c0-.89-1.1-1.56-2-1.56s-2,.67-2,1.56v7.34l-6,6.57V25.7a1.5,1.5,0,1,0-3,0v13a41.06,41.06,0,0,0-26-9.75v-.78l9.05-9.08a1.49,1.49,0,0,0,.44-1.2,1.6,1.6,0,0,0-.48-1,1.68,1.68,0,0,0-1-.48,1.44,1.44,0,0,0-1.18.46l-6.8,6.84V14.4l4.81-4.83a1.54,1.54,0,0,0,.44-1.21,1.69,1.69,0,0,0-1.51-1.5,1.46,1.46,0,0,0-1.18.46L71.07,9.91V8.39l4.81-4.83a1.53,1.53,0,0,0,.44-1.21,1.64,1.64,0,0,0-.49-1,1.63,1.63,0,0,0-1-.48,1.56,1.56,0,0,0-1.21.46L69.24,5.67,64.89,1.31A1.5,1.5,0,0,0,63.4.9a1.68,1.68,0,0,0-1.17,1.17,1.59,1.59,0,0,0,.53,1.49l5.31,5.19v1.52L65,7.32a1.58,1.58,0,0,0-1.54-.41,1.72,1.72,0,0,0-1.2,1.17,1.57,1.57,0,0,0,.51,1.49l5.3,5.19v9.29l-7.66-7.54a1.61,1.61,0,0,0-1.54-.41,1.72,1.72,0,0,0-1.21,1.17,1.51,1.51,0,0,0,.4,1.49l9.65,9.54c.08.08.36.14.36.2V29a41.31,41.31,0,0,0-26,11.2l-.9-.72c0-.1-.13-.21-.13-.31V25.7a1.5,1.5,0,1,0-3,0V36.36l-7-6.57V22.45c0-.89-.1-1.56-1-1.56s-1,.67-1,1.56v4.16l-2-1.07V18.2a1.5,1.5,0,1,0-3,0v6.13H18a1.5,1.5,0,1,0,0,3h6.84l1.08,2H22.2c-.89,0-1.56.1-1.56,1s.67,1,1.56,1H29l6.58,7H26a1.5,1.5,0,1,0,0,3H38.79l1,1.32A39,39,0,0,0,29.14,68.33H28.5c-.06-1-.12-.41-.2-.49l-9.54-9.67a1.54,1.54,0,0,0-2.23,0,1.8,1.8,0,0,0,0,2.44l7.54,7.76H14.76L9.57,62.89a1.56,1.56,0,0,0-2.23-.11,1.78,1.78,0,0,0,0,2.42l2.95,3.13H8.75L3.56,62.89a1.56,1.56,0,0,0-2.23-.11,1.47,1.47,0,0,0,0,2.17l4.36,4.32L1.31,73.61a1.53,1.53,0,0,0,0,2.22,1.57,1.57,0,0,0,1.13.49A1.43,1.43,0,0,0,3.56,76l4.83-4.68H9.91L7.32,73.76a1.45,1.45,0,0,0,0,2.15,1.56,1.56,0,0,0,1.13.44A1.44,1.44,0,0,0,9.57,76l4.83-4.7h9.3L16.87,78a1.36,1.36,0,0,0-.47,1.13,1.55,1.55,0,0,0,.48,1,1.65,1.65,0,0,0,1,.46H18a1.38,1.38,0,0,0,1.09-.31l9.08-8.92h.9a43.37,43.37,0,0,0,9.86,26H25.7c-.89,0-1.56.1-1.56,1s.67,1,1.56,1H36.36l-6.57,7H22.45a1.5,1.5,0,1,0,0,3h4.17l-1.08,2H18.2a1.5,1.5,0,1,0,0,3h5.87v5.85a1.67,1.67,0,0,0,.67,1.18,1.22,1.22,0,0,0,.9.38,1.41,1.41,0,0,0,1.43-1.56v-6.84l2-1.07v3.66c0,.47,0,.89.29,1.18a1.7,1.7,0,0,0,1.09.38,1.56,1.56,0,0,0,1.62-1.56v-6.84l6-6.57v9.66c0,.89,1.09,1.56,2,1.56s2-.67,2-1.56V99.61a39,39,0,0,0,24.49,11.52l-8.38,8.25a1.53,1.53,0,0,0-.48,1.48A1.64,1.64,0,0,0,58.84,122a1.26,1.26,0,0,0,.38.06,1.78,1.78,0,0,0,1.2-.47l7.65-7.54v9.29l-5.31,5.2a1.51,1.51,0,0,0-.47,1.48,1.67,1.67,0,0,0,1.14,1.18,1.65,1.65,0,0,0,.38.05,1.76,1.76,0,0,0,1.2-.47l3.06-2.94v1.51l-5.31,5.2a1.53,1.53,0,0,0,0,2.22,1.48,1.48,0,0,0,2.18,0l4.35-4.35,4.35,4.35a1.55,1.55,0,0,0,1.1.47,1.59,1.59,0,0,0,1.13-.49,1.55,1.55,0,0,0,0-2.23l-4.81-4.83v-1.52l2.56,2.59a1.52,1.52,0,0,0,1.08.47,1.55,1.55,0,0,0,1.12-.49,1.63,1.63,0,0,0,.48-1,1.51,1.51,0,0,0-.43-1.2l-4.81-4.84v-9.3l6.8,6.84a1.51,1.51,0,0,0,1.08.46,1.62,1.62,0,0,0,1.13-.48,1.55,1.55,0,0,0,0-2.23l-7.52-7.75a42.64,42.64,0,0,0,24.5-9.5v10.41a1.5,1.5,0,1,0,3,0v-9.66l6,6.57v6.84a1.66,1.66,0,0,0,.66,1.18,1.24,1.24,0,0,0,.91.38,1.42,1.42,0,0,0,1.43-1.56v-3.66l2,1.07v6.84c0,.47,0,.89.29,1.18a1.66,1.66,0,0,0,1.09.38,1.57,1.57,0,0,0,1.62-1.56v-5.85h5.86a1.5,1.5,0,1,0,0-3h-7.34l-1.07-2h4.16c.89,0,1.56-.46,1.56-1.36a1.68,1.68,0,0,0-.38-1.09,1.54,1.54,0,0,0-1.18-.55h-7.34l-6.57-7h10.66c.89,0,1.56-.09,1.56-1s-.67-1-1.56-1H101.57a42.57,42.57,0,0,0,9.8-24.65L119,80.21a1.5,1.5,0,0,0,1.09.4s.08,0,.12,0a1.71,1.71,0,0,0,1.5-1.53,1.22,1.22,0,0,0-.46-1l-6.84-6.68h9.3L128.57,76a1.45,1.45,0,0,0,1.09.38,1.67,1.67,0,0,0,1.14-.52,1.38,1.38,0,0,0,0-2.09l-2.59-2.45h1.52L134.58,76a1.45,1.45,0,0,0,1.09.38s.07,0,.11,0a1.65,1.65,0,0,0,1-.5,1.56,1.56,0,0,0,0-2.24Zm-59.42-.91,2-2.11v-.08L79,62.28a9.78,9.78,0,0,1,2.9,6Zm-5,4.72v8.72a12.83,12.83,0,0,1-5.72-3Zm3,.7,6.08,6.09A12.63,12.63,0,0,1,71.07,82Zm1.68-2.42h9.34A13.57,13.57,0,0,1,79.43,78Zm10.76-3A13,13,0,0,0,80,61.12l9.34-9.21a25.31,25.31,0,0,1,7.48,16.42Zm-12.44-3V58.29A11.69,11.69,0,0,1,76.46,60Zm-3,.71-2.39-2.27h-.06L62.86,61a11.56,11.56,0,0,1,5.21-2.46Zm-4.75.22,1.77,2H58.6a10.42,10.42,0,0,1,2-4.66Zm2.06,5-5.27,5.28a11.52,11.52,0,0,1-1.69-5.28Zm-4.27,8.55a12.43,12.43,0,0,0,7,3.49V96.69a27.42,27.42,0,0,1-16.23-7.47Zm10,3.68A15.66,15.66,0,0,0,78.25,81l9.4,9.39a25,25,0,0,1-16.58,6.42ZM80.55,79a15.94,15.94,0,0,0,3.13-7.63H96.9a27.66,27.66,0,0,1-7,17.06ZM98.4,68.33a28.15,28.15,0,0,0-7.94-17.66l7.65-7.53a36.6,36.6,0,0,1,11.15,25.19ZM77.58,58.84a14.59,14.59,0,0,0-6.51-2.13V43.49A26.58,26.58,0,0,1,87,49.4ZM68.07,56.9a11.24,11.24,0,0,0-6.36,3L52.42,50.5a26.65,26.65,0,0,1,15.65-6.91Zm-8.64,5.52A14.92,14.92,0,0,0,57,68.33H43.7A26,26,0,0,1,50,53.16Zm-2.59,8.91A14,14,0,0,0,59,77.59l-9.44,9.52a26.31,26.31,0,0,1-5.91-15.78Zm-6.18,19a27.72,27.72,0,0,0,17.41,7.93v10.86A38.46,38.46,0,0,1,43.06,98Zm20.41,8a27.55,27.55,0,0,0,17.69-6.89l7.68,7.67a38.37,38.37,0,0,1-25.37,10Zm27.55-1.49L91,89.43a30,30,0,0,0,7.46-18.1h10.83A38.53,38.53,0,0,1,98.72,97S98.65,96.87,98.62,96.88ZM95.82,40.6l-7.66,7.67A26.94,26.94,0,0,0,71.07,41.9V31.08A39.82,39.82,0,0,1,95.82,40.6ZM68.07,31.15V42a29.67,29.67,0,0,0-16.83,7.38l-7.59-7.65A37.64,37.64,0,0,1,68.07,31.15ZM41.25,44.24,48.91,52a29,29,0,0,0-6.8,16.3H31.26A37.57,37.57,0,0,1,41.25,44.24ZM42,71.33a28.74,28.74,0,0,0,6.36,16.83l-7.67,7.75a39.48,39.48,0,0,1-9.51-24.58Z"/><path class="cls-1" d="M67.85,1.29a3.27,3.27,0,0,0-.67,4.45,2.9,2.9,0,0,0,4.59.19,3,3,0,0,0-.48-4.67,3.4,3.4,0,0,0-4.53,1c-.56.87.82,1.66,1.37.8C69.2,1.4,72.24,3,70.64,4.81s-3.45-1-2-2.14c.81-.61,0-2-.8-1.38Z"/><path class="cls-1" d="M69.46,7.76h-.28a3.48,3.48,0,0,1-2.65-1.56,4.11,4.11,0,0,1-.65-3.14,1.51,1.51,0,0,1,.21-1.21A4.19,4.19,0,0,1,71.7.58a3.56,3.56,0,0,1,1.73,2.57,4.14,4.14,0,0,1-1.08,3.33A4,4,0,0,1,69.46,7.76ZM67.51,4.63a2.32,2.32,0,0,0,.33.67,1.88,1.88,0,0,0,1.46.87h.32a2.68,2.68,0,0,1-.56-.07A2.41,2.41,0,0,1,67.51,4.63Zm4,.36a2.78,2.78,0,0,1-.26.34,3,3,0,0,1-.31.31,3.07,3.07,0,0,0,.26-.25A2.38,2.38,0,0,0,71.5,5ZM69.28,3.17l-.15.13a.51.51,0,0,0-.19.58.88.88,0,0,0,.54.69c.16,0,.36-.05.57-.29s.3-.47.23-.65a1,1,0,0,0-.75-.47Zm.45-1.58a2.45,2.45,0,0,1,2,1.46,2,2,0,0,1,.12.48s0-.11,0-.16a1.93,1.93,0,0,0-1-1.42,2.58,2.58,0,0,0-1.16-.36Z"/><path class="cls-1" d="M68.65,135.47c-1.45-1.11.43-3.92,2-2.15s-1.43,3.42-2.51,1.74c-.55-.86-1.93-.06-1.37.8a3.4,3.4,0,0,0,4.53,1,3,3,0,0,0,.48-4.67,2.9,2.9,0,0,0-4.59.19,3.26,3.26,0,0,0,.67,4.45c.82.62,1.61-.76.8-1.37Z"/><path class="cls-1" d="M69.55,138.14a4.1,4.1,0,0,1-3.46-1.85,1.53,1.53,0,0,1-.21-1.2,4.14,4.14,0,0,1,.64-3.14,3.49,3.49,0,0,1,2.65-1.56,3.91,3.91,0,0,1,3.18,1.27A4.09,4.09,0,0,1,73.43,135a3.52,3.52,0,0,1-1.73,2.57A4.3,4.3,0,0,1,69.55,138.14Zm.18-1.6h0a2.7,2.7,0,0,0,1.16-.35,2,2,0,0,0,1-1.43c0-.07,0-.14,0-.21a2,2,0,0,1-.13.53A2.49,2.49,0,0,1,69.73,136.54ZM69.28,135a1.07,1.07,0,0,0,.25,0,1,1,0,0,0,.75-.47c.07-.18,0-.4-.23-.65s-.41-.35-.57-.29a.88.88,0,0,0-.54.69.53.53,0,0,0,.19.58h0Zm.18-3H69.3a1.91,1.91,0,0,0-1.46.87,2.51,2.51,0,0,0-.33.68A2.4,2.4,0,0,1,69.06,132a1.66,1.66,0,0,1,.49-.07Zm1.51.57a3.44,3.44,0,0,1,.27.27,3.92,3.92,0,0,1,.25.32,3.57,3.57,0,0,0-.3-.38A2.13,2.13,0,0,0,71,132.53Z"/><path class="cls-1" d="M136.84,67.85a3.26,3.26,0,0,0-4.45-.67,2.9,2.9,0,0,0-.19,4.59,3,3,0,0,0,4.67-.48,3.41,3.41,0,0,0-1-4.54c-.86-.55-1.66.83-.8,1.38,1.67,1.07.07,4.1-1.74,2.51s1-3.45,2.15-2c.61.81,2,0,1.37-.8Z"/><path class="cls-1" d="M134.45,73.46a4.16,4.16,0,0,1-2.79-1.11,4,4,0,0,1-1.27-3.17A3.46,3.46,0,0,1,132,66.52a4.14,4.14,0,0,1,3.14-.64,1.53,1.53,0,0,1,1.2.21,4.18,4.18,0,0,1,1.26,5.61A3.5,3.5,0,0,1,135,73.42,3.08,3.08,0,0,1,134.45,73.46Zm2.09-3.73a2.47,2.47,0,0,1-1.46,2,1.91,1.91,0,0,1-.47.12h.15a1.93,1.93,0,0,0,1.43-1,2.7,2.7,0,0,0,.35-1.16Zm-4,1.22.22.24a2.88,2.88,0,0,0,.39.3l-.33-.25A2.54,2.54,0,0,1,132.52,71Zm1.89-2h-.16a.93.93,0,0,0-.69.55c-.05.17.05.36.29.57s.47.3.65.23a1,1,0,0,0,.47-.75.7.7,0,0,0,0-.25,1.58,1.58,0,0,1-.12-.15A.5.5,0,0,0,134.41,68.92Zm-.91-1.41a2.27,2.27,0,0,0-.66.33A1.92,1.92,0,0,0,132,69.3v.32a2.15,2.15,0,0,1,.07-.56A2.41,2.41,0,0,1,133.5,67.51Z"/><path class="cls-1" d="M2.67,68.65c1.1-1.45,3.91.43,2.14,2s-3.42-1.43-1.74-2.51c.86-.55.07-1.93-.8-1.38a3.41,3.41,0,0,0-1,4.54,3,3,0,0,0,4.67.48,2.9,2.9,0,0,0-.19-4.59,3.26,3.26,0,0,0-4.45.67c-.61.81.77,1.61,1.38.8Z"/><path class="cls-1" d="M3.69,73.46a3.27,3.27,0,0,1-.54,0A3.52,3.52,0,0,1,.58,71.7a4.19,4.19,0,0,1,1.26-5.61A1.53,1.53,0,0,1,3,65.88a4.17,4.17,0,0,1,3.15.64,3.52,3.52,0,0,1,1.56,2.65,4,4,0,0,1-1.27,3.18A4.16,4.16,0,0,1,3.69,73.46Zm-2.1-3.73A2.58,2.58,0,0,0,2,70.89a1.92,1.92,0,0,0,1.42,1l.21,0a1.89,1.89,0,0,1-.52-.13,2.49,2.49,0,0,1-1.47-2Zm4,1.21q-.13.15-.3.3A3.85,3.85,0,0,1,5,71.5a2.38,2.38,0,0,0,.4-.31A1.88,1.88,0,0,0,5.63,70.94ZM3.17,69.28a2,2,0,0,0,0,.24,1,1,0,0,0,.48.76c.18.07.4,0,.64-.23s.34-.4.3-.57a.92.92,0,0,0-.69-.54.55.55,0,0,0-.59.19Zm1.45-1.77a2.41,2.41,0,0,1,1.49,1.55,2.2,2.2,0,0,1,.06.5,1.13,1.13,0,0,0,0-.26,1.88,1.88,0,0,0-.87-1.46A2.51,2.51,0,0,0,4.62,67.51Z"/><path class="cls-1" d="M116.13,20.28A3.27,3.27,0,0,0,112.51,23a2.89,2.89,0,0,0,3.11,3.37,3,3,0,0,0,3-3.63,3.41,3.41,0,0,0-3.93-2.5c-1,.22-.59,1.76.41,1.54,1.94-.42,3,2.85.55,3s-1.71-3.17.11-2.92c1,.14,1.41-1.4.4-1.54Z"/><path class="cls-1" d="M115.51,27.13a4,4,0,0,1-3-1.34,3.51,3.51,0,0,1-.77-3,4.15,4.15,0,0,1,1.77-2.68,1.45,1.45,0,0,1,1-.7,4.16,4.16,0,0,1,4.85,3.07,3.52,3.52,0,0,1-.59,3,4.13,4.13,0,0,1-3.12,1.59Zm-.24-1.6a1.74,1.74,0,0,0,.32,0,1.84,1.84,0,0,0,.47-.06,1.6,1.6,0,0,1-.39.05Zm-1.74-3.13a2.76,2.76,0,0,0-.24.7,1.91,1.91,0,0,0,.42,1.66,2.28,2.28,0,0,0,.22.22,1.85,1.85,0,0,1-.34-.44A2.4,2.4,0,0,1,113.53,22.4Zm3.72-.57a2.45,2.45,0,0,1,.39,2.46,1.69,1.69,0,0,1-.24.41l.09-.11a1.93,1.93,0,0,0,.33-1.69,2.69,2.69,0,0,0-.57-1.07Zm-1.72.77a.54.54,0,0,0-.46.28.91.91,0,0,0-.11.87c.09.15.29.22.61.2s.54-.12.62-.29a.92.92,0,0,0-.2-.87,1,1,0,0,0-.18-.17h-.28Z"/><path class="cls-1" d="M21.82,115.73c-.25-1.81,3.07-2.47,2.92-.11s-3.43,1.4-3-.55c.22-1-1.32-1.41-1.54-.41a3.39,3.39,0,0,0,2.5,3.92,3,3,0,0,0,3.64-3A2.9,2.9,0,0,0,23,112.51a3.28,3.28,0,0,0-2.68,3.62c.14,1,1.68.6,1.54-.4Z"/><path class="cls-1" d="M23.43,119.47a3.71,3.71,0,0,1-.93-.12,4.17,4.17,0,0,1-3.07-4.86,1.46,1.46,0,0,1,.7-1,4.15,4.15,0,0,1,2.68-1.77,3.51,3.51,0,0,1,3,.77,4,4,0,0,1,1.34,3.14,4.08,4.08,0,0,1-1.59,3.12A3.51,3.51,0,0,1,23.43,119.47Zm-1.6-2.22a2.69,2.69,0,0,0,1.07.57,1.93,1.93,0,0,0,1.69-.33l.16-.13a2.18,2.18,0,0,1-.46.28,2.49,2.49,0,0,1-2.46-.39Zm.79-1.44a1,1,0,0,0,.17.18.92.92,0,0,0,.87.2c.17-.08.27-.29.3-.62s-.05-.53-.2-.61a.9.9,0,0,0-.87.11.54.54,0,0,0-.28.55C22.61,115.68,22.62,115.75,22.62,115.81Zm2.91-.58a3.23,3.23,0,0,1,0,.44,3,3,0,0,1-.05.43,3,3,0,0,0,.05-.87Zm-2.08-1.92a2.23,2.23,0,0,1,1.09.27,1.88,1.88,0,0,1,.41.32,1.7,1.7,0,0,0-.19-.19,1.86,1.86,0,0,0-1.65-.42,2.77,2.77,0,0,0-.72.24A2.65,2.65,0,0,1,23.45,113.31Z"/><path class="cls-1" d="M117.85,116.13a3.27,3.27,0,0,0-2.67-3.62,2.89,2.89,0,0,0-3.38,3.11,3,3,0,0,0,3.64,3,3.39,3.39,0,0,0,2.49-3.92c-.22-1-1.75-.59-1.54.41.43,1.94-2.85,3-3,.55s3.17-1.71,2.92.11c-.14,1,1.4,1.41,1.54.4Z"/><path class="cls-1" d="M114.71,119.47a3.48,3.48,0,0,1-2.11-.71,4.05,4.05,0,0,1-1.59-3.12,4,4,0,0,1,1.34-3.14,3.5,3.5,0,0,1,3-.77A4.13,4.13,0,0,1,118,113.5a1.53,1.53,0,0,1,.71,1,4.19,4.19,0,0,1-3.08,4.86A3.69,3.69,0,0,1,114.71,119.47Zm-1.27-2.07.11.09a1.92,1.92,0,0,0,1.69.33,2.84,2.84,0,0,0,1.07-.57h0a2.5,2.5,0,0,1-2.46.39A1.52,1.52,0,0,1,113.44,117.4Zm1.24-2.51a.58.58,0,0,0-.3.07c-.15.09-.22.29-.2.61s.12.54.3.62a.9.9,0,0,0,.86-.2,1,1,0,0,0,.17-.18,1.23,1.23,0,0,1,0-.19.53.53,0,0,0-.28-.55A1,1,0,0,0,114.68,114.89Zm-2.08.34c0,.12,0,.24,0,.36a2.74,2.74,0,0,0,.07.5,3,3,0,0,1-.06-.42A3.23,3.23,0,0,1,112.6,115.23Zm2-2a1.83,1.83,0,0,0-1.23.46,2.61,2.61,0,0,0-.24.23,2,2,0,0,1,.45-.36,2.44,2.44,0,0,1,2.13-.06,2.44,2.44,0,0,0-.69-.23A2.12,2.12,0,0,0,114.61,113.25Z"/><path class="cls-1" d="M22.41,21.82c1.81-.25,2.46,3.07.1,2.92s-1.4-3.43.56-3c1,.22,1.4-1.32.4-1.54a3.39,3.39,0,0,0-3.92,2.5,3,3,0,0,0,3,3.63A2.89,2.89,0,0,0,25.62,23,3.25,3.25,0,0,0,22,20.28c-1,.14-.59,1.68.41,1.54Z"/><path class="cls-1" d="M22.63,27.13h-.14a4.13,4.13,0,0,1-3.12-1.59,3.51,3.51,0,0,1-.59-3,4.18,4.18,0,0,1,4.86-3.07,1.47,1.47,0,0,1,1,.7,4.17,4.17,0,0,1,1.76,2.68,3.48,3.48,0,0,1-.77,3A4,4,0,0,1,22.63,27.13Zm-.57-1.65a2,2,0,0,0,.48.06h-.08A1.83,1.83,0,0,1,22.06,25.48Zm2.53-3.1a2.38,2.38,0,0,1,0,2.16,2,2,0,0,1-.3.4l.18-.19a1.91,1.91,0,0,0,.42-1.65A2.58,2.58,0,0,0,24.59,22.38Zm-3.71-.55a2.69,2.69,0,0,0-.57,1.07,2,2,0,0,0,.33,1.69l.13.15a1.89,1.89,0,0,1-.28-.45,2.5,2.5,0,0,1,.39-2.46Zm1.44.79a1,1,0,0,0-.18.17.9.9,0,0,0-.19.86c.07.18.28.28.62.3s.52,0,.61-.2a.91.91,0,0,0-.11-.86.53.53,0,0,0-.55-.28h-.2Z"/></g></g></svg>