<svg xmlns="http://www.w3.org/2000/svg" viewBox="0 0 126.32 126.32"><defs><style>.cls-1{fill:#b5d6e7;}</style></defs><g id="Layer_2" data-name="Layer 2"><g id="Слой_2" data-name="Слой 2"><path class="cls-1" d="M61.39,8V119.59c0,2.57,4,2.57,4,0V8c0-2.56-4-2.57-4,0Z"/><path class="cls-1" d="M54.78,17.12,63.2,8.71A1,1,0,0,0,61.79,7.3l-8.42,8.41c-.9.91.51,2.32,1.41,1.41Z"/><path class="cls-1" d="M72.94,15.27q-4.43-4.44-8.86-8.86a1,1,0,0,0-1.4,1.41l8.85,8.86a1,1,0,0,0,1.41-1.41Z"/><path class="cls-1" d="M55.67,25.09,62.76,18a1,1,0,0,0-1.41-1.4l-7.09,7.08a1,1,0,0,0,1.41,1.41Z"/><path class="cls-1" d="M72.05,23.68,65.41,17A1,1,0,0,0,64,18.45l6.65,6.64a1,1,0,0,0,1.4-1.41Z"/><path class="cls-1" d="M65.21.51a4.1,4.1,0,0,0-5.56,1.66,3.6,3.6,0,0,0,2.26,5,3.48,3.48,0,0,0,4.7-2.53,3.93,3.93,0,0,0-3-4.55C62.4-.14,61.86,1.78,63.12,2c2.13.37,2,4-.4,3.33C59.89,4.57,62,1,64.2,2.23a1,1,0,0,0,1-1.72Z"/><path class="cls-1" d="M53.37,110.61,61.79,119a1,1,0,0,0,1.41-1.41l-8.42-8.41c-.9-.91-2.31.5-1.41,1.41Z"/><path class="cls-1" d="M71.53,109.64l-8.85,8.86a1,1,0,0,0,1.4,1.41l8.86-8.86a1,1,0,0,0-1.41-1.41Z"/><path class="cls-1" d="M54.26,102.63q3.54,3.56,7.09,7.09c.9.91,2.31-.5,1.41-1.41l-7.09-7.08a1,1,0,0,0-1.41,1.4Z"/><path class="cls-1" d="M70.65,101.23,64,107.87a1,1,0,0,0,1.41,1.41l6.64-6.65a1,1,0,0,0-1.4-1.4Z"/><path class="cls-1" d="M64.2,124.09c-2.2,1.28-4.31-2.34-1.48-3.1,2.42-.64,2.53,3,.4,3.33-1.26.22-.72,2.14.53,1.92a3.94,3.94,0,0,0,3-4.55,3.46,3.46,0,0,0-4.7-2.53,3.6,3.6,0,0,0-2.26,5,4.1,4.1,0,0,0,5.56,1.66,1,1,0,0,0-1-1.72Z"/><path class="cls-1" d="M118.32,61.39H6.72c-2.56,0-2.57,4,0,4h111.6c2.56,0,2.56-4,0-4Z"/><path class="cls-1" d="M109.2,54.79q4.2,4.2,8.41,8.41A1,1,0,0,0,119,61.79l-8.41-8.41a1,1,0,0,0-1.41,1.41Z"/><path class="cls-1" d="M111.05,72.94l8.86-8.86a1,1,0,0,0-1.41-1.41l-8.86,8.86a1,1,0,0,0,1.41,1.41Z"/><path class="cls-1" d="M101.23,55.67l7.08,7.09a1,1,0,0,0,1.41-1.41l-7.08-7.09a1,1,0,0,0-1.41,1.41Z"/><path class="cls-1" d="M102.64,72.05l6.64-6.64A1,1,0,0,0,107.87,64l-6.64,6.65a1,1,0,0,0,1.41,1.4Z"/><path class="cls-1" d="M125.81,65.21a4.1,4.1,0,0,0-1.66-5.56,3.6,3.6,0,0,0-5,2.26,3.46,3.46,0,0,0,2.53,4.7,3.93,3.93,0,0,0,4.55-3c.22-1.25-1.7-1.79-1.92-.52-.38,2.12-4,2-3.33-.41.76-2.83,4.38-.72,3.1,1.48a1,1,0,0,0,1.72,1Z"/><path class="cls-1" d="M15.71,53.38q-4.21,4.2-8.41,8.41A1,1,0,0,0,8.7,63.2l8.42-8.41a1,1,0,0,0-1.41-1.41Z"/><path class="cls-1" d="M16.68,71.53,7.82,62.67c-.91-.9-2.32.51-1.41,1.41q4.42,4.44,8.86,8.86a1,1,0,0,0,1.41-1.41Z"/><path class="cls-1" d="M23.68,54.26,16.6,61.35A1,1,0,0,0,18,62.76l7.09-7.09a1,1,0,0,0-1.41-1.41Z"/><path class="cls-1" d="M25.09,70.65,18.45,64A1,1,0,0,0,17,65.41l6.64,6.64a1,1,0,0,0,1.41-1.4Z"/><path class="cls-1" d="M2.23,64.2C1,62,4.57,59.89,5.33,62.72c.64,2.42-3,2.53-3.33.41-.22-1.27-2.14-.73-1.92.52a3.92,3.92,0,0,0,4.55,3,3.48,3.48,0,0,0,2.53-4.7,3.6,3.6,0,0,0-5-2.26A4.1,4.1,0,0,0,.51,65.21a1,1,0,0,0,1.72-1Z"/><path class="cls-1" d="M100.91,22.9Q61.46,62.37,22,101.81c-1.82,1.82,1,4.64,2.82,2.82l78.91-78.91c1.81-1.81-1-4.63-2.82-2.82Z"/><path class="cls-1" d="M89.79,24.68h11.9a1,1,0,0,0,0-2H89.79a1,1,0,0,0,0,2Z"/><path class="cls-1" d="M103.94,36.21V23.69a1,1,0,0,0-2,0V36.21a1,1,0,0,0,2,0Z"/><path class="cls-1" d="M84.78,31h10a1,1,0,0,0,0-2h-10a1,1,0,0,0,0,2Z"/><path class="cls-1" d="M97.36,41.54v-9.4a1,1,0,0,0-2,0v9.4a1,1,0,0,0,2,0Z"/><path class="cls-1" d="M108.9,20.3A4.07,4.07,0,0,0,104,17.5a3.55,3.55,0,0,0-2.23,4.95,3.49,3.49,0,0,0,5,1.87,4,4,0,0,0,1.29-5.43c-.73-1-2.46,0-1.72,1,1.36,2-1.8,4.31-2.8,1.75s2.81-3.07,3.39-.83a1,1,0,0,0,1.92-.52Z"/><path class="cls-1" d="M22.69,89.79v11.9a1,1,0,0,0,2,0V89.79a1,1,0,0,0-2,0Z"/><path class="cls-1" d="M36.21,102H23.69a1,1,0,0,0,0,2H36.21a1,1,0,0,0,0-2Z"/><path class="cls-1" d="M29,84.78v10a1,1,0,0,0,2,0v-10a1,1,0,0,0-2,0Z"/><path class="cls-1" d="M41.53,95.37H32.14a1,1,0,0,0,0,2h9.39a1,1,0,0,0,0-2Z"/><path class="cls-1" d="M20.82,107c-2.24-.58-1.67-4.37.83-3.39s.21,4.16-1.75,2.8c-1-.74-2,1-1,1.72a4,4,0,0,0,5.43-1.29,3.49,3.49,0,0,0-1.87-5A3.55,3.55,0,0,0,17.5,104a4.08,4.08,0,0,0,2.79,4.89,1,1,0,0,0,.53-1.92Z"/><path class="cls-1" d="M103.41,100.91Q64,61.44,24.5,22c-1.81-1.82-4.63,1-2.81,2.82l78.9,78.91c1.82,1.81,4.64-1,2.82-2.82Z"/><path class="cls-1" d="M101.63,89.79v11.9a1,1,0,0,0,2,0V89.79a1,1,0,0,0-2,0Z"/><path class="cls-1" d="M90.1,103.94h12.53a1,1,0,0,0,0-2H90.1a1,1,0,0,0,0,2Z"/><path class="cls-1" d="M95.37,84.78v10a1,1,0,0,0,2,0v-10a1,1,0,0,0-2,0Z"/><path class="cls-1" d="M84.78,97.36h9.4a1,1,0,0,0,0-2h-9.4a1,1,0,0,0,0,2Z"/><path class="cls-1" d="M106,108.9a4.07,4.07,0,0,0,2.8-4.89,3.56,3.56,0,0,0-5-2.23,3.5,3.5,0,0,0-1.87,5,4,4,0,0,0,5.43,1.29c1-.73,0-2.46-1-1.72-2,1.36-4.31-1.8-1.75-2.8s3.07,2.81.82,3.39a1,1,0,0,0,.53,1.92Z"/><path class="cls-1" d="M36.52,22.69H24.62a1,1,0,0,0,0,2h11.9a1,1,0,0,0,0-2Z"/><path class="cls-1" d="M24.37,36.21V23.69a1,1,0,0,0-2,0V36.21a1,1,0,0,0,2,0Z"/><path class="cls-1" d="M41.53,29h-10a1,1,0,0,0,0,2h10a1,1,0,0,0,0-2Z"/><path class="cls-1" d="M30.94,41.54v-9.4a1,1,0,0,0-2,0v9.4a1,1,0,0,0,2,0Z"/><path class="cls-1" d="M19.33,20.82c.59-2.24,4.37-1.67,3.39.83s-4.16.21-2.79-1.75c.74-1-1-2-1.72-1a3.94,3.94,0,0,0,1.28,5.43,3.49,3.49,0,0,0,5-1.87A3.54,3.54,0,0,0,22.3,17.5a4.07,4.07,0,0,0-4.89,2.8,1,1,0,0,0,1.92.52Z"/><path class="cls-1" d="M63.38,88.74A26.28,26.28,0,1,1,89.65,62.47,26.3,26.3,0,0,1,63.38,88.74Zm0-50.48A24.21,24.21,0,1,0,87.59,62.47,24.24,24.24,0,0,0,63.38,38.26Z"/><path class="cls-1" d="M63.38,78.12A15.65,15.65,0,1,1,79,62.47,15.67,15.67,0,0,1,63.38,78.12Zm0-29.23A13.58,13.58,0,1,0,77,62.47,13.59,13.59,0,0,0,63.38,48.89Z"/><path class="cls-1" d="M77.71,97.06H49.05L28.79,76.8V48.14L49.05,27.88H77.71L98,48.14V76.8ZM50.19,94.3H76.57L95.21,75.66V49.28L76.57,30.63H50.19L31.54,49.28V75.66Z"/></g></g></svg>