<svg xmlns="http://www.w3.org/2000/svg" viewBox="0 0 293.55 415.27"><defs><style>.cls-1{fill:#95c1eb;}.cls-2{fill:#e0acd6;}.cls-3{fill:#b2d2f9;}</style></defs><g id="Layer_2" data-name="Layer 2"><g id="Слой_2" data-name="Слой 2"><path class="cls-1" d="M239.47,64.24l19.29,6.81c-5.81,2.74-11.55,5.62-17.19,8.77-3.21,1.79-.25,6.67,3,4.88,5.57-3.11,11.25-6,17-8.65a177.68,177.68,0,0,1-7.91,17.22c-1.71,3.26,3.26,6.06,5,2.81a184.88,184.88,0,0,0,8.87-19.6L278,96c1.76,3.23,6.64.27,4.89-3l-9.06-16.64,14,4.94c3.47,1.23,4.87-4.31,1.43-5.52l-15.15-5.35c5.74-2.36,11.53-4.6,17.45-6.58,3.47-1.16,1.89-6.65-1.6-5.48-6.35,2.13-12.57,4.54-18.73,7.1a183.41,183.41,0,0,0,4.77-18.59c.73-3.59-4.79-5-5.52-1.44-1.16,5.75-2.6,11.39-4.28,16.93l-9.92-18.21c-1.75-3.23-6.64-.28-4.88,2.94l10.32,19-20.86-7.36C237.43,57.49,236,63,239.47,64.24Z"/><path class="cls-2" d="M142.72,14.71l13.57,10.05-14.53.46c-3.67.12-3,5.78.69,5.67l20-.64-15.27,17.5c-2.42,2.78,2.05,6.33,4.45,3.57l14.94-17.13c1.5,5.88,3.18,11.71,5.27,17.47,1.25,3.45,6.54,1.32,5.29-2.13-1.47-4.06-2.76-8.14-3.92-12.25l13.27,9.83c2.95,2.19,6.52-2.26,3.57-4.45l-17.2-12.74,23.79-.76c3.67-.11,2.95-5.77-.7-5.66l-20.62.66,10-11.53c2.42-2.77-2-6.32-4.45-3.56L169.67,21.94A180.32,180.32,0,0,1,167,2.42c-.27-3.66-5.94-3-5.66.7a181.91,181.91,0,0,0,2.8,20.38L146.29,10.26C143.34,8.08,139.77,12.53,142.72,14.71Z"/><path class="cls-2" d="M237.14,412.26q-1.59-9.35-3.17-18.69l12.92,7.54c2.72,1.59,5.26-2.58,2.54-4.17L237.2,389.8l16.15-6c2.92-1.08,1.74-5.82-1.21-4.73l-13.36,5,5.64-8.72c1.71-2.65-2.47-5.17-4.17-2.54q-3.88,6-7.76,12-1.28-7.46-2.53-14.9c-.53-3.1-5.25-1.87-4.73,1.21q1.11,6.5,2.2,13l-11.11-6.49c-2.72-1.59-5.25,2.59-2.54,4.17l12.08,7-15.25,5.66c-2.92,1.08-1.74,5.82,1.21,4.73l14.92-5.54-7.89,12.2c-1.71,2.65,2.47,5.18,4.17,2.54L229.78,398q1.32,7.76,2.63,15.51C232.94,416.57,237.66,415.34,237.14,412.26Z"/><path class="cls-1" d="M52.61,137.35l-16.88-7.43c-2.86-1.27-4.4,3.34-1.56,4.59l14,6.16c-5.22,1.48-10.47,2.89-15.77,4.12-3,.7-2.13,5.47.91,4.76,5.9-1.37,11.74-2.94,17.53-4.62-2.85,4.51-5.85,8.93-9.14,13.18-1.92,2.47,2.15,5.13,4,2.67a170.45,170.45,0,0,0,10.06-14.65c2.18,6.28,4.24,12.61,6.12,19,.87,3,5.64,2.08,4.76-.92-1.76-6-3.7-12-5.73-17.91l13.17,5.81c2.87,1.26,4.4-3.35,1.56-4.6l-13.68-6c5.25-1.72,10.48-3.53,15.66-5.51,2.92-1.12.74-5.46-2.15-4.35-4.72,1.8-9.47,3.45-14.25,5,2.46-4.6,4.79-9.28,6.85-14.13,1.22-2.88-3.38-4.41-4.6-1.55-2,4.72-4.29,9.28-6.71,13.76-2-5.41-4.13-10.79-6.39-16.13-1.22-2.88-5.56-.71-4.35,2.15C48.37,126.24,50.53,131.78,52.61,137.35Z"/><path class="cls-1" d="M95,217.82l19.23.58q-6.53,5-13,10.06c-2.44,1.87,0,6,2.49,4.13l11.85-9.13-.3,12.62c-.07,3.12,4.76,3,4.83-.07q.16-7.19.34-14.36c4.18,3.61,8.37,7.21,12.45,11,2.29,2.1,5.66-1.36,3.36-3.47-3.88-3.56-7.87-7-11.85-10.44l15.76.47c3.12.1,3-4.73-.07-4.83L127.85,214l10.38-8c2.43-1.87,0-6-2.5-4.13l-15.11,11.65q.19-8.6.4-17.2c.08-3.11-4.75-3-4.83.07q-.18,7.54-.35,15.07c-4.6-3.81-9.2-7.6-13.93-11.25-2.43-1.89-5.82,1.56-3.37,3.46,4.13,3.19,8.14,6.52,12.16,9.82L95,213C91.85,212.9,91.93,217.73,95,217.82Z"/><path class="cls-3" d="M97.35,44,78.77,40.21q3.57,6.59,7.13,13.16c1.49,2.77-2.76,5.17-4.25,2.41L74.91,43.32l-6.52,16c-1.17,2.88-5.87,1.54-4.68-1.36q2.68-6.6,5.38-13.19L60.2,50.07c-2.7,1.62-5.09-2.64-2.41-4.25l12.26-7.38-14.81-3c-3.08-.62-1.7-5.31,1.36-4.69l12.92,2.62L63.4,22.06c-1.5-2.77,2.75-5.17,4.25-2.41Q71,25.8,74.3,32l6.15-15.06c1.18-2.88,5.88-1.55,4.69,1.36q-3,7.37-6,14.74l12.46-7.5c2.7-1.62,5.09,2.64,2.4,4.25L83.3,36.17l15.41,3.12C101.79,39.92,100.41,44.6,97.35,44Z"/><path class="cls-1" d="M111.38,304.62q-3.45-8.55-6.89-17.11c-1.17-2.9,3.48-4.28,4.64-1.4q2.85,7.08,5.71,14.16c1.65-5.17,3.22-10.37,4.62-15.64.8-3,5.54-1.94,4.73,1.07-1.55,5.86-3.31,11.63-5.18,17.37,4.59-2.71,9.11-5.56,13.47-8.71,2.53-1.84,5.06,2.31,2.54,4.13a167.78,167.78,0,0,1-15,9.58c6.21,2.39,12.46,4.65,18.79,6.73,2.95,1,1.89,5.71-1.07,4.74-6-2-11.86-4.09-17.71-6.31l5.37,13.35c1.17,2.91-3.48,4.29-4.64,1.41l-5.59-13.87c-1.89,5.2-3.86,10.36-6,15.48-1.21,2.88-5.48.56-4.28-2.29,2-4.66,3.76-9.36,5.49-14.08-4.68,2.31-9.44,4.49-14.34,6.39-2.92,1.13-4.31-3.52-1.41-4.65,4.79-1.85,9.42-4,14-6.26-5.34-2.2-10.65-4.47-15.91-6.91-2.84-1.31-.53-5.58,2.29-4.27C100.41,300,105.88,302.37,111.38,304.62Z"/><path class="cls-1" d="M181.38,112.74l-19.22.58,13,10.05c2.44,1.88,0,6-2.49,4.14l-11.84-9.14q.13,6.31.29,12.63c.08,3.11-4.75,3-4.83-.07L156,116.56c-4.19,3.61-8.38,7.22-12.45,11-2.29,2.1-5.66-1.35-3.37-3.46,3.88-3.57,7.88-7,11.86-10.44l-15.77.47c-3.11.09-3-4.74.07-4.83l12.23-.37-10.37-8c-2.44-1.88,0-6,2.49-4.14l15.11,11.66q-.19-8.59-.4-17.2c-.07-3.12,4.76-3,4.83.07q.18,7.53.35,15.07c4.6-3.81,9.21-7.6,13.93-11.26,2.44-1.88,5.83,1.56,3.37,3.47-4.12,3.19-8.13,6.51-12.16,9.82l15.74-.47C184.56,107.82,184.48,112.65,181.38,112.74Z"/><path class="cls-2" d="M24.58,242.24q0,9.62,0,19.23L35,248.76c2-2.37,6,.23,4.05,2.63l-9.51,11.54,12.63.12c3.11,0,2.87,4.85-.23,4.82l-14.37-.13c3.48,4.3,6.94,8.6,10.55,12.8,2,2.35-1.53,5.61-3.57,3.25-3.43-4-6.73-8.09-10-12.18l0,15.77c0,3.11-4.84,2.87-4.83-.23l0-12.24L11.35,285c-2,2.37-6-.23-4.06-2.63l12.14-14.73-17.21-.15c-3.11,0-2.87-4.85.23-4.82l15.07.13c-3.66-4.72-7.3-9.45-10.8-14.28-1.8-2.5,1.75-5.78,3.57-3.26,3.06,4.23,6.25,8.34,9.43,12.47l0-15.74C19.76,238.9,24.59,239.14,24.58,242.24Z"/><path class="cls-3" d="M195.89,273.06l21.71,6.65-18,7.39c-3.36,1.38-1.85,6.89,1.55,5.49l16.34-6.71q-2.14,7.14-4.28,14.28c-1,3.53,4.48,4.94,5.53,1.43l4.86-16.26c3.64,5.42,7.29,10.83,10.76,16.37,2,3.1,6.87.22,4.91-2.9-3.31-5.27-6.78-10.42-10.25-15.58l17.81,5.45c3.52,1.07,4.93-4.45,1.43-5.53l-13.82-4.23L248.77,273c3.36-1.38,1.85-6.88-1.55-5.48l-20.84,8.56,5.82-19.47c1.06-3.52-4.47-4.93-5.52-1.42l-5.1,17c-4.05-5.77-8.12-11.52-12.36-17.16-2.18-2.91-7.12,0-4.91,2.9,3.7,4.91,7.23,9.95,10.78,15l-17.77-5.44C193.8,266.46,192.39,272,195.89,273.06Z"/><path class="cls-1" d="M233,163.64l21.71,6.65-18,7.39c-3.36,1.38-1.85,6.88,1.55,5.49l16.34-6.71q-2.15,7.14-4.28,14.28c-1.05,3.53,4.48,4.94,5.52,1.43q2.45-8.13,4.87-16.26c3.64,5.42,7.29,10.83,10.76,16.36,1.95,3.11,6.87.22,4.91-2.89-3.3-5.27-6.79-10.42-10.25-15.59L284,179.24c3.52,1.08,4.93-4.45,1.43-5.52l-13.82-4.23,14.31-5.88c3.36-1.38,1.85-6.88-1.55-5.49l-20.84,8.56,5.82-19.46c1.05-3.52-4.47-4.93-5.52-1.43l-5.1,17.06c-4.05-5.77-8.12-11.53-12.36-17.16-2.18-2.91-7.12,0-4.91,2.89,3.7,4.92,7.23,10,10.78,15l-17.77-5.44C230.9,157,229.49,162.57,233,163.64Z"/></g></g></svg>