<svg xmlns="http://www.w3.org/2000/svg" viewBox="0 0 109.99 109.84"><defs><style>.cls-1{fill:#b5d6e7;}</style></defs><g id="Layer_2" data-name="Layer 2"><g id="Слой_2" data-name="Слой 2"><path class="cls-1" d="M93.75,91.05l-75-75c-.45,1.08-.9,2.16-1.34,3.24C23.94,18.77,34,20,40.1,17.5,46,15,51.54,7.44,56.25,3.19L53,1.85V107.92a1.91,1.91,0,0,0,3.23,1.34c4.3-4.3,10.33-13.58,15.83-15.82,1.89-.77,15.33.72,20.33.84,2.44.06,2.44-3.72,0-3.78-6.28-.16-16.49-2.58-22.39-.27s-12,12-16.45,16.35l3.24,1.34V1.85A1.92,1.92,0,0,0,53.57.51L45.91,7.42c-1.52,1.38-7.24,6.64-6.64,6.38-5.72,2.42-15.58,1.2-21.86,1.69a1.91,1.91,0,0,0-1.34,3.23l75,75A1.9,1.9,0,0,0,93.75,91.05Z"/><path class="cls-1" d="M18.75,93.73l75-75-3.23-1.34C91,23.92,89.76,34,92.3,40.08c2.46,5.87,10.06,11.44,14.31,16.15L108,53H1.87A1.92,1.92,0,0,0,.53,56.23c4.31,4.3,13.59,10.32,15.83,15.82.77,1.9-.72,15.34-.85,20.34-.06,2.44,3.73,2.44,3.79,0,.16-6.28,2.58-16.49.27-22.4S7.62,58,3.21,53.55c-.44,1.08-.89,2.15-1.34,3.23H108a1.91,1.91,0,0,0,1.34-3.23l-6.91-7.66C101,44.36,95.74,38.65,96,39.25c-2.42-5.72-1.21-15.58-1.69-21.87A1.93,1.93,0,0,0,91.07,16l-75,75A1.9,1.9,0,0,0,18.75,93.73Z"/><path class="cls-1" d="M56.81,107.92V1.85L53.57,3.19c5,4.27,11.2,12.26,17.29,14.77,5.89,2.43,15.22,1,21.55,1.32C92,18.2,91.52,17.12,91.07,16l-75,75a1.91,1.91,0,0,0,1.34,3.23c6.08,0,16.9-2.3,22.38,0,1.89.8,10.33,11.36,13.78,15,1.69,1.77,4.36-.91,2.68-2.68-4.33-4.54-9.82-13.46-15.63-16s-17-.06-23.21-.06l1.34,3.23,75-75a1.91,1.91,0,0,0-1.34-3.23L82.11,15c-2-.1-9.81-.43-9.2-.18C67.15,12.44,61,4.61,56.25.51A1.92,1.92,0,0,0,53,1.85V107.92A1.9,1.9,0,0,0,56.81,107.92Z"/><path class="cls-1" d="M2.08,57.34H108.16c-.45-1.08-.9-2.16-1.34-3.24-4.27,5-12.26,11.2-14.78,17.29-2.43,5.89-1,15.22-1.31,21.56L94,91.61q-37.5-37.5-75-75a1.91,1.91,0,0,0-3.23,1.34c0,6.09,2.3,16.91,0,22.38C14.93,42.21,4.37,50.65.74,54.1c-1.77,1.69.91,4.36,2.68,2.68C8,52.45,16.89,47,19.44,41.16s.07-17,.07-23.22l-3.23,1.34,75,75A1.92,1.92,0,0,0,94.52,93c.17-3.44.35-6.87.52-10.3.11-2.06.44-9.82.19-9.21,2.33-5.76,10.17-11.87,14.27-16.66a1.92,1.92,0,0,0-1.34-3.23H2.08A1.9,1.9,0,0,0,2.08,57.34Z"/><path class="cls-1" d="M55.28,86.17A30.17,30.17,0,1,1,85.45,56,30.19,30.19,0,0,1,55.28,86.17Zm0-58.26A28.1,28.1,0,1,0,83.38,56,28.13,28.13,0,0,0,55.28,27.91Z"/><path class="cls-1" d="M55.08,76A20.58,20.58,0,1,1,75.65,55.45,20.6,20.6,0,0,1,55.08,76Zm0-39.78a19.2,19.2,0,1,0,19.19,19.2A19.22,19.22,0,0,0,55.08,36.25Z"/></g></g></svg>