<svg xmlns="http://www.w3.org/2000/svg" viewBox="0 0 133.03 114.8"><defs><style>.cls-1{fill:#fbbe0d;}.cls-2{fill:#fed24f;}</style></defs><g id="Layer_2" data-name="Layer 2"><g id="Слой_2" data-name="Слой 2"><path class="cls-1" d="M104.16,30.21c-4.3-1.39-8.61-1.21-13-.79-4.06.38-8.62,1.09-12-1.81-6.57-5.71-7-16.48-12-23.45-1.82-2.56-6-3.95-8.41-1.09-4,4.75-5.68,10.13-7.14,16.07-.68,2.77-1.46,6.49-3.21,9.24-7.29,5.37-17.82,5.81-26.65,6.21-3.29.14-6.33,3.33-5.17,6.78,3.14,9.32,11.66,12.37,17.85,19.1,3.39,3.68,2.67,7.41,1.28,11.93-1.75,5.67-3.43,11-1.91,16.93a5.43,5.43,0,0,0,6.59,3.74,44.41,44.41,0,0,0,17-8.88c3.14-2.62,7.31-8.25,12-7.42,4.2.75,7.69,5.89,10.86,8.4,3.83,3,9,5.91,14,4,12.68-4.81-.56-20.81-2-28.41-1.1-5.63,4.29-8.07,8.09-11.05,4.55-3.57,8.11-8.33,7.84-14.36A5.54,5.54,0,0,0,104.16,30.21Z"/><path class="cls-2" d="M35.27,22.79c-4.87-4.19-9.66-8.52-14.74-12.47-.45-.34-.61.62-.32.89C25,15.56,30,19.56,35,23.67c.42.35.62-.61.31-.88Z"/><path class="cls-2" d="M42,19.08C41,13.31,40.1,7.53,38.9,1.8c-.13-.66-.69-.23-.62.29.81,5.81,1.88,11.59,2.89,17.37.16.89,1,.33.86-.38Z"/><path class="cls-2" d="M84,16.24C85.81,10.83,88.45,6,91.14,1,91.37.61,91-.42,90.57.19c-3.41,4.52-5.64,10.05-7.33,15.41-.18.57.48,1.46.76.64Z"/><path class="cls-2" d="M93.65,20.11c3.71-3.41,7.63-6.69,11-10.39.31-.34.11-1.51-.44-1.06-3.91,3.16-7.42,6.9-11.05,10.38-.36.35,0,1.52.44,1.07Z"/><path class="cls-2" d="M64.64,95.34c-2.38,6-4.59,12.32-5.41,18.72-.06.45.53,1.14.71.44,1.65-6.3,3-12.5,5.36-18.61.18-.49-.38-1.25-.66-.55Z"/><path class="cls-2" d="M73.69,97c2.44,5,4.27,10.17,6.45,15.26.27.64.81,0,.69-.47A77.63,77.63,0,0,0,74.5,96.24c-.44-.85-1.11.14-.81.75Z"/><path class="cls-2" d="M106.34,58.26c8.75-1.08,17.83-1.68,26.42-3.74.41-.09.33-1.12-.13-1.1-8.77.29-17.65,2.17-26.33,3.45-.61.09-.57,1.47,0,1.39Z"/><path class="cls-2" d="M107.47,68.28c5,2.09,10,4.47,15.24,6,.59.18.62-1,.18-1.18-4.87-2.48-10.12-4.25-15.2-6.23-.64-.24-.77,1.15-.22,1.38Z"/><path class="cls-2" d="M21.68,72.37A56,56,0,0,0,5.68,86c-.22.28.05,1.21.44.82C11.1,82,16.05,77.38,22,73.65c.46-.3.27-1.6-.27-1.28Z"/><path class="cls-2" d="M21.3,60.17c-6.93-.1-13.94-.48-20.86-.08-.61,0-.57,1.34,0,1.38,6.91.47,13.92.17,20.86.14.63,0,.6-1.43,0-1.44Z"/><path class="cls-2" d="M82.83,29.42a8.42,8.42,0,0,1-3.68-1.81c-6.57-5.71-7-16.48-12-23.45-1.82-2.56-6-3.95-8.41-1.09-4,4.75-5.68,10.13-7.14,16.07-.68,2.77-1.46,6.49-3.21,9.24-7.29,5.37-17.82,5.81-26.65,6.21-3.29.14-6.33,3.33-5.17,6.78,3.13,9.29,11.59,12.35,17.78,19a42.31,42.31,0,0,0,7.42.69A42.5,42.5,0,0,0,82.83,29.42Z"/></g></g></svg>