<svg xmlns="http://www.w3.org/2000/svg" viewBox="0 0 158.85 140.21"><defs><style>.cls-1{fill:#fed24f;}.cls-2{fill:#f2d95f;}</style></defs><g id="Layer_2" data-name="Layer 2"><g id="Слой_2" data-name="Слой 2"><path class="cls-1" d="M113.82,40.32c-4.83-.42-9.69-.57-14.53-1-3.74-.31-5.85-1-7.43-4.54C89,28.54,88.6,21.25,83.5,16.09c-3.12-3.17-7.86-4-11.41-1.06-3.19,2.66-3.63,7-4.93,10.74-2.39,6.84-6.56,13.46-12.92,16.89a48.68,48.68,0,0,1-7.19,2c-5.34,1-12-.1-16.36,3.92-9.63,9,5.8,20.71,11.45,26.5,4.29,4.4,5,8.62,4,14.61-1.12,6.63-2.6,12.86-.77,19.52.93,3.36,5.45,5.71,8.57,3.49l12.37-8.84,6.19-4.42c1.79-1.28,5.2-4.76,7.62-4.44,1.71.22,4,2.78,5.28,3.78,1.85,1.4,3.74,2.76,5.68,4,4,2.64,8.45,5.54,13,7.06,8.65,2.86,15.17-3.69,12.29-12.3a84.49,84.49,0,0,0-5.58-12.66c-2-3.71-6-7.48-3.31-11.69,4.44-7.06,13.95-8.76,17.17-17.12C128,47.37,122.46,41.08,113.82,40.32Z"/><path class="cls-1" d="M45,29.3c-6-6-11.26-12.61-16.73-19.11-.29-.35-.38.69-.23.92A119.8,119.8,0,0,0,44.76,30.34c.36.35.51-.79.27-1Z"/><path class="cls-1" d="M52.45,22.42C50.38,15.16,49,7.77,47.15.47c-.23-.92-1-.33-.87.39,1,7.47,3.22,14.85,5.46,22,.21.67.85,0,.71-.47Z"/><path class="cls-1" d="M102.89,21.68c1.78-6.28,3.9-12.57,5.17-19,.1-.54-.55-1.26-.81-.5-2.15,6.11-3.46,12.6-5.08,18.86-.14.53.5,1.41.72.61Z"/><path class="cls-1" d="M112.56,27.53c8.58-5.25,17.63-10.07,25.67-16.14.35-.26.17-1.45-.36-1.17-8.92,4.56-17.16,10.67-25.56,16.11-.43.28-.25,1.51.25,1.2Z"/><path class="cls-1" d="M28.23,77.76c-9.12.1-18.88-.58-27.89.92-.47.08-.45,1,0,1.07,9.08,1,18.79-.32,27.89-.77.54,0,.52-1.22,0-1.22Z"/><path class="cls-1" d="M29,91.23c-7.06,5-13.53,11.17-18.06,18.6-.12.2-.05,1.18.21.85,5.41-6.79,11-13.08,18-18.31.29-.21.15-1.35-.14-1.14Z"/><path class="cls-1" d="M75.09,114.58c-1.23,4.29-2.37,8.61-3.7,12.88-1.22,3.93-2.84,7.8-3.8,11.81-.08.34.37,1.09.66.55,2-3.76,3.1-8.08,4.33-12.13s2.43-8.36,3.31-12.62c.11-.53-.58-1.25-.8-.49Z"/><path class="cls-1" d="M83.76,114.49c5.81,8.19,12.33,16.1,16.26,25.4.32.75,1,0,.81-.54-2.62-9.69-10.61-17.93-16.52-25.76-.46-.61-.85.48-.55.9Z"/><path class="cls-1" d="M122.54,71.47c12-2.15,24.27-4,36-7.15.44-.12.36-1.28-.14-1.21-12,1.51-24.07,4.5-35.91,7-.57.13-.53,1.42,0,1.32Z"/><path class="cls-1" d="M127.16,84.22c8.5,3.63,17.46,7.49,26.57,9.22.57.1.64-1,.18-1.14-8.71-3.46-17.81-6-26.54-9.4-.61-.24-.73,1.1-.21,1.32Z"/><path class="cls-2" d="M101.62,39.51c-.78,0-1.56-.09-2.33-.15-3.74-.31-5.85-1-7.43-4.54C89,28.54,88.6,21.25,83.5,16.09c-3.12-3.17-7.86-4-11.41-1.06-3.19,2.66-3.63,7-4.93,10.74-2.39,6.84-6.56,13.46-12.92,16.89a48.68,48.68,0,0,1-7.19,2c-5.34,1-12-.1-16.36,3.92-9.63,9,5.8,20.71,11.45,26.5a14.91,14.91,0,0,1,3.7,5.84,48.36,48.36,0,0,0,8.31.77A47.82,47.82,0,0,0,101.62,39.51Z"/></g></g></svg>