<svg xmlns="http://www.w3.org/2000/svg" viewBox="0 0 121.83 202.52"><defs><style>.cls-1{fill:#fbb903;}.cls-2{fill:#fed24f;}</style></defs><g id="Layer_2" data-name="Layer 2"><g id="Слой_2" data-name="Слой 2"><path class="cls-1" d="M60.37,48.8l10.4-3.53A12.11,12.11,0,0,1,86.76,57l-.59,28.73a6.14,6.14,0,0,0,8.31,5.87l8.43-3.18a14,14,0,0,1,18.82,14.74l-11.59,96.93a2.77,2.77,0,0,1-5.44.34L90.22,141.53a6.15,6.15,0,0,0-7.74-4.42h0a21.07,21.07,0,0,1-27-17.87L53,97.46A6.14,6.14,0,0,0,45,92.32l-3,1A22.83,22.83,0,0,1,12.17,76.06L.11,13.62a6.15,6.15,0,0,1,5.1-7.24L46.06.07A6.14,6.14,0,0,1,53.14,6.3l-.88,36.53A6.14,6.14,0,0,0,60.37,48.8Z"/><path class="cls-2" d="M96.61,167.52l6-50a14,14,0,0,0-18.81-14.75L75.34,106A6.15,6.15,0,0,1,67,100.13l.59-28.73a12.1,12.1,0,0,0-16-11.7L41.23,63.22a6.15,6.15,0,0,1-8.12-6L34,20.72a6.15,6.15,0,0,0-7.08-6.23l-25.87,4L12.17,76.06A22.83,22.83,0,0,0,41.91,93.35l3-1A6.14,6.14,0,0,1,53,97.46l2.41,21.78a21.07,21.07,0,0,0,27,17.87,6.15,6.15,0,0,1,7.74,4.42Z"/></g></g></svg>