<svg xmlns="http://www.w3.org/2000/svg" viewBox="0 0 80.79 200.43"><defs><style>.cls-1{fill:#fed24f;}.cls-2{fill:#fbbe0d;}</style></defs><g id="Layer_2" data-name="Layer 2"><g id="Слой_2" data-name="Слой 2"><path class="cls-1" d="M49.18,1.22,1,98.39a9.35,9.35,0,0,0,5.54,13.07L28,118.34A6.3,6.3,0,0,1,32,126.71l-28.67,71a2,2,0,0,0,3.41,1.94l72-94.18a10.32,10.32,0,0,0-4.65-16L43.78,78.41a8.5,8.5,0,0,1-5.37-9.84L53.25,2.66A2.17,2.17,0,0,0,49.18,1.22Z"/><path class="cls-2" d="M51.37,110.39c-6-7.4-24.83-5.25-33.16-12.92C11.08,90.89,43.33,20.76,52.74.75a2.15,2.15,0,0,0-3.56.47L1,98.39a9.35,9.35,0,0,0,5.54,13.07L28,118.34A6.3,6.3,0,0,1,32,126.71l-28.67,71a2,2,0,0,0,3.41,1.94l2.3-3C20.66,177.26,56.44,116.59,51.37,110.39Z"/></g></g></svg>