<svg xmlns="http://www.w3.org/2000/svg" viewBox="0 0 386.82 370.29"><defs><style>.cls-1{fill:#fbc726;}.cls-2{fill:#fbbe0d;}.cls-3{fill:#f9ec6c;}.cls-4{fill:#fdc725;}.cls-5{fill:#ff9e29;}.cls-6{fill:#14242b;}.cls-7{fill:#fad0d7;}</style></defs><g id="Layer_2" data-name="Layer 2"><g id="Слой_2" data-name="Слой 2"><path class="cls-1" d="M137.06,222.14c-.78-2.79-3.35-61.28,23.77-95.07s40.9-44.82,76.73-47.57,44.09,0,58.56-10.34S315.41,43,314.72,32s-6.89-25.49-6.89-25.49S331.42,14.81,338.57,32s12.14,37.24,0,45.47-11.45,13.74-11.45,13.74,22.9,4.89,30.05-1.34,23.69-20.71,23.69-20.71,8.43,24.87-2,37.24-20.06,22.7-35.22,26.83-33.76,6.21-33.76,6.21a47.63,47.63,0,0,0,24.55,13.46c15.41,3.07,34,5.14,34,5.14s-5.34,13.84-19.55,18.63-23.16,8.92-36.94,3.41-40.65-20-40.65-20l-28.93-6.2-20.67-.69-17.22.69-20,10.34L171.42,178l-15.85,19.29Z"/><path class="cls-2" d="M386.5,90.5a44.94,44.94,0,0,0-5.14-27,2.14,2.14,0,0,0-3.78.09c-8.82,15.31-26.12,24.91-43.66,25.18,7.76-7.29,12.34-17.93,13.34-28.58,1.58-16.77-5.59-32.47-17.41-44.13A77.78,77.78,0,0,0,305.33.24a1.15,1.15,0,0,0-1.53.44l-.3-.25c-2.57-1.95-3.55,3.28-2.3,4.83,5.77,7.17,9.85,15.53,10.33,24.83a42.8,42.8,0,0,1-6.48,25.16C291.17,77,263.06,73,240.83,74c-48.73,2.14-85.66,41.3-98.55,86.28-8.43,29.46-8,60.44-2.92,90.44.56,3.28,3.43,1.15,3.1-1.39-6.54-51.46-.23-109.38,41.9-144.79A97.76,97.76,0,0,1,214,87.23c11.83-4.26,24-5.15,36.44-5.16,12.9,0,26.27.38,38.5-4.39A41.86,41.86,0,0,0,310.33,59c7.87-14,9.79-35.24,1-49.72,13.91,8.8,26.82,21.69,30.22,37.94,3.36,16-4.29,34.32-20,40.55-2.51,1-2.7,7.28.2,7.93a55.68,55.68,0,0,0,57.52-22.94c6.32,15.91-2.19,34.73-14.76,45.2-16.38,13.63-38.94,16.5-59.51,16.18-4.22-.07-3.65,7.56-1.44,9.44a75.85,75.85,0,0,0,60.86,17.22c-6.45,11.45-21.53,17.44-34,18.16-21.06,1.22-40.64-9.93-58.94-18.83-19.13-9.3-40.38-17.57-61.87-12.18-18.76,4.71-35.52,18.3-47.46,33.13-13.3,16.52-22.22,38.11-18.63,59.56.89,5.38,6.45,3.38,6.18-1.43-1-18.69,5.55-35.79,17.29-50.21,11.9-14.61,29.32-28.53,48.36-31.62,21.91-3.56,42.7,7,61.8,16.27,17.48,8.5,37.24,17.88,57.24,15,18-2.6,34.11-13.79,38.24-32.15.32-1.4-.47-6.11-2.95-5.55-16.6,3.74-34.62.85-49.72-7.12,13.94-1.14,27.84-4.57,39.64-12C374.07,122.71,384.54,107.61,386.5,90.5Z"/><path class="cls-3" d="M322.82,47.25C326,66.55,311.52,82.49,295,89.91c-18.26,8.2-38.55,8.22-58,11-18.13,2.63-34.54,9.08-48.89,20.58-13.71,11-24.6,25.24-32.71,40.75a198.31,198.31,0,0,0-12.64,30.26c-3.41,10.37-6.76,21.29-7.93,32.17-.23,2.06,2.23,5.3,3.33,2,3.25-9.71,5.13-19.87,8.19-29.66a186,186,0,0,1,11.34-28.62C166,152,177.31,137,192,125.69c15.95-12.23,34.34-17.26,54-19.91,18.85-2.53,38.8-3.73,55.66-13.45,15.45-8.91,27.84-27.49,22.91-45.86-.49-1.82-2-.67-1.76.78Z"/><path class="cls-3" d="M360.83,96.87c-6.24,6.6-12.85,12.11-21.45,15.33a116.65,116.65,0,0,1-29.73,6.72c-20.4,2-40.71-2.88-61.08-.65-31.86,3.48-61.85,20.2-82.59,44.48-11.48,13.44-22,30.47-25.27,48.06-.52,2.76,2.74,6.48,4.2,2.55,2.87-7.76,5.34-15.49,9.25-22.84a120.58,120.58,0,0,1,13.2-19.83,127.52,127.52,0,0,1,36.4-30.47,119.88,119.88,0,0,1,46-14.77c20-2,40.07,2.26,60.08-.16,10.37-1.25,21.13-3.61,30.58-8.18,8.45-4.1,17.18-9.36,21.7-17.9.39-.74-.1-3.56-1.26-2.34Z"/><path class="cls-4" d="M199.09,207c-7.49.65-17,2.65-26.24,4.59-20.58,4.33-32.44,6.54-37.07,1.6-2.88-3.07-5.58-9.9-10.12-21.71-6.07-15.82-16.24-42.29-25.47-42.05-10,.27-11.57,14.41-12.91,36-1.17,18.59-2.35,37.85-15.06,42.83-9.81,3.87-22,4.71-33.72,5.53-15.43,1.07-30,2.08-31.09,10.09-1.24,9.09,14.14,17,27.71,24,11.83,6.09,23,11.85,26.1,19.44s1.66,21.77.18,36.89c-1.43,14.61-3.59,36.68,1.78,38.67,5.62,2.08,21.59-14.34,32.16-25.2,10-10.26,18.81-19.33,25.93-22.95a16.48,16.48,0,0,1,3.43-1.34c8.11-2.09,20.36,4.89,34.56,13s31.77,18.08,38.22,13c7.34-5.79-5.53-29.28-14-44.82-9.41-17.17-14.18-26.39-11-31.79,1.81-3.06,6.16-8,11.66-14.16,9.6-10.8,29.58-33.3,26.42-40.18C210.48,208.25,209.36,206.07,199.09,207Z"/><path class="cls-5" d="M171.34,204.39c-10.93,2.3-27.46,5.77-30.22,3.75-2-2.17-5.38-10.89-8.62-19.33C124,166.73,114.4,141.69,100,142.07c-17.37.47-18.72,22-20,42.82-1,16.31-2.1,33.19-10.44,36.47-8.76,3.46-20.34,4.26-31.54,5C19.51,227.68,2,228.89.15,242.81c-1.94,14.21,15.12,23,31.62,31.52,10.12,5.21,20.59,10.61,22.67,15.7,2.37,5.81,1,19.84-.33,33.41-2.22,22.7-4.14,42.3,6.53,46.25,10.09,3.73,23.93-10.5,40-27,9.51-9.78,20.29-20.87,25.93-22.31,5.24-1.35,17.92,5.87,29.11,12.24,16.56,9.42,33.65,19.15,44.24,13.76A12.65,12.65,0,0,0,202,345c12.2-9.63-.75-33.25-12.17-54.09-5-9.16-11.89-21.7-11.1-24.54,1.45-2.46,6-7.59,10.84-13,18.56-20.9,32.38-37.71,27.59-48.11C212.76,195.68,193.56,199.71,171.34,204.39Zm12.77,44.13c-5.5,6.2-9.85,11.1-11.66,14.16-3.2,5.4,1.57,14.62,11,31.79,8.52,15.54,21.39,39,14,44.82-6.45,5.08-24.07-4.94-38.22-13s-26.45-15.05-34.56-13a16.48,16.48,0,0,0-3.43,1.34c-7.12,3.62-15.94,12.69-25.93,22.95-10.57,10.86-26.54,27.28-32.16,25.2-5.37-2-3.21-24.06-1.78-38.67,1.48-15.12,2.88-29.4-.18-36.89S47,273.91,35.12,267.82c-13.57-7-28.95-14.93-27.71-24,1.09-8,15.66-9,31.09-10.09,11.75-.82,23.91-1.66,33.72-5.53,12.71-5,13.89-24.24,15.06-42.83,1.34-21.55,3-35.69,12.91-36,9.23-.24,19.4,26.23,25.47,42.05,4.54,11.81,7.24,18.64,10.12,21.71,4.63,4.94,16.49,2.73,37.07-1.6,9.22-1.94,18.75-3.94,26.24-4.59,10.27-.89,11.39,1.29,11.44,1.38C213.69,215.22,193.71,237.72,184.11,248.52Z"/><path class="cls-3" d="M88.58,184.68c-1.16,18.59-2.34,37.85-15.06,42.83-9.81,3.87-22,4.72-33.72,5.53-15.43,1.07-30,2.09-31.09,10.09-1.23,9.09,14.15,17,27.72,24,11.82,6.1,23,11.86,26.09,19.45,1.76,4.3,2,10.85,1.69,18.51,23.7-13.23,46.5-29.7,52.93-46.56,10.4-27.23-8.81-79.16-21.15-107.63C90.84,155.68,89.63,168,88.58,184.68Z"/><path class="cls-6" d="M127.46,289.75c.79,5.08-2.14,10.34-7.61,11s-9.7-3.18-10.38-8.44a1.38,1.38,0,0,0-2.74.39c.85,6.71,6.6,11.78,13.51,10.79s11-7.45,10-14.14a1.38,1.38,0,0,0-2.74.39Z"/><path class="cls-6" d="M129.48,254.5c-.81-6.37,3.94-13,10.67-13.16,6.49-.16,11.58,6.33,11.06,12.48-.16,1.94,2.83,2.46,3,.5.66-7.8-5.14-15.46-13.21-16-8.8-.56-15.62,8.09-14.55,16.44.25,1.94,3.28,1.66,3-.28Z"/><path class="cls-6" d="M130.16,234.51q1.44,3.8,2.87,7.58a1.52,1.52,0,0,0,2.85-1.07q-1.44-3.79-2.87-7.59a1.52,1.52,0,0,0-2.85,1.08Z"/><path class="cls-6" d="M144,231.14q-1.36,4.13-2.71,8.23c-.61,1.84,2.16,3.11,2.77,1.24.9-2.74,1.81-5.48,2.71-8.22.61-1.84-2.16-3.11-2.77-1.25Z"/><path class="cls-6" d="M151.89,244.81l5.57-4.67c1.49-1.25-.29-3.72-1.79-2.46l-5.58,4.67c-1.49,1.25.29,3.72,1.8,2.46Z"/><path class="cls-6" d="M75.55,264.78c-3-5.7-.76-13.55,5.5-16,6-2.38,13,2,14.68,7.92.51,1.88,3.5,1.33,3-.56-2.07-7.56-10.14-12.76-17.9-10.47-8.45,2.49-11.89,13-8,20.43.9,1.74,3.65.44,2.75-1.31Z"/><path class="cls-6" d="M69.33,245.78c1.77,2,3.53,4.09,5.3,6.14a1.52,1.52,0,0,0,2.3-2l-5.3-6.14a1.52,1.52,0,0,0-2.3,2Z"/><path class="cls-6" d="M81.15,237.87c.09,2.89.18,5.77.28,8.66.06,1.94,3.09,2.18,3,.22-.09-2.89-.19-5.77-.28-8.65-.06-1.94-3.09-2.18-3-.23Z"/><path class="cls-6" d="M93.27,248l3.63-6.3c1-1.68-1.54-3.39-2.53-1.69l-3.63,6.3c-1,1.68,1.55,3.39,2.53,1.69Z"/><path class="cls-7" d="M75.5,284a7.32,7.32,0,1,1,8.08,6.48A7.32,7.32,0,0,1,75.5,284Z"/><path class="cls-7" d="M141,276.75a7.32,7.32,0,1,1,8.09,6.48A7.33,7.33,0,0,1,141,276.75Z"/></g></g></svg>