<svg xmlns="http://www.w3.org/2000/svg" viewBox="0 0 163.98 166.26"><defs><style>.cls-1{fill:#fbbe0d;}.cls-2{fill:#fed24f;}</style></defs><g id="Layer_2" data-name="Layer 2"><g id="Слой_2" data-name="Слой 2"><path class="cls-1" d="M128.11,55.85c-4.78-2.31-10-1-15.21-.46A47.59,47.59,0,0,1,53.78,96.23c.39,3.58-.75,7.43-1.56,10.8-1.25,5.22-2.44,10.46-2.11,15.87.22,3.63,2.69,5.84,6.22,6.22,13.64,1.47,19.64-11.68,31-15.67,6-2.12,11.88,2.87,16.82,5.65,5.94,3.34,12.26,5.58,19.06,3.56a6.3,6.3,0,0,0,4.35-7.65q-2.42-7.73-4.82-15.45c-1.26-4-3.78-8.86-3.94-13-.12-3.34,2.95-4.41,5.44-6A22.41,22.41,0,0,0,131.57,74C135.49,67.89,135.31,59.32,128.11,55.85Zm-15.34,53.93h0Z"/><path class="cls-2" d="M112.9,55.39a22,22,0,0,1-6.78-.17c-6.73-1.44-7.46-9.84-9.16-15.3C95.15,34.1,92,25.6,84.89,25c-9.22-.8-10.62,10.66-13.57,16.86-3.46,7.28-8.49,13.44-16.64,15-2.15.16-4.19.27-6,.42-4.68.38-10.08.53-13.76,3.88-4,3.62-3.82,9.33-1.13,13.67,4.63,7.5,14.71,10.11,18.85,17.64a10.3,10.3,0,0,1,1.15,3.82A47.59,47.59,0,0,0,112.9,55.39Z"/><path class="cls-1" d="M42.72,36.52Q33.81,24.89,24.79,13.34c-.49-.63-.93.51-.59.95q9,11.48,18.1,22.9c.36.44.65-.36.42-.67Z"/><path class="cls-1" d="M56.11,27.24C54.21,18.37,53,8.94,50.2.32c-.25-.78-.82,0-.76.52,1.12,8.94,4,17.89,6.06,26.67.14.63.71.24.61-.27Z"/><path class="cls-1" d="M112,34.11c3.44-8.26,6.31-16.74,9.62-25,.26-.64-.53-1.61-.85-.72-3,8.47-6.45,16.79-9.33,25.3-.14.41.31,1.06.56.47Z"/><path class="cls-1" d="M122.55,38.25c3.7-2.31,7.31-4.75,10.92-7.18,3.29-2.22,6.91-4.26,9.86-6.89.3-.26.19-1.39-.34-1.12-3.51,1.75-6.7,4.43-9.92,6.67-3.62,2.52-7.24,5-10.77,7.69-.26.19-.1,1,.25.83Z"/><path class="cls-1" d="M85,138.64a112.57,112.57,0,0,0-5.36,26.64c-.06.85,1,1.5,1,.41a133.67,133.67,0,0,1,4.92-26.53c.13-.45-.4-1.19-.61-.52Z"/><path class="cls-1" d="M98.52,139.1c3.58,8.52,6.76,17.44,11.13,25.6.33.61.72-.11.57-.54-3-8.76-7.32-17.17-11.11-25.61-.29-.64-.78.1-.59.55Z"/><path class="cls-1" d="M137.2,87.26a121.67,121.67,0,0,0,25.23.8c.37,0,.35-.83,0-.83-8.44-.06-16.81,0-25.23-.9-.4,0-.39.88,0,.93Z"/><path class="cls-1" d="M138.32,103.77c8.34,4,16.63,8.56,25.31,11.71.44.16.44-.7.14-.88-8-4.64-16.85-8.12-25.26-12-.53-.24-.65,1-.19,1.19Z"/><path class="cls-1" d="M33.23,108.75c-7.93,3.81-16.31,8.69-22.34,15.21-.28.32-.12,1.36.4,1,7.3-5.36,14.06-10.89,22.17-15.09.42-.21.27-1.33-.23-1.09Z"/><path class="cls-1" d="M28.16,94.24c-4.87.66-9.72,1.39-14.58,2.15-4.36.69-9.15.92-13.33,2.37-.38.13-.31,1,.12,1,4.56.09,9.41-1.28,13.91-2s9.28-1.56,13.91-2.41c.49-.09.46-1.19,0-1.12Z"/></g></g></svg>