<svg xmlns="http://www.w3.org/2000/svg" viewBox="0 0 157.93 362.85"><defs><style>.cls-1{fill:#fbbe0d;}.cls-2{fill:#fed24f;}</style></defs><g id="Layer_2" data-name="Layer 2"><g id="Слой_2" data-name="Слой 2"><path class="cls-1" d="M109.41,0,1.52,126.53A6.35,6.35,0,0,0,5.2,136.9l62.7,11.66a6.35,6.35,0,0,1,3.49,10.57L18.14,216.52a6.35,6.35,0,0,0,3.64,10.59l52.12,8.41a6.36,6.36,0,0,1,4.67,9.13l-59.5,118.2,137.06-140.8a6.35,6.35,0,0,0-3-10.58l-48.91-12.66a6.34,6.34,0,0,1-3.46-10l41.51-54.47a6.36,6.36,0,0,0-3.22-9.94L70.65,103.84a6.36,6.36,0,0,1-4-8.69Z"/><path class="cls-2" d="M156.13,222.05a6.35,6.35,0,0,0-3-10.58l-48.91-12.66a6.34,6.34,0,0,1-3.46-10l41.51-54.47a6.36,6.36,0,0,0-3.22-9.94L70.65,103.84a6.36,6.36,0,0,1-4-8.69L91.81,39.2,27.92,114.13a6.35,6.35,0,0,0,3.67,10.37l62.7,11.67a6.34,6.34,0,0,1,3.49,10.56L44.53,204.12a6.36,6.36,0,0,0,3.64,10.6l52.12,8.41a6.36,6.36,0,0,1,4.67,9.13L60.8,320Z"/></g></g></svg>