<svg xmlns="http://www.w3.org/2000/svg" viewBox="0 0 98.43 134.76"><defs><style>.cls-1{fill:#c8e7f9;}</style></defs><g id="Layer_2" data-name="Layer 2"><g id="Слой_2" data-name="Слой 2"><path class="cls-1" d="M82.55,3.45c-16.85-7.86-35.41-1.2-49.63,9A82,82,0,0,0,3.31,52.66c-9.81,30,2.27,70.21,35,80,14.52,4.32,30.82,2,43.18-6.85,11.89-8.56,17.74-23.07,16.82-37.51C97.45,74.44,91,60.52,78.61,53.43c-13.19-7.56-31.51-4.86-41,7.24C27.53,73.41,30,96.29,45,104.25c14.86,7.87,33.26-5.92,31.28-22-.43-3.46-4.16-3.1-4.64.11C70.08,92.71,56.46,98.67,47.34,94.18c-9.88-4.86-11.23-18.84-4-26.5,8.54-9.05,23.9-10,34.18-3.43C86.47,70,91.31,80.52,91.36,91c.11,25.61-29.11,37.74-51,31.53-25.92-7.36-38.6-37-32.24-62,4-15.65,14-28.92,26.24-39.13C47,10.89,65.27,1.48,81.91,7.53c2,.71,2.2-3.36.64-4.08Z"/></g></g></svg>