<svg xmlns="http://www.w3.org/2000/svg" viewBox="0 0 70.4 84.64"><defs><style>.cls-1{fill:#e0acd6;}</style></defs><g id="Layer_2" data-name="Layer 2"><g id="Слой_2" data-name="Слой 2"><path class="cls-1" d="M8.54,81.54c15.4,5.71,33,3.54,46.07-6.69S72.85,46.54,69.34,30.69A39,39,0,0,0,34.17.09C17.35-1.16.19,11.16,0,28.89a22.34,22.34,0,0,0,12.15,20c6.54,3.46,14.9,3.24,20.07-2.48a7.64,7.64,0,0,0,1.17-7.93c-.84-2-3.28-4-5.24-2C22,43,7.86,38.33,7.16,29.2,6.71,23.27,11.51,17.78,16,14.52c5.63-4.1,12.6-5.52,19.45-5C48.87,10.44,61,19.77,64,33.1A35,35,0,0,1,52.07,67.45C40.59,77.07,23.64,79.58,9.56,74.94c-3.14-1-3.7,5.61-1,6.6Z"/></g></g></svg>