<svg xmlns="http://www.w3.org/2000/svg" viewBox="0 0 102.5 124.18"><defs><style>.cls-1{fill:#b2d2f9;}</style></defs><g id="Layer_2" data-name="Layer 2"><g id="Слой_2" data-name="Слой 2"><path class="cls-1" d="M61,118.75C34.31,113.31,7.57,90.9,6.35,62.09c-1.1-26.27,18.56-52,45.94-52C75.94,10,101.91,29.5,94.36,55.37c-3.42,11.72-12.29,22-23.93,26.07C58,85.78,42.5,81.19,35.37,69.86c-3.92-6.24-3.29-13.18,1.09-19,4.25-5.65,11.86-9.86,19-7.72,10.39,3.11,13,18.69,3.62,24.54-1.89,1.17-1.67,6.53,1.14,5.54,12.88-4.54,12-22.86,5.51-32.22-4-5.72-10.45-9.16-17.48-8.3-8.2,1-15.21,6.77-19,13.93-8.68,16.32-.66,35.13,15.13,43.3,14.56,7.54,31.62,3.51,43-7.7S104.47,54.5,101.9,38.78C99.38,23.4,88.09,10.86,74.12,4.63c-13.81-6.16-30.55-6.44-44,.77C15.77,13.07,6,27.4,2,43A63.61,63.61,0,0,0,9.17,91.9c8.8,14.46,23.27,25,39.42,29.8a72.89,72.89,0,0,0,12.06,2.47c2.2.27,2.35-5,.35-5.42Z"/></g></g></svg>