<svg xmlns="http://www.w3.org/2000/svg" viewBox="0 0 177.47 136.5"><defs><style>.cls-1{fill:#ffbfbf;}</style></defs><g id="Layer_2" data-name="Layer 2"><g id="Слой_2" data-name="Слой 2"><path class="cls-1" d="M2.54,21.4A44.52,44.52,0,0,1,36,10.62a39.77,39.77,0,0,1,17.26,5.81c4.82,3,11.5,8.79,11.83,15,.26,4.85-6.19,8.77-10.43,9-3.77.17-9-2.68-7.53-7,1.93-5.93,9.32-8.85,14.84-10a78.34,78.34,0,0,1,21-1.24c14,.84,28.87,5.39,38.18,16.53,7.52,9,11.69,22.38,2.21,31.67-4.42,4.35-11,5.84-16.54,2.68a10.35,10.35,0,0,1-3.31-2.82c-.48-.68-.65-1.57-.72-.85.28-2.64,4.16-5.23,6.24-6.3,6.58-3.39,14.87-1.82,21.71-.14A76.57,76.57,0,0,1,149.25,70c10.94,6,22.74,16.67,22.93,30.13.17,11.28-7.9,22.47-18.77,25.67-3.2.94-3.11,11.14,0,10.65,14.94-2.37,22.64-17.37,23.87-31.28,1.51-17.08-6-32.39-19.72-42.49a73.5,73.5,0,0,0-22.87-10.91c-8.52-2.52-18.76-4.82-27.11-.52-15.4,7.93-12.82,37.63,7.16,35.55,8.18-.86,14.27-8,17-15.23a42.67,42.67,0,0,0,.77-27c-5.4-18.14-20.68-29.51-38.78-33.2a83.81,83.81,0,0,0-28.17-.77c-8,1.14-16.54,4.14-20.8,11.55C40.88,29,40.18,39,44.23,46,48,52.53,56,53.51,62,49.25c7.13-5,9.08-14.2,7.58-22.41C68,18.2,62.28,11,54.93,6.35,41.71-2,23.66-2,10.15,5.69A37,37,0,0,0,1,13.13C-.19,14.46-.12,17.19.2,18.78c.14.72,1,3.73,2.34,2.62Z"/></g></g></svg>