<svg xmlns="http://www.w3.org/2000/svg" viewBox="0 0 161.03 192.01"><defs><style>.cls-1{fill:#e0acd6;}.cls-2{fill:#14242b;}.cls-3{fill:#ffd521;}.cls-4{fill:#9f7ecf;}</style></defs><g id="Layer_2" data-name="Layer 2"><g id="Слой_2" data-name="Слой 2"><path class="cls-1" d="M160.9,104Q158.08,87,155.28,69.86c-.51-3.1-2.92-6.2-6.3-5.19-9,2.71-18.11,5.37-27.17,8l-6.46,1.9c-.59.18-1.61.34-2.36.54,0-1.45-.26-3-.28-4.22,0-2.47-.07-5-.09-7.42q-.21-28.33,1.23-56.64c.19-3.88-3.15-9-7.19-6C87.56,15,71.73,33.18,61.37,54.67c-2.61,5.41-4.78,10.94-6.93,16.54-2,5.17-4.49,9.53-9,12.86-4.13,3-9,5-13.43,7.51a36.11,36.11,0,0,0-3.92,2.55c-1,.56-2,1.15-3,1.78-6.23,4-15.72,9.77-11.67,18.48,1.83,3.92,5.5,4.2,9.33,4.43,4.34.27,8.67.46,13,.63l7.72.31a32.73,32.73,0,0,1,11,6.45c7,6,12,13.85,17.37,21.3a157.33,157.33,0,0,0,48,44.15c1.91,1.14,4.18-.73,5.12-2.21,1.53-2.38,1.56-5.22,1.18-7.92q-4.67-33.36-8.33-66.86a180.93,180.93,0,0,1,38.3-.54C160.82,114.57,161.35,106.79,160.9,104Z"/><path class="cls-2" d="M30.59,108.89c4.44,0,4.44-6.89,0-6.89s-4.44,6.89,0,6.89Z"/><path class="cls-3" d="M2.58,118.74q6.27-3.54,12.84-6.42l-2.59-1.49c0,1.16.06,2.32.1,3.47l1.26-1.66L2.55,115.4c-2.15.51-1.24,3.83.92,3.32L15.11,116a1.75,1.75,0,0,0,1.26-1.66c0-1.15-.06-2.31-.1-3.47a1.74,1.74,0,0,0-2.59-1.48Q7.09,112.23.84,115.76c-1.93,1.09-.19,4.07,1.74,3Z"/><path class="cls-4" d="M67.12,76.79a89,89,0,0,1,9.21-22.2c4.2-7.14,9.73-12.71,15-19,.64-.75.33-3.27-1-2.32-6.52,4.81-11.8,12.78-15.76,19.73a83.37,83.37,0,0,0-8.83,23c-.2.87,1,2,1.3.79Z"/><path class="cls-4" d="M76.5,76.82c4.18-10.11,10.67-17.73,18.25-25.43.69-.7.26-3.06-.91-2.19C85.22,55.58,79,65.9,75.24,75.75c-.36.94.71,2.4,1.26,1.07Z"/><path class="cls-4" d="M86.68,76.73c2.63-5.87,7.16-9.37,12.2-13,.72-.52.41-2.74-.7-2.32C92.07,63.65,87.81,70,85.58,75.8c-.31.81.59,2.07,1.1.93Z"/><path class="cls-4" d="M114.13,87.94A108.55,108.55,0,0,0,129,85c5-1.41,10.76-2.89,15.2-5.69.81-.51.74-2.6-.48-2.32-4.78,1.12-9.39,3.42-14.1,4.88-5.1,1.59-10.29,3-15.51,4.12-.83.18-.82,2.08,0,2Z"/><path class="cls-4" d="M114.08,96.1c9.5-.27,20.88-2.28,29.33-6.81.9-.49.73-2.75-.5-2.42-4.62,1.25-9,3.12-13.71,4.26A141.49,141.49,0,0,1,114,93.71c-1,.14-1,2.41.06,2.39Z"/><path class="cls-4" d="M115.11,103.13c5.33.15,10.68-.15,16-.33s10.75,0,16-.8c1.11-.15,1.08-2.44-.06-2.51-5.3-.33-10.71.23-16,.48s-10.7.37-16,1c-1,.1-.93,2.18.06,2.21Z"/><path class="cls-4" d="M72.4,122.18c4.88,13.45,13.37,26.88,24.71,35.82,1.12.88,1.48-1.55.79-2.23-10.37-10.28-18.69-21.1-24.34-34.68-.54-1.28-1.48.21-1.16,1.09Z"/><path class="cls-4" d="M85.54,127.48c3.31,9.32,9.27,18.3,18,23.36,1,.57,1.18-1.76.57-2.26-7.55-6.15-13.84-13-17.3-22.27-.52-1.38-1.59.21-1.25,1.17Z"/><path class="cls-4" d="M94.84,125.43c1.46,4.48,4.54,9.25,8.45,11.95,1.31.9,1.51-1.64.84-2.36a49.53,49.53,0,0,1-8-10.82c-.75-1.43-1.63.25-1.31,1.23Z"/></g></g></svg>