<svg xmlns="http://www.w3.org/2000/svg" viewBox="0 0 351.07 267.03"><defs><style>.cls-1{fill:#ffbfbf;}.cls-2{fill:#ffb3b3;}.cls-3,.cls-6{fill:#fff;}.cls-4{fill:#14242b;}.cls-5{fill:#ff7d7d;}.cls-6{opacity:0.24;}</style></defs><g id="Layer_2" data-name="Layer 2"><g id="Слой_2" data-name="Слой 2"><path class="cls-1" d="M310,63.69a52.46,52.46,0,0,0-13.13,1.67c2.45-18.61-1.94-36.83-21.93-45.34-13.64-5.81-29.15-3.36-41.74,3.92a53.56,53.56,0,0,0-11,8.58,58.47,58.47,0,0,0-11.38-18.35C198.07.5,178.22-3.18,160.82,2.7c-25.84,8.73-38,30.09-42.25,54.06a57.12,57.12,0,0,0-9.89-6.2c-16.77-8.12-37.49-7.89-51.74,5.11C45.28,66.3,41.12,83.27,42.83,98.59c1.08,9.58,4.26,18.42,7.86,27.13a40.72,40.72,0,0,0-19.38,2.44c-15.6,6.1-27.85,20.51-30.66,37.15-4.62,27.46,16,47.74,39.88,51.28a26.73,26.73,0,0,0,9.11,24.35c12.44,10.45,26.48,9.25,38.19,2.31a145.94,145.94,0,0,0,111.45,20.22c33.59-7.47,70.7-30.37,88.58-61.76a50.26,50.26,0,0,0,11.33-1.22c13.83-3.12,26.16-13.41,27.24-28.25a29.49,29.49,0,0,0-5.14-18.81A63.66,63.66,0,0,0,338.73,139c10.73-13.08,15.12-31.35,10-47.68C343.47,74.24,327.46,63.81,310,63.69ZM269.36,164c0-.25.07-.5.12-.76,0,.29,0,.58,0,.86A.94.94,0,0,1,269.36,164Z"/><path class="cls-2" d="M40.39,216.26a26.77,26.77,0,0,0,9,24.39c12.4,10.49,26.45,9.32,38.18,2.42A146,146,0,0,0,199,263.62c33.61-7.36,70.79-30.15,88.76-61.49A50.29,50.29,0,0,0,299.1,201c13.83-3.09,26.2-13.33,27.32-28.17A29.53,29.53,0,0,0,321.34,154a63.48,63.48,0,0,0,17.48-14.43c10.77-13,15.22-31.3,10.19-47.65a38,38,0,0,0-7.57-13.67c-15.82,35.7-55.29,94.48-120.23,121C71,260.44,1,165.1,1,165.1l-.33.14C-3.84,192.5,16.6,212.68,40.39,216.26ZM269.5,163.58c0,.29,0,.57,0,.86l-.1-.1C269.42,164.09,269.45,163.83,269.5,163.58Z"/><path class="cls-3" d="M114.47,141.44a16.5,16.5,0,1,1,20.73,10.7A16.49,16.49,0,0,1,114.47,141.44Z"/><path class="cls-4" d="M120.76,139.44a9.9,9.9,0,1,1,12.44,6.42A9.89,9.89,0,0,1,120.76,139.44Z"/><path class="cls-3" d="M133.76,142.21a5,5,0,1,1,6.22,3.21A5,5,0,0,1,133.76,142.21Z"/><path class="cls-3" d="M194.63,115.87a16.5,16.5,0,1,1,20.73,10.7A16.51,16.51,0,0,1,194.63,115.87Z"/><path class="cls-4" d="M200.92,113.86a9.9,9.9,0,1,1,12.43,6.42A9.89,9.89,0,0,1,200.92,113.86Z"/><path class="cls-3" d="M213.92,116.64a4.95,4.95,0,1,1,6.22,3.21A5,5,0,0,1,213.92,116.64Z"/><path class="cls-4" d="M195.57,159.53c2.18,6.52-.51,14.12-7.59,16.21s-13.51-2-15.57-8.82c-.69-2.29-4.23-1.16-3.54,1.13,2.63,8.66,11.34,14.07,20.24,11.23S202,167,199.11,158.4c-.76-2.26-4.3-1.14-3.54,1.13Z"/><path class="cls-5" d="M98.31,180.37a11.55,11.55,0,1,1,14.52,7.49A11.56,11.56,0,0,1,98.31,180.37Z"/><path class="cls-5" d="M242.38,135.27a11.55,11.55,0,1,1,14.51,7.49A11.56,11.56,0,0,1,242.38,135.27Z"/><path class="cls-6" d="M93.17,53c-11.86-4.13-43.94,8.83-41.26,44.34S124.34,63.83,93.17,53Z"/><path class="cls-6" d="M172.53,8.62C149,10.93,130.53,29,135,43.09s71-.12,69.59-15.27S187.67,7.14,172.53,8.62Z"/><path class="cls-6" d="M237.87,39.73c-.36-12,19.57-20.1,37.16-8.4s17.32,25.65,5.88,29.3C269.91,64.14,238.38,56.22,237.87,39.73Z"/><path class="cls-6" d="M44.65,105.05c-11.44-3.27-36.72,15.18-27.49,27.82S63.14,110.35,44.65,105.05Z"/></g></g></svg>