<svg xmlns="http://www.w3.org/2000/svg" viewBox="0 0 527.82 544.38"><defs><style>.cls-1{fill:#e3f4fe;}.cls-2{fill:#7a94a1;}.cls-3{fill:#c8e7f9;}.cls-4,.cls-7{fill:#fff;}.cls-5{fill:#14242b;}.cls-6{fill:#f4a7b7;}.cls-7{opacity:0.57;}.cls-8{fill:#adcddc;}.cls-9{fill:#b5d6e7;}</style></defs><g id="Layer_2" data-name="Layer 2"><g id="Слой_2" data-name="Слой 2"><path class="cls-1" d="M483.82,145.46a76.92,76.92,0,0,0-19.21-2.84c10.84-25.33,11.86-52.83-13-72.78-17-13.63-39.88-16.32-60.56-11a78.62,78.62,0,0,0-19,7.77,85.67,85.67,0,0,0-8.8-30.46C350.69,11.77,324.08-1.31,297.16.1c-40,2.1-65.71,27.45-81.16,59.66a83.68,83.68,0,0,0-11.53-12.68C184,29,154.62,21.07,129.32,33.79,108.62,44.2,96,66.53,92.36,88.86c-2.29,14-1.29,27.73.35,41.46a59.89,59.89,0,0,0-28.37-4.23C39.87,128.53,16.84,144,6.28,166.44c-17.43,37,3.63,73.82,36,88.3a39.26,39.26,0,0,0,3.22,38C59,312.48,79.3,316.34,98.6,311.18,136.19,353.76,189,380.72,248.12,384c50.43,2.76,112-14.9,149.69-52.18a73.65,73.65,0,0,0,16.5,2.77c20.79,1.07,42.3-8.58,49.71-29.13,3.6-10,3.08-19.57.2-28.63a93,93,0,0,0,30.38-13.55C515,249,528.42,224.92,527.71,199.83,527,173.65,508.47,152.56,483.82,145.46ZM386.63,271.11c.16-.34.3-.69.46-1-.11.4-.24.8-.36,1.2Z"/><path class="cls-2" d="M387,270.6c-.16.34-.31.69-.47,1l.1.18C386.73,271.41,386.86,271,387,270.6Z"/><path class="cls-3" d="M42.25,254.23a39.26,39.26,0,0,0,3.09,38c13.39,19.74,33.7,23.66,53,18.56,37.47,42.69,90.22,69.81,149.3,73.22,50.43,2.92,112-14.56,149.85-51.72A74.18,74.18,0,0,0,414,335.16c20.78,1.13,42.33-8.45,49.8-29,3.63-10,3.14-19.57.28-28.63a93.25,93.25,0,0,0,30.43-13.46c20.39-14.17,33.92-38.22,33.29-63.32a55.62,55.62,0,0,0-5.27-22.32C486,222.64,406.9,290.07,304.61,301.76,68,328.8,6.78,166.27,6.78,166.27l-.53.07C-10.86,203.1,10,239.72,42.25,254.23ZM387,270.6c-.12.41-.25.81-.37,1.21l-.1-.18C386.67,271.29,386.82,270.94,387,270.6Z"/><path class="cls-4" d="M176.62,177.84a24.22,24.22,0,1,1,25.06,23.35A24.22,24.22,0,0,1,176.62,177.84Z"/><path class="cls-5" d="M186.3,177.5a14.53,14.53,0,1,1,15,14A14.54,14.54,0,0,1,186.3,177.5Z"/><path class="cls-4" d="M203.59,186.58a7.26,7.26,0,1,1,7.52,7A7.27,7.27,0,0,1,203.59,186.58Z"/><path class="cls-4" d="M300.07,173.47a24.22,24.22,0,1,1,25.06,23.35A24.22,24.22,0,0,1,300.07,173.47Z"/><path class="cls-5" d="M309.75,173.13a14.53,14.53,0,1,1,15,14A14.54,14.54,0,0,1,309.75,173.13Z"/><path class="cls-4" d="M327,182.21a7.26,7.26,0,1,1,7.52,7A7.27,7.27,0,0,1,327,182.21Z"/><path class="cls-5" d="M284.09,235.56c.5,10.09-6.33,19.76-17.15,19.91s-18.3-8.23-18.52-18.65c-.07-3.51-5.52-3.31-5.44.19.28,13.29,10.44,24.39,24.15,23.91s23.06-12.27,22.4-25.55c-.17-3.5-5.62-3.32-5.44.19Z"/><path class="cls-6" d="M138.35,226.45A17,17,0,1,1,155.9,242.8,17,17,0,0,1,138.35,226.45Z"/><path class="cls-6" d="M359.88,219.83a17,17,0,1,1,17.54,16.34A16.94,16.94,0,0,1,359.88,219.83Z"/><path class="cls-7" d="M181.6,44.37C166.46,33.83,116,39.42,105.68,90.68S221.35,72,181.6,44.37Z"/><path class="cls-7" d="M311.36,13.12C277.22,7.05,243.93,25.2,244.7,47s100.36,28,104.43,6S333.35,17,311.36,13.12Z"/><path class="cls-7" d="M391.39,83c4.24-17.11,35.62-20.64,55.84,2.88s14.32,43.11-3.3,43.74C427,130.21,385.56,106.5,391.39,83Z"/><path class="cls-7" d="M80.77,140c-14.87-9.17-57.93,6.89-49.89,28.42S104.81,154.86,80.77,140Z"/><path class="cls-8" d="M264.51,438.82l12.43,3.9c-3.63,1.88-7.23,3.84-10.74,6-2,1.22,0,4.26,2,3.05,3.48-2.11,7-4,10.62-5.9A114.65,114.65,0,0,1,274.15,457c-1,2.11,2.21,3.78,3.23,1.67a119.57,119.57,0,0,0,5.2-12.67l7.19,12.16c1.19,2,4.23,0,3-2q-3.06-5.21-6.14-10.4l9,2.84c2.24.7,3-2.85.8-3.55L286.73,442c3.6-1.63,7.23-3.19,11-4.59,2.18-.81,1.05-4.27-1.14-3.45-4,1.5-7.91,3.18-11.77,4.94A113.59,113.59,0,0,0,287.4,427c.38-2.31-3.16-3.1-3.54-.8q-.92,5.54-2.35,10.88l-6.72-11.38c-1.19-2-4.23,0-3,2l7,11.83-13.44-4.21C263.06,434.58,262.3,438.13,264.51,438.82Z"/><path class="cls-3" d="M211.63,401.44l8.86,6.09-9.24.62c-2.33.16-1.75,3.75.57,3.59l12.7-.85-9.32,11.48c-1.48,1.83,1.44,4,2.91,2.17l9.12-11.24c1.09,3.71,2.29,7.39,3.75,11,.87,2.17,4.19.7,3.32-1.47q-1.53-3.82-2.77-7.71l8.67,6c1.93,1.33,4.1-1.59,2.17-2.91l-11.24-7.73,15.13-1c2.33-.16,1.75-3.75-.57-3.59l-13.11.88,6.14-7.56c1.48-1.82-1.45-4-2.92-2.17L229,405.44a113.31,113.31,0,0,1-2.13-12.37c-.26-2.33-3.85-1.75-3.59.57a118,118,0,0,0,2.24,12.91l-11.67-8C211.87,397.2,209.7,400.12,211.63,401.44Z"/><path class="cls-9" d="M384.47,505.88l11.74-2.82q-2.13,4.28-4.24,8.54c-.89,1.79,1.87,3.22,2.76,1.43q2-4,4-8.08l4.5,10c.81,1.81,3.78.86,2.95-1l-3.72-8.27,5.78,3.2c1.76,1,3.18-1.79,1.44-2.75l-8-4.42,9.36-2.25c1.94-.46,1-3.41-1-2.95l-8.16,2c1.21-2.45,2.43-4.9,3.64-7.34.89-1.8-1.87-3.23-2.76-1.44l-3.95,8-4.26-9.45c-.81-1.81-3.77-.85-2.95,1q2.08,4.63,4.16,9.25l-8.1-4.49c-1.75-1-3.18,1.79-1.43,2.76l6.94,3.85-9.74,2.33C381.55,503.39,382.53,506.34,384.47,505.88Z"/><path class="cls-9" d="M149.25,453l-10.91-4.35c-1.85-.74-2.73,2.23-.89,3l9,3.6c-3.29,1.06-6.6,2.08-9.95,3-1.92.52-1.23,3.53.69,3,3.73-1,7.4-2.13,11.06-3.33-1.72,2.93-3.53,5.81-5.53,8.59-1.16,1.62,1.48,3.22,2.64,1.61a105.27,105.27,0,0,0,6.07-9.55c1.53,3.95,3,7.92,4.33,11.95.62,1.88,3.63,1.2,3-.69-1.26-3.79-2.63-7.54-4.05-11.27l8.51,3.4c1.85.74,2.72-2.23.89-3l-8.84-3.53c3.3-1.22,6.59-2.48,9.84-3.86,1.83-.78.35-3.49-1.47-2.72-3,1.25-6,2.41-9,3.52,1.47-3,2.85-6,4.05-9.15.71-1.86-2.25-2.73-3-.88-1.18,3-2.53,6-4,8.91-1.42-3.4-2.88-6.78-4.43-10.12-.85-1.81-3.56-.33-2.73,1.46C146.3,446,147.8,449.52,149.25,453Z"/><path class="cls-9" d="M185.85,531.8l12.25-.07-8.08,6.7c-1.51,1.25.16,3.84,1.69,2.57l7.33-6.08.09,8.05c0,2,3.1,1.82,3.08-.16q-.06-4.57-.11-9.15c2.74,2.2,5.49,4.41,8.17,6.7,1.5,1.28,3.57-1,2.06-2.28-2.55-2.19-5.17-4.28-7.78-6.38l10-.06c2,0,1.83-3.08-.15-3.07l-7.79,0,6.42-5.32c1.51-1.26-.16-3.85-1.68-2.58L202,528.47c0-3.66-.09-7.31-.14-11,0-2-3.09-1.82-3.07.15l.12,9.6c-3-2.32-6-4.63-9.12-6.85-1.6-1.14-3.68,1.13-2.07,2.28,2.7,1.94,5.32,4,8,6l-10,.06C183.71,528.74,183.87,531.81,185.85,531.8Z"/><path class="cls-8" d="M182.63,399.11l-11.91-2,4.83,8.21c1,1.73-1.64,3.35-2.65,1.63q-2.28-3.9-4.57-7.78l-3.79,10.3c-.68,1.86-3.7,1.12-3-.76l3.13-8.52q-2.78,1.8-5.54,3.61c-1.69,1.09-3.3-1.56-1.63-2.65l7.64-5-9.5-1.58c-2-.33-1.2-3.34.77-3l8.28,1.38-4.15-7.06c-1-1.73,1.63-3.35,2.65-1.63q2.25,3.84,4.51,7.68l3.57-9.73c.69-1.86,3.71-1.11,3,.77l-3.5,9.51,7.76-5c1.68-1.1,3.3,1.56,1.63,2.65l-6.66,4.33,9.88,1.64C185.37,396.42,184.59,399.43,182.63,399.11Z"/><path class="cls-8" d="M355.05,447.55l10.58-5.11c1.79-.87,2.87,2,1.09,2.89L358,449.56c3.36.83,6.73,1.6,10.14,2.27,1.95.38,1.48,3.43-.48,3.05-3.78-.74-7.53-1.61-11.26-2.54,1.92,2.8,3.93,5.55,6.12,8.18,1.27,1.53-1.25,3.31-2.52,1.79a107.3,107.3,0,0,1-6.73-9.1c-1.25,4.05-2.42,8.12-3.47,12.23-.49,1.92-3.54,1.45-3.05-.47,1-3.88,2.08-7.72,3.24-11.53l-8.25,4c-1.8.86-2.87-2-1.09-2.89l8.57-4.15c-3.38-1-6.75-2-10.1-3.16-1.88-.64-.59-3.45,1.27-2.81,3,1,6.11,2,9.19,2.88-1.67-2.88-3.26-5.8-4.68-8.84-.84-1.8,2.05-2.88,2.89-1.09,1.39,3,2.94,5.81,4.58,8.61,1.17-3.49,2.39-7,3.71-10.41.71-1.87,3.52-.58,2.81,1.27C357.5,440.38,356.25,444,355.05,447.55Z"/><path class="cls-8" d="M238.44,463l-12.22.8,8.52,6.1c1.6,1.14.12,3.85-1.49,2.69L225.51,467c.15,2.67.31,5.35.47,8,.11,2-3,2-3.08.07l-.54-9.14c-2.58,2.39-5.16,4.78-7.67,7.26-1.41,1.39-3.64-.74-2.22-2.13,2.39-2.36,4.85-4.63,7.31-6.91l-10,.65c-2,.13-2-2.94-.06-3.07l7.78-.51-6.79-4.86c-1.59-1.14-.11-3.84,1.5-2.69l9.88,7.08c-.22-3.65-.43-7.3-.65-10.94-.11-2,3-2,3.08-.07.19,3.2.38,6.39.56,9.59,2.84-2.53,5.69-5.05,8.62-7.48,1.5-1.25,3.74.86,2.22,2.13-2.55,2.12-5,4.33-7.52,6.52l10-.65C240.36,459.76,240.41,462.84,238.44,463Z"/><path class="cls-8" d="M391,389.71l-12.22.8,8.52,6.11c1.59,1.14.12,3.84-1.49,2.69L378,393.76l.48,8c.11,2-3,2-3.08.07l-.54-9.14c-2.58,2.39-5.17,4.78-7.67,7.25-1.41,1.39-3.64-.73-2.23-2.13,2.39-2.35,4.86-4.62,7.32-6.91l-10,.66c-2,.13-2-2.95-.06-3.08L370,388l-6.79-4.86c-1.59-1.14-.11-3.84,1.5-2.69l9.88,7.08c-.22-3.64-.43-7.29-.65-10.94-.11-2,3-2,3.08-.06.19,3.19.37,6.39.56,9.58,2.84-2.52,5.69-5,8.61-7.47,1.51-1.26,3.75.86,2.23,2.12-2.56,2.13-5,4.33-7.52,6.53l10-.65C392.88,386.51,392.93,389.58,391,389.71Z"/><path class="cls-8" d="M303,398.61l14,3.74-11.28,5.11c-2.11,1-1,4.42,1.11,3.46L317,406.28l-2.4,9.19c-.59,2.26,2.95,3,3.54.78l2.73-10.46c2.44,3.37,4.89,6.73,7.22,10.17,1.31,1.94,4.38,0,3.06-1.95-2.22-3.28-4.55-6.48-6.87-9.69l11.46,3.07c2.26.61,3-2.94.78-3.55l-8.89-2.38,9-4.06c2.11-1,1-4.43-1.11-3.46l-13.08,5.92,3.27-12.52c.59-2.27-3-3-3.55-.79q-1.43,5.49-2.86,11c-2.71-3.58-5.42-7.15-8.25-10.64-1.46-1.8-4.53.13-3.06,1.95,2.46,3.05,4.82,6.18,7.2,9.29l-11.44-3.06C301.51,394.45,300.73,398,303,398.61Z"/><path class="cls-8" d="M272.44,494.21l14,3.74-11.28,5.11c-2.11.95-1,4.42,1.11,3.46l10.25-4.64-2.4,9.19c-.59,2.26,3,3,3.54.78q1.38-5.24,2.74-10.46c2.43,3.37,4.88,6.73,7.21,10.17,1.31,1.94,4.38,0,3.07-1.95-2.23-3.28-4.56-6.48-6.88-9.69L305.23,503c2.26.61,3-2.94.78-3.55l-8.89-2.38,9-4.06c2.11-1,1-4.43-1.11-3.46l-13.08,5.92,3.27-12.52c.59-2.27-3-3-3.55-.79q-1.42,5.49-2.86,11c-2.7-3.58-5.42-7.15-8.25-10.64-1.46-1.8-4.53.13-3.06,1.95,2.46,3.05,4.82,6.18,7.2,9.29l-11.44-3.06C271,490.05,270.18,493.6,272.44,494.21Z"/></g></g></svg>