<svg xmlns="http://www.w3.org/2000/svg" viewBox="0 0 369.38 351.04"><defs><style>.cls-1{fill:#e0acd6;}.cls-2{fill:#7a94a1;}.cls-3{fill:#e09ed3;}.cls-4,.cls-7{fill:#fff;}.cls-5{fill:#14242b;}.cls-6{fill:#ffbfbf;}.cls-7{opacity:0.24;}.cls-8{fill:#95c1eb;}.cls-9{fill:#719cbc;}</style></defs><g id="Layer_2" data-name="Layer 2"><g id="Слой_2" data-name="Слой 2"><path class="cls-1" d="M344.48,123.24a54.26,54.26,0,0,0-13.11-4.16c10.45-16.5,14.28-35.62-.87-52.4-10.33-11.45-26.05-15.93-41.12-14.57a55.91,55.91,0,0,0-14.16,3.29,60.88,60.88,0,0,0-2.71-22.31c-6-18.46-23.15-30.62-42.15-32.69-28.22-3.06-49.08,11.76-63.54,32.54a59.14,59.14,0,0,0-6.63-10.17C147.92,7.76,128.26-1.08,109.12,5,93.46,9.89,82.11,24.08,77,39.3c-3.18,9.51-4,19.25-4.45,29A42.37,42.37,0,0,0,53.2,62.17C35.81,61.1,17.94,69.34,8,83.82c-16.38,23.9-5.82,52.06,15.21,65.86a27.82,27.82,0,0,0-2.06,27c7.17,15.31,21,20.32,35,18.89a151.81,151.81,0,0,0,96.37,67.85c35,7.65,80,2.27,110.64-19.54a52.61,52.61,0,0,0,11.22,3.81c14.42,3.1,30.57-1.21,38.08-14.75a30.75,30.75,0,0,0,3.38-20,66.07,66.07,0,0,0,22.79-6c15.85-7.65,28-23,30.35-40.61C371.48,147.85,360.92,131,344.48,123.24Zm-82.23,76.89.45-.66-.4.8A.78.78,0,0,0,262.25,200.13Z"/><path class="cls-2" d="M262.55,199.82l-.44.67a.69.69,0,0,0,.05.13C262.29,200.36,262.43,200.09,262.55,199.82Z"/><path class="cls-3" d="M23.23,149.31a27.82,27.82,0,0,0-2.14,27c7.12,15.33,20.89,20.38,35,19a151.9,151.9,0,0,0,96.16,68.15c35,7.75,80,2.5,110.7-19.22a52.16,52.16,0,0,0,11.22,3.85c14.41,3.14,30.56-1.12,38.12-14.64a30.74,30.74,0,0,0,3.44-20,66,66,0,0,0,22.81-6c15.87-7.6,28.07-22.89,30.47-40.52a39.54,39.54,0,0,0-1.16-16.21c-30.56,26.77-93.54,65-166.43,61.58C32.8,204.4,8.38,83.76,8.38,83.76l-.37,0C-8.13,107.52,2.34,135.51,23.23,149.31Zm239.32,50.51c-.12.27-.26.54-.39.8a.69.69,0,0,1-.05-.13Z"/><path class="cls-4" d="M125.9,111.09a17.16,17.16,0,1,1,14.88,19.18A17.17,17.17,0,0,1,125.9,111.09Z"/><path class="cls-5" d="M132.71,112a10.3,10.3,0,1,1,8.93,11.5A10.3,10.3,0,0,1,132.71,112Z"/><path class="cls-4" d="M143.77,120.26a5.15,5.15,0,1,1,4.47,5.75A5.15,5.15,0,0,1,143.77,120.26Z"/><path class="cls-4" d="M212.76,122a17.16,17.16,0,1,1,14.89,19.18A17.17,17.17,0,0,1,212.76,122Z"/><path class="cls-5" d="M219.57,122.88a10.3,10.3,0,1,1,8.93,11.5A10.3,10.3,0,0,1,219.57,122.88Z"/><path class="cls-4" d="M230.63,131.19a5.15,5.15,0,1,1,4.47,5.75A5.15,5.15,0,0,1,230.63,131.19Z"/><path class="cls-6" d="M93.62,140.77A12,12,0,1,1,104,154.19,12,12,0,0,1,93.62,140.77Z"/><path class="cls-6" d="M249.35,161.23a12,12,0,1,1,10.42,13.42A12,12,0,0,1,249.35,161.23Z"/><path class="cls-7" d="M144.5,18.28c-9.4-9.09-45.35-10.9-58.36,23.79S169.18,42.14,144.5,18.28Z"/><path class="cls-7" d="M238.82,11.11c-23.2-8.1-48.54.82-50.47,16.14s67,30.93,72.38,16S253.76,16.34,238.82,11.11Z"/><path class="cls-7" d="M286.89,69.07c4.91-11.5,27.27-10.41,38.75,8.33s5.13,31.79-7.27,30.23C306.45,106.13,280.15,84.86,286.89,69.07Z"/><path class="cls-7" d="M63.12,73.78C53.76,65.68,21.81,72,25,88S78.26,86.88,63.12,73.78Z"/><path class="cls-8" d="M242.8,215.86s20.44,7,41.47,2.19c34.69-7.89,47.88,22.43,37.83,40.18s-29.16,13-34.58-.67,8.56-21.25,17.43-16.23,2.28,14.14,2.28,14.14-.36-7.2-6.9-7.76-8,11.16.72,13.9c8.43,2.65,24.4-10,11.47-26.77-10-12.93-24.48-5.56-35.5-6.75C264.45,226.73,249.52,223.15,242.8,215.86Z"/><path class="cls-8" d="M217.12,234.3S215,268.36,233,291.69c20.85,27-7.3,45-15.75,33s.64-18.72,7-14.65,6.93,8.06,6.93,8.06c.8-6.86,1.17-19.29-15-19.45-15.61-.15-16.6,26.55-5.49,35,8.51,6.45,27,10.23,35.93-6.55,6.76-12.73.8-30.88-10.53-47.71S217.12,234.3,217.12,234.3Z"/><path class="cls-9" d="M206.62,207.28s46,11.16,59.37,68.65,49.47,64.86,63.24,56.49c16.41-10,12.1-35.94-8.3-33.24-14.41,1.91.09,23.31.09,23.31s-19.5-1.77-18.48-18.17c1-16.59,21.18-21.82,34.23-16.13s21.07,22,18.63,36.5-24,33.9-49.59,23.33c-25.77-10.65-35.12-19.94-47.19-60.54-11.48-38.61-10-39.34-24.4-55.33A166.78,166.78,0,0,0,206.62,207.28Z"/><path class="cls-5" d="M182.28,169.48a33.74,33.74,0,0,0,3.38,8.8c1.25,2.38,2.76,5.47,5.2,6.89a4.38,4.38,0,0,0,5-.14c.85-.68,1-1.55,1.6-2.38,1.14-1.63,2.3-1.4,4.06-1,3.47.85,7.47,1.9,8.74-2.59.74-2.61.23-5.62,0-8.26a45,45,0,0,0-1.82-9.34c-.71-2.17-2.36.1-2.16,1.46.35,2.44.87,4.84,1.19,7.28.22,1.69,1,4.74.47,6.42-1.2,3.91-6.2.4-8.89.67-3.25.33-3.68,5.09-6.83,4.25-2.21-.58-3.7-3.86-4.77-5.71-1.38-2.38-2.41-4.92-3.68-7.35-.67-1.26-1.62,0-1.41,1Z"/></g></g></svg>