<svg xmlns="http://www.w3.org/2000/svg" viewBox="0 0 298.64 224.1"><defs><style>.cls-1{fill:#95c1eb;}.cls-2{fill:#8aa7b5;}.cls-3{opacity:0.49;}.cls-4{fill:#fff;}</style></defs><g id="Layer_2" data-name="Layer 2"><g id="Слой_2" data-name="Слой 2"><path class="cls-1" d="M103.73,146.79a4.19,4.19,0,0,0-2.64-2.25,3.25,3.25,0,0,0-3.93.79,3.58,3.58,0,0,0-.3.36.7.7,0,0,1-.08.1c-9.63,14.08-26.63,63.9,4.11,65.66C136,213.47,109.28,160.15,103.73,146.79Zm-.24,43.26.06.18-.06-.06Z"/><path class="cls-1" d="M231.78,162.26a3,3,0,0,0-.33-.64c.35-4-5.74-6.21-7.59-2-6,13.7-25.24,62.51,4.65,64.4C257.89,225.91,235.06,173.32,231.78,162.26Z"/><path class="cls-2" d="M155.32,1.58c-2.49-3.32-7.18-.87-7.24,2.37a3.79,3.79,0,0,0-.6,1.75c-3.25,33.3-31.87,57.89-33.26,91.62-.84,20.27,12.62,44,35.51,43,26.19-1.05,36-29.44,35.94-51.41C185.61,57.32,174.16,26.72,155.32,1.58Z"/><path class="cls-1" d="M148.08,4a3.79,3.79,0,0,0-.6,1.75c-3.25,33.3-31.87,57.89-33.26,91.62a46.55,46.55,0,0,0,1.3,12.74,29.38,29.38,0,0,0,18.2,5.28c26.18-1.06,36-29.44,35.93-51.42A142,142,0,0,0,154.13.53C151.58-1,148.13,1.18,148.08,4Z"/><g class="cls-3"><path class="cls-4" d="M136.49,70.26c-.38,3.86-2.07,6.75-3.52,10.25-.26.62-.54,5.1,1.06,4.18C138.1,82.37,139.1,75.18,139,71c0-.71-.12-2.64-1.09-2.81s-1.32,1.35-1.39,2.05Z"/></g><g class="cls-3"><path class="cls-4" d="M145.54,127.2c15.3,2.27,30.77-12.35,27.87-28.06-.16-.86-.59-.22-.55.35,1.18,14.7-12.27,28.74-27.32,26.91-.22,0-.26.76,0,.8Z"/></g><path class="cls-2" d="M27.78,37.85c-.06-.16-.15-.29-.22-.44-.13-4.1-6.92-4.84-8-.23C15.1,57.11,1.06,74.76.05,95.35c-.7,14.19,6.66,30,22.64,30.9,15.65.87,21.25-14.41,22-27.44C45.84,77.83,34.8,57.08,27.78,37.85Z"/><path class="cls-1" d="M27.56,37.41c-.13-4.1-6.92-4.84-8-.23C15.1,57.11,1.06,74.76.05,95.35c0,1,0,2,0,3a21.31,21.31,0,0,0,15.14,7.3c15.64.88,21.25-14.4,22-27.44.49-8.77-1.17-17.5-3.76-26.1-2-4.84-3.9-9.6-5.6-14.28C27.72,37.69,27.63,37.56,27.56,37.41Z"/><g class="cls-3"><path class="cls-4" d="M16.61,76.57c-1.76,3-3.54,6.38-3.17,10,.05.45.32,1.63,1,1.31,1-.47,1.38-2.15,1.73-3.09.53-1.45,1.09-2.89,1.76-4.29A4.63,4.63,0,0,0,18,77.21c-.19-.51-.89-1.55-1.42-.64Z"/></g><g class="cls-3"><path class="cls-4" d="M23.88,118.78c5.4-.28,10.05-4.12,12.5-8.75.22-.41-.1-2-.51-1.16-2.53,4.83-6.86,7.42-12,8.76-.34.08-.36,1.17,0,1.15Z"/></g><path class="cls-2" d="M291.66,81.55c-7.43-13.8-13.93-26.76-17.92-42a3.64,3.64,0,0,0-.9-1.64c.09-3.56-4.57-6.49-6.85-2.87-12.12,19.23-21.19,40.51-22.05,63.51-.65,17.28,4.39,43,26.1,44.23,18.5,1.08,28.42-20.37,28.6-36C298.74,97.51,296,89.55,291.66,81.55Z"/><path class="cls-1" d="M290.24,78.87c-6.83-12.81-12.77-25.08-16.5-39.35a3.64,3.64,0,0,0-.9-1.64c.09-3.56-4.57-6.49-6.85-2.87-12.12,19.23-21.19,40.51-22.05,63.51-.07,1.92-.06,4,0,6a22.84,22.84,0,0,0,17.71,9.67C279.92,115.31,289.8,94.46,290.24,78.87Z"/><g class="cls-3"><path class="cls-4" d="M261,90.66c-.63,2.31-1.81,5-.86,7.3a1.27,1.27,0,0,0,1.55.92c1-.35,1.45-1.57,1.71-2.5s.55-2,.82-3c.33-1.23.33-2.89-.75-3.78A1.58,1.58,0,0,0,261,90.66Z"/></g><g class="cls-3"><path class="cls-4" d="M285.37,131.23a12.25,12.25,0,0,1-5.26,6.41c-2.06,1.25-4.25,1.51-6.54,2.07-.33.08-.31.91,0,1,5.54,1.19,10.79-4.22,12.26-9,.12-.37-.3-1-.49-.42Z"/></g></g></g></svg>