<svg xmlns="http://www.w3.org/2000/svg" viewBox="0 0 250.86 282.39"><defs><style>.cls-1{fill:#f9ec6c;}.cls-2{fill:#fff;}.cls-3{fill:#fbbe0d;}.cls-4{fill:#fed24f;}</style></defs><g id="Layer_2" data-name="Layer 2"><g id="Слой_2" data-name="Слой 2"><path class="cls-1" d="M47.63,256.65c5.39-44.82,37-77.47,67.46-104.76,34.7-31,79.16-43.54,123-55.88,6.92-2,9.26-9.63-2.06-11.26-22.55-3.24-41.37-5.16-61.41,1.85a1.17,1.17,0,0,1-1.19-2c20.88-19.56,46.06-33,72.72-42,7.52-2.52,5.62-11.16-2.18-10.62C197.68,35.28,179,38.32,143.41,59.49c-.75.44-1.59-.29-1.06-1,14.82-19.1,32.54-31.77,51.7-48.11,10.68-9.11,1.89-12.93-11.59-8.65C127.32,19.26,82.18,60.28,52.74,111.94c-22,38.58-20.92,103.61-5.11,144.71Z"/><path class="cls-2" d="M53.72,212.64a155.28,155.28,0,0,1,82.36-94c10.9-5.13,22.47-8.41,34.21-11,.83-.18-.28-3-1.1-2.88C126.29,110,86.82,139.87,66,177.11a132.28,132.28,0,0,0-13.42,34.12c-.12.52.88,2.24,1.14,1.41Z"/><path class="cls-2" d="M53.11,212.72c2-11.6,4.4-22.91,8.37-34a167,167,0,0,1,15.9-32.61,199.78,199.78,0,0,1,53.86-56.6c12.64-8.92,26.2-16.35,40.06-23.17.9-.44-.4-3.32-1.33-2.94C121.65,83.32,79.51,121.63,60.68,171c-4.87,12.75-8.43,26.45-9.11,40.13,0,.57,1.35,2.72,1.54,1.64Z"/><path class="cls-2" d="M52.21,209.87C47,186,50,161.94,59.39,139.48c10-23.87,26.22-44.42,44.48-62.5,5.24-5.19,10.65-10.22,16.13-15.16,5.78-5.2,12-10.07,17.46-15.65.52-.53-.65-3-1.34-2.53C130.23,47.48,124.8,52.4,119.48,57c-5,4.33-10,8.76-14.74,13.36a252.15,252.15,0,0,0-28,31.45C61.86,121.87,51,145.15,47.91,170.09c-1.6,13-1.1,26.47,2.5,39.15.28,1,2.25,2.67,1.8.63Z"/><path class="cls-3" d="M96.45,210c-4.75-2.38-10-1.13-15.2-.68a47.62,47.62,0,0,1-59.7,40c.34,3.58-.86,7.41-1.71,10.77-1.33,5.2-2.59,10.42-2.35,15.83.17,3.64,2.61,5.88,6.14,6.31,13.61,1.67,19.8-11.39,31.21-15.22,6.06-2,11.83,3,16.73,5.89,5.9,3.42,12.18,5.76,19,3.84a6.31,6.31,0,0,0,4.46-7.6q-2.31-7.75-4.6-15.51c-1.2-4-3.65-8.91-3.75-13.1-.08-3.34,3-4.36,5.53-5.89a22.48,22.48,0,0,0,7.43-6.48C103.66,222.15,103.6,213.58,96.45,210ZM80.33,263.72h0v0Z"/><path class="cls-4" d="M81.25,209.33a22,22,0,0,1-6.78-.26c-6.71-1.54-7.32-9.95-8.94-15.43-1.72-5.85-4.76-14.4-11.86-15.12-9.2-.94-10.77,10.51-13.81,16.66-3.56,7.23-8.68,13.31-16.85,14.73-2.15.13-4.19.21-6,.33-4.69.31-10.09.39-13.81,3.68-4,3.57-4,9.28-1.34,13.66,4.53,7.56,14.57,10.32,18.6,17.9a10.18,10.18,0,0,1,1.1,3.85,47.62,47.62,0,0,0,59.7-40Z"/></g></g></svg>