<svg xmlns="http://www.w3.org/2000/svg" viewBox="0 0 356.61 358.39"><defs><style>.cls-1{fill:#ffd521;}.cls-2{fill:#f9ec6c;}.cls-3{fill:#fff;}.cls-4{fill:#141311;}.cls-5{fill:#d43942;}.cls-6{fill:#fe8b76;}</style></defs><g id="Layer_2" data-name="Layer 2"><g id="Слой_2" data-name="Слой 2"><path class="cls-1" d="M183.62,317.83c5.51,8.22,11.2,16.89,12.16,26.74.54,5.54-1.48,12.35-6.9,13.63-3.8.9-7.8-1.53-9.78-4.89s-2.31-7.46-2.16-11.36A54.47,54.47,0,0,1,183.48,318Z"/><path class="cls-1" d="M219,46.74a62.47,62.47,0,0,1-.1-24.67c1-5,2.75-10.18,6.48-13.71s9.86-4.95,14.11-2.07c4.09,2.76,5.19,8.56,3.82,13.3s-4.68,8.64-8,12.27c-5,5.43-10.68,10.63-16.17,15.55Z"/><path class="cls-1" d="M145.09,45a62.46,62.46,0,0,1-13.7-20.52c-1.95-4.75-3.32-10-2.16-15S134.71,0,139.85,0c4.93.05,9.05,4.28,10.52,9s.87,9.79.1,14.66c-1.17,7.29-3,14.76-4.91,21.89Z"/><path class="cls-1" d="M42.39,163.79a62.26,62.26,0,0,1-24.66.75c-5.07-.86-10.25-2.48-13.88-6.11s-5.21-9.72-2.44-14.05c2.65-4.16,8.42-5.41,13.19-4.17s8.76,4.45,12.48,7.69c5.56,4.84,10.91,10.38,16,15.75Z"/><path class="cls-1" d="M67.89,82.84c-8.84-4.44-18.06-9.19-23.75-17.29-3.2-4.56-4.79-11.48-.71-15.26,2.87-2.66,7.55-2.52,10.93-.56s5.67,5.35,7.47,8.82a54.55,54.55,0,0,1,6.09,24Z"/><path class="cls-1" d="M101.23,293.85A62.37,62.37,0,0,1,96.34,318c-2,4.74-4.75,9.41-9.11,12.13S76.58,333,73,329.33c-3.44-3.53-3.35-9.43-1-13.79s6.32-7.52,10.32-10.41c6-4.31,12.6-8.25,19-12Z"/><path class="cls-1" d="M45.7,243.1c-7.26,6.73-14.94,13.69-24.52,16.18-5.39,1.39-12.43.46-14.54-4.69-1.48-3.62.29-8,3.31-10.43s7-3.44,10.88-3.9A54.62,54.62,0,0,1,45.48,243Z"/><path class="cls-1" d="M252.6,296.52a62.52,62.52,0,0,1,19.65,14.91c3.4,3.86,6.41,8.37,6.95,13.48s-2.06,10.84-6.93,12.47c-4.68,1.56-9.95-1.09-12.88-5.06s-4-9-4.88-13.82c-1.28-7.26-2-14.93-2.52-22.29Z"/><path class="cls-1" d="M297.21,240.3A62.39,62.39,0,0,1,321.77,238c5.11.54,10.38,1.82,14.25,5.21s5.82,9.36,3.34,13.86c-2.38,4.32-8.05,5.94-12.9,5s-9-3.87-12.95-6.86c-5.86-4.47-11.56-9.66-17-14.69Z"/><path class="cls-1" d="M287.15,90.14A62.47,62.47,0,0,1,297.61,67.8c3.05-4.14,6.84-8,11.72-9.63s11-.26,13.64,4.16c2.51,4.24,1,10-2.23,13.65s-7.92,5.82-12.49,7.67c-6.84,2.78-14.19,5.06-21.27,7.15Z"/><path class="cls-1" d="M316.23,163.33c8-5.86,16.39-11.91,26.19-13.29,5.52-.78,12.41.94,13.92,6.3,1.06,3.76-1.19,7.87-4.47,10S344.52,169,340.62,169a54.71,54.71,0,0,1-24.18-5.51Z"/><path class="cls-2" d="M149.36,56.06C107,64.21,38.94,109,54.12,199.58s90.45,105.82,130.63,100.9,126.29-45.38,117-132.6S207.79,44.82,149.36,56.06Z"/><path class="cls-3" d="M103.58,168.41c-5,9.25,3.76,21,14.11,17.34s9.34-17.91-.22-21.87c-4.4-1.82-10-1-13,2.85a10.15,10.15,0,0,0,11.79,15.54c4.3-1.47,8.27-6.22,6.65-11-1.76-5.18-9.18-7.15-13.06-3-3.72,4-.53,11.89,5.35,10.43,1.57-.39,3.47-1.54,3.52-3.42.09-3.91-2-7.14-6.06-7.74A4.15,4.15,0,0,0,108,171a12.62,12.62,0,0,0,.59,7.58c1.84,4.87,9.33,1.79,7.49-3.09a5,5,0,0,1-.07-3.31l-4.6,3.42c-.25-.49-.51-1-.77-1.46l3.52-3.43a17.4,17.4,0,0,1,1.14,3.47c0-1-.12-1.19-.25-.62-.22,0-.9.87-1.24,1a2.27,2.27,0,0,1-3-.66c-1.79-3,2.85-3.13,4.48-2,2.46,1.69,2.68,5.77-.77,6.4-4.05.74-5-3.9-3.5-6.64,2.47-4.61-5-7.77-7.43-3.21Z"/><path class="cls-3" d="M229.27,136.89a11.43,11.43,0,0,0-10.37,5.28,10.43,10.43,0,0,0,.37,11.91c5.13,6.84,16.07,5.56,18.91-2.66a11,11,0,0,0-1.84-10.79A9.67,9.67,0,0,0,225.15,138,8.4,8.4,0,0,0,221,148.49a7.59,7.59,0,0,0,9.78,3.79c4.67-1.93,5.85-9.45.38-11.22a6,6,0,0,0-6.32,1.84c-1.93,2.25-1.61,5.15-.82,7.77,1.49,5,9,1.87,7.48-3.09q-6.85-1.31-3.58-2.82h-.08a2.51,2.51,0,0,1,.68.62,1.33,1.33,0,0,1,1.29.15c1.39.88,1.2,3.09.23,4.21-1.21,1.39-3.72.77-4.51-.84a3,3,0,0,1,2.57-4c2.2.06,4.23-1.06,4.6-3.41.31-2-1.23-4.54-3.41-4.6Z"/><path class="cls-4" d="M116.33,178.81l1.14,2.47a2.1,2.1,0,0,0,2.12,1.23c4.11-.2,5.26-6.41,1.58-8.16s-7.9,2.76-5.8,6.29,7.77,2.83,8.71-1.25A5,5,0,0,0,117,173.7a5.16,5.16,0,0,0-.36,9.22,5.35,5.35,0,0,0,8-4.87,5.61,5.61,0,0,0-8.23-4.8,5.77,5.77,0,0,0-1,9.5c3.75,3.21,9.88-.75,8.48-5.49-1.25-4.24-7.23-4.4-9.25-.78a2,2,0,0,0,1,2.65,2.06,2.06,0,0,0,2.66-1,1.34,1.34,0,0,1,1.64.22c.36.58-.62,1.68-1.37,1.64-1-.05-1.46-1.5-1.15-2.29a1.9,1.9,0,0,1,2.55-.79,1.69,1.69,0,0,1,.12,2.58,1.53,1.53,0,0,1-2.19-.81,1.37,1.37,0,0,1,1.64-1.4c.52.21.85,1.34.34,1.65s-1.59-.18-.82-.72a.87.87,0,0,1,.46-.1c-.77.2.27-.67-.17,0-.24.37.06.39-.31.41l2.12,1.23-1.14-2.46c-1.08-2.36-4.83-.83-3.74,1.54Z"/><path class="cls-4" d="M227.27,148.28c-2.1,2.25-.64,6.26,2.25,7s5.25-2.22,4.78-5a3.68,3.68,0,0,0-2.67-3.06c-1.66-.3-3.62.89-4.63,2.1a5.46,5.46,0,0,0,1.46,8.34,5.18,5.18,0,0,0,7.51-2.57,5,5,0,0,0-3.51-6.88c-2.94-.61-6.16,1.52-6.15,4.65a5.35,5.35,0,0,0,6.86,4.94,5.73,5.73,0,0,0,2.7-8.29c-1.94-3-6.31-3.3-9-1.12-2,1.65.43,4.88,2.45,3.22,1.26-1,4-.56,3.2,1.52-.72,1.93-3-.08-1.81-.81,1.48-.88,2.14,1.39.88,2a1.6,1.6,0,0,1-2-1.12c-.22-1.12,1-1.88,1.91-2l-1.49-.41c.35.22.24.07.23.26,0,.68-.19.09.08.29s0-.05,0-.21a3.43,3.43,0,0,1-.06-.34c0,.13-.21.38.16,0,1.78-1.91-1.42-4.39-3.19-2.49Z"/><path class="cls-5" d="M159.21,204.2c5.06,10.34,17,16.78,28.41,13.48s18.23-15,17-26.44c-.28-2.59-4.29-2.1-4,.49,1,9.55-4.58,19.24-14,22s-19.41-2.45-23.63-11.06c-1.13-2.33-4.89-.81-3.74,1.54Z"/><path class="cls-6" d="M89.34,213.86c-1-4.64,5.25-9.89,13.92-11.72s16.5.45,17.48,5.1-5.26,9.89-13.93,11.72S90.32,218.51,89.34,213.86Z"/><path class="cls-6" d="M236.77,177.35c-1-4.65,5.26-9.89,13.93-11.72s16.49.45,17.47,5.09-5.25,9.9-13.92,11.73S237.75,182,236.77,177.35Z"/></g></g></svg>