<svg xmlns="http://www.w3.org/2000/svg" viewBox="0 0 479.18 471.25"><defs><style>.cls-1{fill:#f9ec6c;}.cls-2{fill:#ffc91b;}.cls-3{fill:#fccc00;}.cls-4{fill:#010001;}.cls-5{fill:#ff8a6f;}.cls-6{fill:#fff;}</style></defs><g id="Layer_2" data-name="Layer 2"><g id="Слой_2" data-name="Слой 2"><path class="cls-1" d="M272.53,68a71.86,71.86,0,0,1,14.78-55.39l-8.19-3a111.13,111.13,0,0,1-14,54.6l8.19,2.95a118.45,118.45,0,0,1,11.54-46.86c2.49-5.24-6-8.26-8.49-3.06a125.08,125.08,0,0,0-12,49.23c-.16,4.08,5.87,7.09,8.19,3a120.39,120.39,0,0,0,15.64-59.12,4.55,4.55,0,0,0-8.18-2.94,81,81,0,0,0-16.28,62.24c.86,5.75,9.73,4.1,8.87-1.65Z"/><path class="cls-2" d="M325.84,83.66a104.71,104.71,0,0,1,42.28-61.55l-7.14-5a164.12,164.12,0,0,1-39.62,59.55l7.14,5A99.51,99.51,0,0,1,356.84,38c4.32-3.88-1.46-10.81-5.79-6.92a108.81,108.81,0,0,0-31,47.54c-1.31,4,3.75,8.23,7.14,5a174.61,174.61,0,0,0,42.32-63.42c1.73-4.48-3.69-7.38-7.14-5a112.4,112.4,0,0,0-45,65.41c-1.37,5.59,7.1,8.7,8.49,3.06Z"/><path class="cls-2" d="M220.79,68.11a135.79,135.79,0,0,1-2.43-63.36l-8.94.48a247.88,247.88,0,0,1,3.44,63.89c-.44,5.78,8.56,6.49,9,.68a257.45,257.45,0,0,0-3.57-66.22c-1-5.37-8-4.28-8.93.48a141.46,141.46,0,0,0,2.56,65.7c1.55,5.55,10.44,4,8.87-1.65Z"/><path class="cls-1" d="M172.3,77.43A55.45,55.45,0,0,1,157,48.29L149.06,52a53.38,53.38,0,0,1,16.69,30.4c1,5.71,9.88,4.08,8.88-1.65A61.27,61.27,0,0,0,156,46.22c-3.08-2.86-8.8-1.14-7.89,3.72a63.82,63.82,0,0,0,17.28,33.28c4.06,4.11,11-1.65,6.93-5.79Z"/><path class="cls-1" d="M372.19,122.16a71.76,71.76,0,0,1,48-31.59l-4.52-7a111,111,0,0,1-47.23,31l4.81,7.54A118.3,118.3,0,0,1,413.1,94.74c5.38-2.24,1.51-10.39-3.84-8.16a124.32,124.32,0,0,0-41.83,28.52c-3.62,3.75-.12,9.23,4.82,7.54A119.68,119.68,0,0,0,423,88.73c2.75-3.08-1-7.66-4.51-7A80.72,80.72,0,0,0,364.82,117c-3.19,4.85,4.18,10.06,7.37,5.2Z"/><path class="cls-2" d="M396.59,173.26A135.53,135.53,0,0,1,457,153.83q-1.38-4.26-2.75-8.52a247.44,247.44,0,0,1-60.61,20.54c-5.69,1.13-4.07,10,1.65,8.87a257.16,257.16,0,0,0,62.8-21.24c4.86-2.38,2.18-8.9-2.74-8.52a141.07,141.07,0,0,0-62.57,20.13c-4.93,3-1.13,11.18,3.84,8.17Z"/><path class="cls-1" d="M406.77,221.7a56,56,0,0,1,32.79-2.9q-.8-4.29-1.58-8.58a53.77,53.77,0,0,1-34.47,3.68c-5.65-1.2-6.3,7.8-.68,9a61.56,61.56,0,0,0,39-4.52c4.47-2.06,2.54-7.75-1.58-8.58a64.29,64.29,0,0,0-37.32,3.74c-5.39,2.2-1.52,10.35,3.85,8.16Z"/><path class="cls-2" d="M73.1,66.6A103.83,103.83,0,0,1,131,112l5.6-6.17A164.18,164.18,0,0,1,79.89,62.25l-5,7.14a99.42,99.42,0,0,1,41.63,31.27c3.59,4.58,10.5-1.23,6.92-5.79A108.69,108.69,0,0,0,78,60.9c-4.22-1.69-7.8,3.79-5,7.14a174.68,174.68,0,0,0,60.6,46.27c3.41,1.58,7.58-2.89,5.61-6.17a113.29,113.29,0,0,0-63-50c-5.52-1.75-8.6,6.73-3.05,8.49Z"/><path class="cls-1" d="M306.43,384A71.75,71.75,0,0,1,323.22,439l8.59-1.58a111,111,0,0,1-17-53.87l-8.58,1.58a118.15,118.15,0,0,1,15,45.94c.64,5.77,9.51,4.11,8.87-1.65a124.35,124.35,0,0,0-15.68-48.13c-2-3.45-8.8-3.38-8.58,1.57a119.72,119.72,0,0,0,17.8,58.4c2.3,3.7,8.05,3.22,8.58-1.58a80.71,80.71,0,0,0-18.87-61.4c-3.77-4.43-10.69,1.37-6.92,5.79Z"/><path class="cls-2" d="M252.48,391.83a103.93,103.93,0,0,1-3.75,73.5l8.68.7a164.34,164.34,0,0,1,2.18-71.5l-8.68-.7a99.38,99.38,0,0,1-1,52.05c-1.62,5.55,6.86,8.64,8.49,3.06a108.46,108.46,0,0,0,1.36-56.76c-1-3.95-7.48-5.37-8.68-.7a174.55,174.55,0,0,0-2.56,76.2c.86,4.58,7,4.7,8.68.7A113.2,113.2,0,0,0,260.64,388c-1.79-5.51-9.94-1.61-8.16,3.84Z"/><path class="cls-2" d="M348.05,354.81a133.61,133.61,0,0,1,43.16,44.89l6.68-5.61A247.8,247.8,0,0,1,353,348.49c-3.53-4.64-10.43,1.18-6.93,5.79a257.42,257.42,0,0,0,46.61,47.19c3.44,2.69,9-1.71,6.68-5.61a143.44,143.44,0,0,0-46.12-48.43c-4.88-3.15-10.09,4.22-5.2,7.38Z"/><path class="cls-1" d="M382.08,315.26a56.4,56.4,0,0,1,28.38,16.55l3.81-7.39a53,53,0,0,1-29-16.66c-3.9-4.3-10.83,1.49-6.92,5.8a63.36,63.36,0,0,0,35.25,19.86c3.83.77,6.29-4.72,3.8-7.4a64.9,64.9,0,0,0-32.25-19.25c-5.58-1.39-8.69,7.08-3.05,8.49Z"/><path class="cls-1" d="M188.78,382.65a71.88,71.88,0,0,1-23.95,52.1l7.4,3.8a111.16,111.16,0,0,1,23.71-51.14L188,383.28a118.59,118.59,0,0,1-19.44,44.18c-3.37,4.74,4,9.93,7.38,5.2a125.17,125.17,0,0,0,20.55-46.33c1.05-4.85-4.53-8.29-7.94-4.12a120.42,120.42,0,0,0-25.33,55.65c-.69,3.87,4.66,6.26,7.39,3.81a81,81,0,0,0,27.15-58.33c.16-5.78-8.83-6.51-9-.69Z"/><path class="cls-2" d="M474.05,270.75a104.73,104.73,0,0,1-74.19-8.44c-.23,2.89-.47,5.79-.7,8.68a163.9,163.9,0,0,1,71.18,7q.36-4.35.7-8.68a99.51,99.51,0,0,1-51.85-4.55c-5.46-2-8.52,6.5-3.06,8.49a108.82,108.82,0,0,0,56.56,4.93c4.34-.77,5-7.28.71-8.68a174.64,174.64,0,0,0-75.89-7.41c-5,.6-4.24,6.86-.7,8.68a112.29,112.29,0,0,0,78.89,8.82c5.6-1.42,4-10.31-1.65-8.87Z"/><path class="cls-2" d="M77.27,278.6a135.49,135.49,0,0,1-60,20.63q1.36,4.26,2.75,8.52A247.36,247.36,0,0,1,80.24,286c5.65-1.25,4-10.13-1.65-8.87A256.9,256.9,0,0,0,16.2,299.59c-4.71,2.42-2.28,9,2.75,8.52a141.21,141.21,0,0,0,62.17-21.34c4.84-3.08,1-11.27-3.85-8.17Z"/><path class="cls-1" d="M73.5,227.68a55.76,55.76,0,0,1-32.71,3.59q.78,4.29,1.58,8.59a53.73,53.73,0,0,1,34.37-4.41c5.69,1.1,6.34-7.91.69-9a61.73,61.73,0,0,0-38.91,5.24c-4.33,2.1-2.66,7.82,1.58,8.58a64.36,64.36,0,0,0,37.25-4.42c5.34-2.31,1.48-10.46-3.85-8.17Z"/><path class="cls-1" d="M96.35,133.73a56.43,56.43,0,0,1-28.73-16l-3.8,7.4a53,53,0,0,1,29.37,16c4,4.21,10.91-1.56,6.92-5.79A63.32,63.32,0,0,0,64.5,116.17c-3.76-.68-6.39,4.72-3.8,7.39a64.77,64.77,0,0,0,32.6,18.66c5.59,1.28,8.71-7.2,3-8.49Z"/><path class="cls-2" d="M5.1,180A104.7,104.7,0,0,1,79.44,187c.24-2.89.47-5.79.71-8.68A164.05,164.05,0,0,1,8.84,172.7c-.24,2.89-.47,5.79-.7,8.68a99.48,99.48,0,0,1,51.94,3.48c5.49,1.88,8.56-6.6,3.05-8.49a108.86,108.86,0,0,0-56.64-3.86c-4.23.83-5.11,7.33-.71,8.68a174.63,174.63,0,0,0,76,6c4.85-.69,4.38-6.89.7-8.68a112.4,112.4,0,0,0-79-7.32c-5.55,1.53-4,10.42,1.65,8.88Z"/><path class="cls-1" d="M99.82,324.33a55.73,55.73,0,0,1-26.26,19.83l5.61,6.68a53.64,53.64,0,0,1,27.27-21.37c5.47-2,1.59-10.11-3.84-8.17a61.61,61.61,0,0,0-30.81,24.34c-2.59,3.94,1.47,8.22,5.61,6.68a64.2,64.2,0,0,0,29.8-22.79c3.41-4.71-4-9.9-7.38-5.2Z"/><path class="cls-2" d="M135.77,357.76a133.94,133.94,0,0,1-40.45,47.3l6.59,6.06a247.89,247.89,0,0,1,40.61-49.44c4.23-4-1.54-10.9-5.79-6.92a256.83,256.83,0,0,0-42.2,51.16,4.53,4.53,0,0,0,6.58,6.06,143.41,143.41,0,0,0,43.15-51.17c2.62-5.16-5.89-8.16-8.49-3.05Z"/><path class="cls-3" d="M298.79,95.66C225.07,65.39,100.43,99.82,96.4,234.54,92.49,364.9,268.14,409.72,339.83,334.81,401.48,270.39,414.87,143.32,298.79,95.66Z"/><path class="cls-4" d="M166.44,212.91c-6.07,6.62-3.7,17.91,4.32,21.94,9,4.52,18.52-3.41,19.27-12.55.84-10.09-10.11-17.48-19.27-13.3-8.67,3.94-8.85,17.23-.31,21.51,10.17,5.08,20.31-9.89,11.91-17.42-1.93-1.73-5.85-1.91-7.08.91-1.86,4.26-1.45,8.68,2,12,1.91,1.85,4.44,1.52,6.38,0a9.17,9.17,0,0,0,2.82-10.42c-1.66-4.22-7.28-5.46-11.15-3.64-7.81,3.68-2.56,16.25,5.34,15.21,2.44-.32,4.49-1.85,4.52-4.51,0-2.2-2.1-4.83-4.52-4.52q-1.25,0-.42.18c.38.18.42.11.14-.2-1,1.09-1.87,1.57-.53,2.57L177.76,218c.42,1.08.43.92-.5,1.64h6.38c-.21-.21-.76-.67-.57-1.09l-7.09.91c.48.43.68.05.44,1.07-.11.47-.49,1.48-1,1.72-1.15.54-1.79-.39-2.14-1.54-1.39-4.63,5.15-4.84,7.17-1.85s-.81,8.73-4.57,8.27c-3.17-.39-5.23-5.47-3.05-7.85,3.92-4.27-2.44-10.67-6.38-6.38Z"/><path class="cls-4" d="M310.45,210.2c-6.71-8.39-19.15-.95-19.11,8.39.05,10.5,11.64,15.66,19.71,9.22,8.41-6.71,5.72-20.41-5-22.94-9.54-2.27-17,9-11.72,17.08,6.63,10.23,23.14-1.19,16.43-10.92-2-3-5.73-2.83-7.79,0a16.56,16.56,0,0,0-2.27,14.9c1.8,5.5,10.51,3.15,8.71-2.4a8.14,8.14,0,0,1,1.35-7.95H303c.57.83.42.06.09.53s-.68.91-1.16.94c-.14,0,.1.22-.14-.2a2.19,2.19,0,0,1-.12-1.16c.35-4.14,5.55-1.13,5.58,1.77s-4.76,6.32-6.49,2.86c-1.14-2.27,1.07-6.54,3.31-3.74,1.53,1.92,4.77,1.57,6.38,0,1.9-1.86,1.51-4.49,0-6.38Z"/><path class="cls-4" d="M215.93,266.07C217,280,228.78,292.15,243.25,291.6s25.24-13.93,25-27.79c-.05-2.9-4.57-2.91-4.52,0,.2,11.47-8.54,22.64-20.49,23.27s-21.92-9.58-22.81-21c-.22-2.87-4.74-2.9-4.51,0Z"/><path class="cls-5" d="M146.17,262.94a15.66,15.66,0,0,0,7.25,22.42c9.13,3.76,20.49-1.55,23.64-10.89,3.44-10.2-4.53-19.48-14.65-20.54s-20.34,6.86-19,17.7c1.14,9.58,11.54,15.31,20.36,12s14.74-16.15,4.89-22.06c-6.28-3.78-22.39-1.57-19.18,8.94,2.51,8.16,16.58,7.64,19.29,0,4-11.36-16.33-12.73-16.17-.66a8.23,8.23,0,0,0,9.67,7.88c5.43-.84,8.09-5.9,7.94-11-.1-3.37-4.31-5.33-6.78-2.81a14.35,14.35,0,0,0-4.29,10.53c0,5.11,7.95,5.12,7.94,0a6.08,6.08,0,0,1,2-4.91l-6.78-2.81c.54,1.94-.25,2.51-2.35,1.7-1.69.47-2.19.37-1.5-.28.46-1.4,4.37-.61,5.28-.08,5.48,3.16-1.28,8.65-5.13,8.7-10.35.14-8.57-14.27,1-14.95,4.06-.28,9.34,1.79,10.34,6.25.9,4-2.29,8.11-5.79,9.66-7,3.08-15.7-3.26-11.08-10.76,2.69-4.36-4.17-8.36-6.85-4Z"/><path class="cls-5" d="M333.07,251.5c-12.77-3.19-24.15,11.39-15.2,22.33s25.78,2.51,28.65-9.51c1.4-5.9-1-12.12-6.61-14.75-4.77-2.25-13.23-2.57-18,0-11.7,6.44-7.4,25.73,4.38,29.2s23.37-9,16.36-20.13c-7.26-11.48-24.29-4.07-24.59,8.23-.35,14.42,21.73,8.65,21.26-3.4-.21-5.45-5.72-9.46-11-8.44-5.49,1.07-8.3,7.08-6.47,12.18,2,5.66,9.58,7.5,13.64,2.93,3.47-3.9,5.53-13-1.75-14-5.8-.79-11.3,7.12-8.68,12.38A5.37,5.37,0,0,0,332,271c3.23-1.34,4-4.49,4.27-7.7.26-3.51-5-4.75-6.56-1.77a11.12,11.12,0,0,0,0,11.31c2.17,4,8.25.43,6.08-3.56a3.51,3.51,0,0,1,0-4.2l-6.56-1.78.54,1,2.11,1.61c-.57-.74,1.44-2.26-.22-2.75,0,0-1.18,2.58-1.72,2.63-1.26.1-2-2.16-1.18-3.08,2.15-2.33,3.93.92,3.15,2.72-.87,2-5.53,4.58-6.73,2.25s2.55-6.51,4.5-7.21c5.91-2.13,10.15,4.52,6.74,9.4-3.55,5.08-11.26,2.28-13.35-2.57a10.58,10.58,0,0,1-.09-8c1.35-3.51,4-4,7.37-4.08,2.52-.06,6-.22,8,1.69,2.47,2.38,1.67,6.22.06,8.8-2.92,4.69-9.81,9.18-14.65,4.26-5.37-5.47.89-13.22,7.47-11.57,4.4,1.1,6.28-5.69,1.88-6.79Z"/><path class="cls-1" d="M181.49,163.37a14.17,14.17,0,0,0-9.93,7.71,2.28,2.28,0,0,0,1.95,3.39,28.12,28.12,0,0,0,14.84-4.85c2.77-1.93,6.85-5.9,4-9.47-2.58-3.23-8.21-1.34-11.26.07a20.11,20.11,0,0,0-9.52,9.36,2.28,2.28,0,0,0,1.94,3.4,23.52,23.52,0,0,0,16.28-7.36,2.29,2.29,0,0,0-1.6-3.85,11.88,11.88,0,0,0-9.93,3.54c-2.07,2.05,1.12,5.24,3.19,3.19a7.73,7.73,0,0,1,6.74-2.22l-1.59-3.85a18.79,18.79,0,0,1-13.09,6l2,3.4a16.17,16.17,0,0,1,4.31-5.56c1.57-1.27,5.17-3.7,7.35-3.24,3,.63-3.22,4.07-4.44,4.66a23.74,23.74,0,0,1-9.17,2.24l2,3.39a10,10,0,0,1,7.23-5.63c2.84-.6,1.64-4.95-1.2-4.35Z"/><path class="cls-1" d="M292.35,162a22.25,22.25,0,0,0-8.73-.89,2.34,2.34,0,0,0-2.18,1.65c-1.59,7.71,9.05,10.78,14.74,11.86,2.64.5,6.28,1.17,7.39-2.07,1-3-1.42-5.69-3.53-7.43a26,26,0,0,0-9.8-5.05c-2.69-.72-7.67-2-9.28,1.27-3.29,6.63,11.34,9.89,15,10.88,2.8.76,4-3.59,1.2-4.35-3.67-1-7-2.63-10.61-3.79-1.16-.38-1.68-.37-.49-.22a23,23,0,0,1,3,.56,21.31,21.31,0,0,1,5.07,2.08c1.41.8,3.48,1.92,4.39,3.29.67,1,.6.43,0,.68s-2.31-.44-2.88-.57c-2.19-.53-10.58-2.47-9.86-5.94l-2.18,1.66a19,19,0,0,1,7.53.73c2.78.84,4-3.51,1.2-4.35Z"/><path class="cls-6" d="M173.17,220.79a2.79,2.79,0,0,0-.44,4.44c1.49,1.29,3.67.18,4.55-1.28s.69-4.09-1.45-4.29a2.88,2.88,0,0,0-3,3.46,1,1,0,0,0,2-.55A.58.58,0,0,1,175,222c.23-.21.42-.13.67-.22.08,0-.06-.19,0,0s.07.23.08.38a1.6,1.6,0,0,1-.3.92c-.22.32-.88,1-1.34.72s-.23-.94.1-1.12c1.17-.64.13-2.43-1-1.79Z"/><path class="cls-6" d="M300.46,217.72c.05,1,.11,2,.16,3,0,.5.45,1.1,1,1a3.55,3.55,0,0,0,2.87-2,1.72,1.72,0,0,0,0-1.84,2.28,2.28,0,0,0-1.2-.86,2.79,2.79,0,0,0-3.65,3c.24,1.3,2.24.75,2-.55a.89.89,0,0,1,.05-.13.84.84,0,0,1,.48-.29c.43-.14.6-.07.73.2,0-.27-.07-.53-.11-.8a1.44,1.44,0,0,1-1.12,1.2l1,1c-.06-1-.11-2-.16-3-.07-1.33-2.14-1.33-2.07,0Z"/></g></g></svg>