<svg xmlns="http://www.w3.org/2000/svg" viewBox="0 0 423 741.61"><defs><style>.cls-1{fill:#b5d6e7;}.cls-2{fill:#94b7ed;opacity:0.75;}.cls-3{fill:#14242b;}.cls-4{fill:#95c1eb;}.cls-5,.cls-7{fill:#fff;}.cls-6{fill:#68a8db;}.cls-7{opacity:0.47;}.cls-8{fill:#e0acd6;}</style></defs><g id="Layer_2" data-name="Layer 2"><g id="Слой_2" data-name="Слой 2"><path class="cls-1" d="M325.93,319.18q19-8.82,38-17.66c21.62-10.07,43.88-23.81,52.89-47.08,10.06-26,2.25-58.4-21.7-73.95-7.39-4.8-22.07-2.77-29.93-4.09-1.56-.26,4.59-6.76,5.32-8.17.91-1.77,1.76-3.59,2.53-5.46,8.52-20.78,8.92-49.14-4.29-68.16-15-21.62-40.85-19.67-62.42-9.1-4.22,2.07-8.44,4.39-12.55,6.94a2.33,2.33,0,0,1-3.55-2.21,92.12,92.12,0,0,0-4.3-38.69c-4.7-13.69-14.18-25-27.54-30.8s-28.87-8-43.12-10.25c-26.37-4.08-56-1.12-79,13.22S100.11,59.9,97.43,87.16c-.87,8.8,2.12,22.25,3.64,31,.21,1.22-5.95-1.2-7.14-.9-29.21,7.53-56.74,24.12-61.44,53.95A67.11,67.11,0,0,0,45.27,221.4l9.89,11.53a2.34,2.34,0,0,1-1.75,3.82s-22.63,3.44-29.21,7.06C7.09,253.23,1.87,274.93,5.79,296.6c4.46,24.58,22.21,37.28,45.93,40a102.66,102.66,0,0,0,13.25.52,2.33,2.33,0,0,1,2.22,3.17c-4.28,11.11-6,22.91-3.73,35.1,3.92,21,18.4,32.65,39.47,32,1,0,2.07-.07,3.1-.12a2.34,2.34,0,0,1,2.35,3c-5.27,19.11-.83,41.25,13.52,55.09,13.38,12.9,34.06,17.24,52.06,18.07a74.8,74.8,0,0,0,15.54-.83,2.34,2.34,0,0,1,2.65,2.95c-6,21.27.69,48,23.53,55.4,10.54,3.39,22.42,3.25,34.21,1.85,0,.23,0,.47,0,.69.28,11.38,5.63,25.6,18.56,26.76a147.78,147.78,0,0,0,20.82.38,2.34,2.34,0,0,1,2.36,1.59,22.56,22.56,0,0,1,1,6.91c0,3.52-4.18,10-7.8,14.93-11.67,16-22.5,29.44-27.09,49.22A88.18,88.18,0,0,0,255.53,662c0,.12,0,.24,0,.36a67.72,67.72,0,0,0,5.72,21.52c4.5,9.5,11.82,17,19,24.53,6.95,7.29,14.41,14.51,18.38,23.93a39.57,39.57,0,0,1,2,6.37,3.9,3.9,0,0,0,1.86,0c.6-6.58-.47-13-3.52-20.15-4.1-9.69-8.58-19.2-8.27-30,0-.68.06-1.34.12-2a38.94,38.94,0,0,1,2-12c3.31-9.56,11.28-16.37,19.32-22.07,9.7-6.86,21.1-12.5,31.56-18.2,24.52-13.34,43.69-34,46-63,1-12.2.16-26.16-5.56-37.43a2.35,2.35,0,0,1,.44-2.78c16.43-16.08,23.25-38.71,13.78-61.26a47.77,47.77,0,0,0-7.62-12.55c-.68-.81-2.5-3.14-1.93-4a108.93,108.93,0,0,0,7.29-12.74c9.61-22.56,7.48-48.19-10.13-66.31-12.35-12.71-30.62-15.79-47.62-16.45l-1.37,0a2.35,2.35,0,0,1-2.27-2.57A48.53,48.53,0,0,0,334,340c-1.53-7.35-4.57-12.88-8.72-17A2.35,2.35,0,0,1,325.93,319.18Z"/><path class="cls-2" d="M60.09,239.24S7.27,273.85,32.77,297.53s82,3.64,82,3.64S77,344.53,89.23,361.27c20,27.33,89.55-11.23,89.55-11.23s-71.33,67.7-33.08,91.38,93.8-.31,93.8-.31S204,494.23,220.37,507s49.48-1.51,49.48-1.51-14.87,28.84,1.52,36.12,43.71,5.47,43.71,5.47-31,34-50.08,17.91-16.8-31.35-16.8-31.35-26.61,17.08-42.7-.23-16.09-46.44-9.72-54.64c0,0-49.48,18.52-68-4.85s-21.56-53.73-14.58-66.79c0,0-29.44-.91-41.28-17,0,0-14.87-28.84-6.07-42.5s-27.63-2.73-40.38-15.48-34-50.39-17.91-70.73S60.09,239.24,60.09,239.24Z"/><path class="cls-3" d="M212.93,303.9c1.77-9.06,4.93-20.87,15.68-22.5,10.41-1.57,17.38,9.88,20.49,18.4,1.06,2.9,5.44.94,4.38-1.95-3.74-10.28-13-23.68-25.63-21.49-13,2.24-17.49,15.73-19.68,27-.6,3,4.17,3.58,4.76.57Z"/><path class="cls-4" d="M281.72,112.38c18.9-18.34,51.44-34.77,74.62-13.92,22.3,20,8.7,58.7-5.27,79.3-1.19,1.76-.39,9.58,3,7.35,16.13-10.56,23.38-24.7,27.79-43.37,4.54-19.23,1.18-42.21-11.34-58-11.72-14.8-30.8-18.8-48.69-15-20.73,4.4-34,19.35-43.6,37.22-1.1,2.06.11,9.7,3.47,6.44Z"/><path class="cls-4" d="M339.69,194.62c.81,0,.77-1.82,0-1.82s-.77,1.82,0,1.82Z"/><path class="cls-4" d="M387.68,458.72c1.61,0,1.54-3.64-.09-3.64s-1.54,3.64.09,3.64Z"/><path class="cls-4" d="M313,593.52c17.46-12.31,34.66-25.19,51.51-38.34,13.61-10.62,27.65-21.71,36.78-36.66,13.25-21.68,12-57.26-11.14-72.25-6.37-4.13-9.16,9.06-4.32,12.15,10.15,6.48,15,18,15.07,29.85.15,14.3-8.3,26.32-17.84,36.27-10.4,10.86-22.42,20.22-33.73,30.11-12.88,11.27-25.62,22.93-38.06,34.69-1.39,1.32-.52,5.77,1.73,4.18Z"/><path class="cls-4" d="M302,738.8c5.43-20.34-7.94-37.74-5.94-57.71,2.52-25.18,35.05-33,52.91-44.32,32.85-20.73,59.54-65.85,36.52-103.57-4.5-7.37-9.21,4.57-7.36,9.08,9.09,22.14,4.63,44.37-11,62.54-14.55,16.88-34,24.72-52.47,36.2-14.29,8.91-26.1,21.83-26.9,39.43-.91,19.73,11.75,37.24,10.62,56.95-.13,2.23,2.87,4.35,3.65,1.4Z"/><path class="cls-4" d="M103.89,119.78c1.89-22-1.47-44.7,7.44-65.66,10.84-25.45,41.88-35.11,67-38.59,27-3.73,59.26-2.25,83.6,11.3C289.17,42,285.25,71.55,281,97.77c-.68,4.24,3.63,9.39,6.24,3.79,9.08-19.43,10.14-44.44.54-64C277,15.53,253.77,6.9,231,2.78,188.6-4.89,120.77,1.15,102.92,48.5c-4.2,11.14-5.75,23.23-6,35.08s.15,24.9,3.18,36.29c.66,2.48,3.53,2.85,3.78-.09Z"/><circle class="cls-5" cx="174.84" cy="237.42" r="22.77"/><circle class="cls-3" cx="174.84" cy="237.42" r="11.84"/><path class="cls-5" d="M163,232a6.38,6.38,0,1,1,6.37,6.37A6.38,6.38,0,0,1,163,232Z"/><path class="cls-5" d="M245,228.31a22.77,22.77,0,1,1,22.77,22.77A22.76,22.76,0,0,1,245,228.31Z"/><path class="cls-3" d="M255.89,228.31a11.84,11.84,0,1,1,11.84,11.84A11.84,11.84,0,0,1,255.89,228.31Z"/><path class="cls-5" d="M255.89,222.85a6.38,6.38,0,1,1,6.37,6.37A6.37,6.37,0,0,1,255.89,222.85Z"/><path class="cls-3" d="M247.6,188.44c3.62-.69,6.62-2.87,9.61-4.94a103.58,103.58,0,0,0,9.26-6.73c5.23-4.56,1.42-20.62-6.09-14.78a104.11,104.11,0,0,0-8.23,7.63c-2.73,2.64-5.69,5.49-7.53,8.84a8.25,8.25,0,0,0-.65,6.45c.44,1.35,1.76,3.89,3.63,3.53Z"/><path class="cls-3" d="M188.74,182c-1.88-3.34-4.93-6.18-7.67-8.83a106.58,106.58,0,0,0-8.26-7.64c-3.2-2.49-6.49,0-7.68,3.29-1.35,3.72-.81,9,2.32,11.77a99.16,99.16,0,0,0,8.72,6.36c2.67,1.86,5.8,4.36,9.05,5,5.39,1,5.25-6.86,3.52-9.94Z"/><path class="cls-6" d="M212.66,465.76c-34,11.72-33.87,63.65-3.32,79.37a35.88,35.88,0,0,0,45.21-10.63c6.86-9.23,12.53-18.58,20.88-26.67a126.46,126.46,0,0,1,27.71-20.59c1.73-.94,1.26-5.65-1-4.69C288.74,488.26,276.45,495.79,266,506c-10.7,10.39-18.11,25.4-34.12,28.15A30.86,30.86,0,0,1,197.15,514c-5.67-16.54,5.26-32.25,17.19-42.69,1.54-1.35,1.09-6.48-1.68-5.52Z"/><path class="cls-4" d="M329.65,364.58c8.06,2.16,17.12-.24,25.5.92a53.37,53.37,0,0,1,27.58,12.16c15.59,13.6,19.69,35.22,8.91,53-10,16.57-26.62,27.9-41,40.38-12.39,10.77-27,24.5-29.9,41.45-.33,1.91,1.59,5.6,3.44,2.91,6.79-9.89,12.54-18.9,21.77-26.88,8.67-7.48,18.26-13.8,27.27-20.85,16.8-13.13,31.89-30,34-52.18,1.86-19.45-6.62-39.94-22.14-51.95-13.46-10.43-41.87-19.28-56.24-6.09-1.6,1.47-1.84,6.41.78,7.11Z"/><path class="cls-4" d="M307.51,546c.4,0,.38-.91,0-.91s-.38.91,0,.91Z"/><path class="cls-6" d="M251,527.23c-14,15.16-6,40.81,13.8,46.18,25,6.76,47.48-14.94,63.07-31.49,1.34-1.42,1.23-7.1-1.77-5.84-15.58,6.57-27,20.58-44.42,23.54s-36.71-7.94-27.52-27.83c.75-1.63-.88-7-3.16-4.56Z"/><path class="cls-6" d="M286.56,566.18c-2.5,15.88-8.95,27.59-17.61,41-8.11,12.53-15.81,25.74-16.91,41-1.23,17.06,5.49,33.32,14.77,47.3,5,7.51,11.07,13.93,16.78,20.86,6.22,7.56,9.8,14.79,13.13,23.93.89,2.46,3.48,1.37,3.73-.84,1.71-15.1-9-28.88-17.43-40.31-11.36-15.37-25.21-33.4-21.11-53.8,5.35-26.65,39.07-49.67,30.27-79.2-1.11-3.74-4.94-4.18-5.62.13Z"/><path class="cls-6" d="M99.52,308.05C77.83,322.23,57,341.85,59.44,370.22c2.24,26.18,23.75,46.13,50.24,44.69,5.91-.32,5.58-13.52-.33-13.31-20.72.73-41.36-13.67-41.85-35.78s18.27-40.25,33.07-54.31c.87-.83.44-4.44-1-3.46Z"/><path class="cls-4" d="M114.7,123.1c-28.5-23.85-71.1,2.18-83.81,31.19-6.69,15.27-7,32.88-2.23,48.73A71.29,71.29,0,0,0,40,225.66c4.07,5.29,10.91,14.31,18.11,14,4.19-.19,3.59-6.69,2.23-9.1-3.32-5.91-9.79-9.68-13.93-15.2a58.57,58.57,0,0,1-8.75-16.51c-4.48-13.38-3.7-28.12,3.15-40.55,14-25.41,45.15-34.89,72.43-29.44,2.93.59,3.13-4.35,1.45-5.76Z"/><path class="cls-6" d="M257,423.61c-32.26,25.5-67,71.76-113.49,52.77-18.26-7.46-32.54-26.55-30.84-46.84,1.76-21.07,18.68-37.9,33.54-51.17,1.8-1.6.87-8.54-2-6.72-18.94,12-36.06,29-39.58,52-3.25,21.32,5.81,44,22.77,57.3,18.79,14.77,45.41,16,66.55,5.61,11.21-5.52,20.55-14.15,29.54-22.68,12.07-11.45,24.2-23,35.72-35,1.64-1.7.57-7.48-2.18-5.3Z"/><path class="cls-6" d="M211.59,349.32c13.5,7.84,30.44,7.79,44.34.73,10.89-5.54,22.21-16.52,23.91-29.07.27-2-1.63-7.94-4.46-5-3.15,3.32-4.94,7.45-7.69,11.07a49.4,49.4,0,0,1-15.1,13c-12.53,7-26.49,7.16-40.25,4.38-2.55-.51-2.45,3.87-.75,4.85Z"/><path class="cls-4" d="M354.05,186.49c14-6.29,34.27-.65,45.31,9.25,13.93,12.51,16.56,33.45,10.55,50.51-13.36,37.9-56.09,53.84-91.3,64-4.89,1.41-3.78,10.59-.81,13.18,9.13,7.94,13.46,19.72,9.86,31.54-.91,3-1,8.22,2,10.23,2.79,1.83,5.78.34,6.69-2.86,5.3-18.63.53-38.39-14.11-51.45q-.39,6.58-.8,13.17c43.47-11.84,94.48-34.53,100.94-85.29,2.49-19.55-2.64-41.14-17.65-54.74a47.81,47.81,0,0,0-24.92-11.73c-10.37-1.54-18.55,1.94-27.21,7.3-2.4,1.47-1.9,8.42,1.43,6.93Z"/><path class="cls-4" d="M326.71,295c25.46-8.69,49.81-26.67,58.13-53.46,3.41-11,6.06-25.76-2.15-35.3-9.21-10.72-25.42-8.37-36.58-2.31-2.28,1.24-2.58,7.94.86,7.59,10.43-1.08,25.89-5.19,31,7.26,4,9.73-2.38,24.17-7.27,32.92-9.87,17.69-27,30.21-44.87,39-1.65.81-1.23,5,.89,4.32Z"/><path class="cls-4" d="M334.79,387.93c8.58,0,19.68.18,25,7.89,6.68,9.74-.87,20.78-7.35,28.38-9.38,11-23,20.43-25,35.84-.15,1.14,1.12,3.83,2.26,1.91,6.8-11.39,15.8-18.39,25.79-26.79,8.33-7,14.55-15.3,15.83-26.36,1.06-9.14-1.35-19.5-9.82-24.36-8.63-4.94-18.21-2.92-27.14-.13-1.34.42-1.09,3.63.41,3.62Z"/><path class="cls-4" d="M278.6,410.27c5.76,1.49,12.7-2.5,17.21-5.85,5.36-4,10-10,10-16.93,0-2.41-1.84-5.42-4.39-3.65-2.06,1.43-3.15,3.93-4.51,6a38.77,38.77,0,0,1-5.22,6.35c-4.09,4-9.26,5.5-13.66,8.86-1.3,1-1.27,4.76.58,5.24Z"/><path class="cls-7" d="M106,143.19a14.37,14.37,0,0,0-9.06-4,4.64,4.64,0,0,0-1.62-.55C75.18,136.1,56.86,150.15,52.46,170c-2.12,9.54-1.12,21.79,6.48,28.82,7.85,7.25,18.83,4.16,27.18-.63a56.06,56.06,0,0,0,21.5-21.6C112.94,166.8,114.73,151.73,106,143.19Z"/><path class="cls-7" d="M168.68,35.07c-6.91-6.68-18.43-3.11-25.59,1.35a35.08,35.08,0,0,0-6.92,5.64A41.08,41.08,0,0,0,121.09,64c-2.61,8.83-2.17,21.29,5.26,27.85,7.81,6.91,17,.17,23.78-4.66,7.81-5.55,15.75-12.74,20.74-21C176.34,57.05,176.75,42.87,168.68,35.07Z"/><path class="cls-7" d="M116.31,250.65c-.39-3.28-3-8.56-6.56-9.48-9.29-2.41-19.66-.31-26.4,5.81a26,26,0,0,0-10.25,5.81c-8,7.5-7.64,24,2.59,29.4,8.17,4.33,18.37.3,25.71-3.93C112.67,271.77,117.94,264.19,116.31,250.65Z"/><path class="cls-7" d="M339.12,105.48c-5-2.93-12.19-4.84-18-3.58-9.43,2-12.7,13-12.75,21.52-.07,8.8,3.8,18.28,10.94,23.65,4.17,3.14,9.82,5.23,14.64,4.24a12.29,12.29,0,0,0,10.83-3.67C356.41,136,353,113.54,339.12,105.48Z"/><path class="cls-8" d="M153.89,291.15a14.57,14.57,0,1,1,14.57,14.57A14.57,14.57,0,0,1,153.89,291.15Z"/><path class="cls-8" d="M275.92,276.58a14.58,14.58,0,1,1,14.58,14.57A14.57,14.57,0,0,1,275.92,276.58Z"/><path class="cls-6" d="M70.86,234.21C63.44,234,56.44,233,49,234.28a72.93,72.93,0,0,0-20.17,6.32C18.08,246,8.8,254.49,3.77,265.52c-11.13,24.4,3.9,55.09,25.42,68.46,13,8.08,29.16,10.64,43.88,6,2.68-.86,1.86-7.28-1.34-6.49-23.92,5.9-48.29-6.22-60.14-27.38-6-10.78-9-23.77-4.11-35.52,4-9.72,12.46-17.62,21.75-22.31a75.93,75.93,0,0,1,20-6.57c7.11-1.34,14.55-3.2,21.77-3.6,1.72-.1,1.62-3.82-.1-3.87Z"/><path class="cls-6" d="M261.15,139c22.13-15.36,35.25-47,29.67-73.32-5.67-26.71-29.16-49.49-57.75-45.5-25.59,3.57-47.62,26.42-44.81,53.17,1.36,12.89,9.51,23.46,22.51,26,11.76,2.33,25.32-2,31.32-12.95,5.67-10.27,2.49-25.43-8.32-31.07-12.34-6.43-24.4,4.42-24.91,16.77-.14,3.3,3.26,4.1,4.09.74,5.2-20.81,38.09-2.66,19.72,11.6-10.1,7.84-29.4,5.51-34.59-7.16-9-21.87,18.09-40.89,36.51-43.06,22.71-2.67,42.53,13.4,47.65,35.28,5.47,23.39-7.39,49.07-22.51,66-1,1.12-.5,4.79,1.42,3.45Z"/></g></g></svg>