<svg xmlns="http://www.w3.org/2000/svg" viewBox="0 0 352.59 398.72"><defs><style>.cls-1{fill:#95c1eb;}.cls-2{fill:#719cbc;}.cls-3{fill:#6093b1;}.cls-4{fill:#c8e7f9;}.cls-5{fill:#92d3f2;}</style></defs><g id="Layer_2" data-name="Layer 2"><g id="Слой_2" data-name="Слой 2"><path class="cls-1" d="M128.75,90.23S63.21,57.06,65.86,26.32C68,1.58,87-5.67,101,4.37c17.86,12.79-3.11,35.29-3.11,35.29s5.86-25.34-10.26-24.78c-19.41.67-6.82,33,7.45,45.23C113.51,76,128.75,90.23,128.75,90.23Z"/><path class="cls-2" d="M234.11,360.82s-41.33-19.31-86.61-14c-74.65,8.7-95.46-58-70.33-93s64.21-20.63,72.49,9.25-22.81,42.7-40.3,30.14S107.79,263,107.79,263s-.9,15.21,12.71,17.87,19.42-21.6,1.66-29.36C105.06,244,68.63,267,92,305.1c18,29.43,50.15,17.25,73,22.26C191.11,333.06,221.66,344,234.11,360.82Z"/><path class="cls-3" d="M352.59,372.59S249.44,329.9,249.9,283c.37-37.75,28.3-50.92,50.7-37.33,28.54,17.31-.63,53.84-.63,53.84s5.94-39.07-18.42-36.37c-29.33,3.26-6.52,50.74,16.53,67.69C327.84,352.73,352.59,372.59,352.59,372.59Z"/><path class="cls-4" d="M264.92,238.48s-16.91-70.1-67.8-105.94c-59-41.54-13.36-95.3,11.19-76.36s10.41,38.19-5,33.93-19-11.92-19-11.92C187,92.53,194,117.85,226.65,108.1c31.62-9.45,16.93-64-10.78-74.06-21.2-7.72-60.93-3.78-68.43,35.65-5.69,29.92,17.68,62.82,51.07,89.72S264.92,238.48,264.92,238.48Z"/><path class="cls-5" d="M315.23,398.72S218,375.13,189.82,253.66s-104.5-137-133.6-119.37c-34.67,21-25.56,75.94,17.52,70.24,30.45-4-.17-49.25-.17-49.25s41.2,3.74,39,38.39c-2.17,35.05-44.76,46.11-72.33,34.06S-4.23,181.21.92,150.63,51.62,79,105.7,101.36c54.45,22.5,74.2,42.13,99.7,127.91,24.24,81.57,21.15,83.11,51.53,116.9S315.23,398.72,315.23,398.72Z"/></g></g></svg>