<svg xmlns="http://www.w3.org/2000/svg" viewBox="0 0 224.24 193.01"><defs><style>.cls-1{fill:#68a8db;}.cls-2{fill:#95c1eb;}.cls-3{fill:#b5d6e7;}</style></defs><g id="Layer_2" data-name="Layer 2"><g id="Слой_2" data-name="Слой 2"><path class="cls-1" d="M15.11,190.76s-32-51.28-2.81-93.16C34.45,65.85,68,66.38,68,66.38s-31.93-34.46-1-57.86c36-27.22,68.93,17.27,67.55,42.76-1.19,22-11,42.11-54.46,49.63S29,122.09,21.42,134.32C9.93,152.8,15.11,190.76,15.11,190.76Z"/><path class="cls-2" d="M27.58,193s-8.89-51.64,35.77-67,97.46,17.57,117.44-11.37a37.18,37.18,0,0,1-27.56-16.53c-7.89-12.1-7.58-33.76,14.48-45.28,35.31-18.45,67.34,29,53,67.32-7.45,19.93-26.33,45.27-81.77,37.66-24.58-3.38-40-17.06-73.44-5.27C34.21,163.62,27.58,193,27.58,193Z"/><path class="cls-3" d="M15.11,190.76s-18.27-48.06,4-73.65,46-25.18,77.66-33.45c34-8.87,30.16-50.87,13.78-63.38C95.3,8.65,68.69,15.15,67.8,34.74,67.11,49.9,79.59,60.4,91.23,56.1c0,0-18.52-15.23-6.41-24.72,13.3-10.41,31.26,17.2,17.43,30.23S61.94,72.29,34,87.79C9.24,101.57,4.6,124.16,3.62,138.7S15.11,190.76,15.11,190.76Z"/><path class="cls-1" d="M27.58,193s-1-42.37,35.24-56.91,62,8.26,97.37,2.66,44.18-32.52,37.72-49S174,68.81,171.35,82s11,15.1,11,15.1-22,8.8-24.46-10.84,18.36-28.07,32.27-23.18,33.29,42.7,16.17,63c-18.37,21.75-31,28.28-69.59,23.75s-42.77-13.14-68.23-5.59C36.23,153.77,27.58,193,27.58,193Z"/></g></g></svg>