<svg xmlns="http://www.w3.org/2000/svg" viewBox="0 0 193.53 194.11"><defs><style>.cls-1{fill:#9f7ecf;}</style></defs><g id="Layer_2" data-name="Layer 2"><g id="Слой_2" data-name="Слой 2"><path class="cls-1" d="M192.1,165.06c-14.37,18-39,27.06-61.41,20.39-20.52-6.1-39.17-25.57-39.45-47.77-.13-10,3.31-20.3,10.62-27.32a25.46,25.46,0,0,1,26.7-5.76c7.51,2.7,16.64,9.46,17.05,18.21.45,9.58-9.73,16.19-17.64,18.83-9.77,3.27-20.39,3.13-30.46,1.57-11.09-1.72-22.05-5.28-31.47-11.49s-17-15.34-19.61-26.48a39.85,39.85,0,0,1,6.88-32.66,44.53,44.53,0,0,1,28.25-16.8c6.93-1.16,26-2.29,24.85,9.22-.56,5.4-6.39,9.41-10.72,11.77A68.78,68.78,0,0,1,80.3,82.59a85.52,85.52,0,0,1-31.65,2.32C29.9,82.65,8.78,71.75,4.56,51.72,1.32,36.36,8.63,18,23.1,11A32.23,32.23,0,0,1,34.62,8c2.48-.19,2.49-7.84,0-8C13.59-1,1.57,21.4.18,39.69c-.79,10.37,1,21.07,6.57,30,6.17,9.91,16.66,17,27.59,20.61a78,78,0,0,0,36.47,2.76c11.71-1.79,26.54-5.51,34.47-15,6.24-7.45,7.72-24.52-3-29.11C91,44.14,75.72,47.52,65.49,53.37,42.33,66.61,35.34,98.94,48.4,121.7c12.51,21.81,41.4,31.49,65.45,30.09,10.56-.62,22.27-3.72,29.3-12.18a26,26,0,0,0,2.08-29.55A31.12,31.12,0,0,0,118.79,95.6c-11.31.22-20.46,8.34-25.44,18-11.5,22.29-3.63,50,14.49,66.07a57.59,57.59,0,0,0,72,3.45,54,54,0,0,0,13.33-13.73c.71-1.05.2-6-1.11-4.31Z"/></g></g></svg>