<svg xmlns="http://www.w3.org/2000/svg" viewBox="0 0 159.25 178.44"><defs><style>.cls-1{fill:#95c1eb;}</style></defs><g id="Layer_2" data-name="Layer 2"><g id="Слой_2" data-name="Слой 2"><path class="cls-1" d="M15.12,114.59C4.87,124.57-1.72,138.4.39,152.94c1.75,12,10.78,22.49,22.83,25,14,2.92,25.05-7.82,28.83-20.57,2-6.72,2-14.6-2.06-20.6-3.17-4.75-9.11-8.33-15-7.54-6.49.88-10.07,6.59-10.29,12.79-.18,5.24,2.1,12.21,8.34,11.93,2.72-.13,2-4.73.36-5.72-2.42-1.46-4.19-4.32-3.27-7.15,1.22-3.73,5.75-4.59,9.14-3.69,11.85,3.16,9.56,16.63,4.09,24.47-5.34,7.67-13.93,10.67-22.75,7.4-8-3-14.3-9.87-15.66-18.4C3.16,139.24,9.32,127,16.73,118.49c1.13-1.3.22-5.68-1.61-3.9Z"/><path class="cls-1" d="M62.83,34.58A33.27,33.27,0,0,0,72,56.37,35.29,35.29,0,0,0,94,67.43c16.61,1.71,33.1-10.41,37.62-26.25C135.84,26.3,129.72,5.87,113.53,1,99-3.44,82.63,7.82,83.13,23.4c.26,7.86,5.35,14.65,12.34,18,6.63,3.16,15.93,2.9,19.65-4.38.7-1.37.64-7.1-2.3-5.59-4.28,2.2-8.35,3.71-13.2,2.28C95.4,32.44,90.74,29.41,89.33,25c-1.56-4.89,2.29-9.76,6-12.49a21.07,21.07,0,0,1,16.19-3.85C124,11.26,130.29,26.41,127,37.85,123.28,50.58,110.33,60,97.19,60.18c-14.71.25-29.32-11.67-32.62-26-.33-1.47-1.82-1-1.74.41Z"/><path class="cls-1" d="M95.94,120.09a27.42,27.42,0,0,1-.79,3.42,15.85,15.85,0,0,0,.47,5.21,31.83,31.83,0,0,0,4,10.22,35.58,35.58,0,0,0,16.55,14.28c13.5,5.64,27.82.45,36.17-11.15s9.66-28.19,1.18-40c-4.4-6.12-11.22-10.78-18.85-11.41-7.16-.59-14.16,3.39-18,9.32-4.59,7-4.24,16.64,1.61,22.82,5.19,5.48,13.25,7.23,19.47,2.53,2.25-1.71.8-9.27-2.23-7.35-4.26,2.7-9.71,1.7-13.38-1.59-3.91-3.52-3.57-8.14-.2-12,8.68-9.92,23.1-5.19,29.23,4.9,5.43,9,3.13,20.21-3,28.21-6.63,8.68-17.67,12.77-28.24,9.51a31.67,31.67,0,0,1-15.56-10.81A29.94,29.94,0,0,1,99.78,128c-.48-1.37-.73-2.76-1.09-4.16s-1-2.09-1-3.47-1.63-1.86-1.73-.31Z"/></g></g></svg>