<svg xmlns="http://www.w3.org/2000/svg" viewBox="0 0 134.61 172.85"><defs><style>.cls-1{fill:#b5d6e7;}</style></defs><g id="Layer_2" data-name="Layer 2"><g id="Слой_2" data-name="Слой 2"><path class="cls-1" d="M31.37,5.85C45.59,14.9,59.89,26,68.55,40.73c4,6.82,6.54,14.48,6.27,22.45-.25,7.27-3,14-6.65,20.22C61,95.52,50.61,105.68,45.09,118.78a37,37,0,0,0,7.21,40.47c24.82,26.63,71.14,11.45,80.79-22.09,4.44-15.41-1-31.43-14.35-40.45-12.69-8.56-30.84-6.73-38.2,7.93a23.48,23.48,0,0,0,1.27,23.08c3.93,6.28,11.22,11.4,19,10,12.69-2.35,17.06-22.58,4.9-28.6-3.56-1.76-6.71,3.59-3.13,5.36,9,4.47,2.33,19.84-7.36,16.78-5.84-1.85-9.79-8-10.75-13.78-1.12-6.8,2.53-13.63,8.28-17.23,11.89-7.45,26.7,1.66,32.59,12.58,7.32,13.58,1.32,30.28-8.91,40.54-10.72,10.74-27.16,16.31-42,12.31C61.39,162.16,49.48,150.7,48.13,137c-1.2-12.14,5.71-22.72,12.53-32.09,7.07-9.72,15-19.26,18.58-31C89,41.91,58.36,15.68,34.5.5,31.13-1.65,28,3.71,31.37,5.85Z"/><path class="cls-1" d="M22,21.46c9.25,4.37,17.56,11.61,21.48,21.25C47,51.42,46.18,62.07,40,69.41c-5.85,6.89-15.13,8.32-23.15,4.46S3.15,60.88,8.1,52.33c2.41-4.17,6.88-7.47,11.82-7.55a10.85,10.85,0,0,1,7.82,3.12,5.75,5.75,0,0,1,2,3.88c0,1.68-1.25,3.55-3.16,3.16-3.89-.81-5.55,5.16-1.64,6,7.2,1.5,12.75-5.51,10.48-12.35-2.08-6.25-9.12-10.07-15.45-10-13.12.16-23.3,14.61-18.87,27C5.23,77.21,18.73,84,30.67,81.81c13-2.34,20.87-15.53,21.1-28,.3-16.67-12.31-30.9-26.69-37.69-3.59-1.7-6.74,3.65-3.13,5.35Z"/></g></g></svg>