<svg xmlns="http://www.w3.org/2000/svg" viewBox="0 0 71.28 83.37"><defs><style>.cls-1{fill:#b5d6e7;}</style></defs><g id="Layer_2" data-name="Layer 2"><g id="Слой_2" data-name="Слой 2"><path class="cls-1" d="M52.55,1.09C33.35-3.45,12.67,6.55,4,24.28c-9.28,18.86-1.49,42,15.88,53.25C28.31,83,38.47,85,48.21,81.88A34.17,34.17,0,0,0,69.66,61a29.32,29.32,0,0,0-5.9-29.25c-6.31-7-17.59-12.13-26.93-8.75-12,4.36-18.38,23.16-7.32,32A13.6,13.6,0,0,0,42.85,57c6.09-2.56,8.09-9.93,5.67-15.75-1.2-2.92-4.13-3.8-6.06-1,.27-.38,1.9-2-.41.1l-1,1.19q.57-.72-.18,0a18.16,18.16,0,0,0-2,.69A7.7,7.7,0,0,1,35.71,42c.16,0-1.74-.71-1.11-.38-.17-.09-1.44-1.26-.75-.63s-.34,1.65.39.11a12.06,12.06,0,0,1,2.58-3.9,15.63,15.63,0,0,1,9.85-4c7.18-.35,14,5.26,16.87,11.57,3.13,6.8.55,14.24-4.22,19.58C48.5,76.42,30.2,77,18,66.75,6.32,57,1.46,40.71,9.33,27.12,17.7,12.67,35.8,4.67,52.15,7.28c2.48.39,2.68-5.65.4-6.19Z"/></g></g></svg>