<svg xmlns="http://www.w3.org/2000/svg" viewBox="0 0 154.25 143.3"><defs><style>.cls-1{fill:#ffbfbf;}</style></defs><g id="Layer_2" data-name="Layer 2"><g id="Слой_2" data-name="Слой 2"><path class="cls-1" d="M5.24,140.29C2.12,125.42,4,108.87,12.54,96.05c7.87-11.8,21.1-18.54,35.25-15.58C58.69,82.75,72,90.78,73.07,103.05c.59,6.87-3.75,13.62-11.24,12.3-6.52-1.15-12.46-6.89-15.16-12.72-5.93-12.83-.89-28.36,6.93-39.14,8.28-11.43,21.6-19.9,35.89-20.6,7.64-.37,15.85,1.41,22.1,6,5.14,3.77,9.08,9.4,6.35,15.81-2.51,5.87-9.13,8.6-14.88,5.51s-8.79-10.51-9.57-16.75c-2-16,5.72-34.29,20.87-41.15,12.81-5.79,33.87-1.14,37,14.43.6,3.06,3.27,1.1,2.91-1.31C151.74,8.84,134-2.29,117.9.4,98,3.73,87.3,24.63,85.88,43.12c-.78,10.11.57,20.31,5.91,29.1,4.56,7.5,13,13.12,22,9.88C122.41,79,126.53,68.59,126.46,60c-.08-10.4-6.68-19-15.6-23.78-17-9.07-37.8-3.86-52,8S35.53,74.83,37,93.39c.79,9.8,4.06,18.92,11.26,25.83,5.81,5.57,15.29,10,22.89,5.21,8.5-5.34,10.33-17.64,8.09-26.75A34,34,0,0,0,65.68,78.17c-14-9.84-32.6-10.33-46.19.43C5,90.12-.88,110.11.11,128.06a71.84,71.84,0,0,0,2.06,13.61c.79,3.16,3.61,1.19,3.07-1.38Z"/></g></g></svg>